<?xml version="1.0" encoding="utf-8"?>
<!-- Generator: Adobe Illustrator 16.0.0, SVG Export Plug-In . SVG Version: 6.00 Build 0)  -->
<!DOCTYPE svg PUBLIC "-//W3C//DTD SVG 1.1//EN" "http://www.w3.org/Graphics/SVG/1.1/DTD/svg11.dtd">
<svg version="1.1" id="Layer_1" xmlns="http://www.w3.org/2000/svg" xmlns:xlink="http://www.w3.org/1999/xlink" x="0px" y="0px"
	 width="651px" height="579.466px" viewBox="0 0 651 579.466" enable-background="new 0 0 651 579.466" xml:space="preserve">
<g>
	<path fill="none" stroke="#D9D9D9" stroke-width="0.75" stroke-linejoin="round" stroke-miterlimit="10" d="M80.902,25.393h526.31
		 M80.902,66.952h526.31 M80.902,108.689h526.31 M80.902,150.11h526.31 M80.902,191.847h526.31 M80.902,233.584h526.31
		 M80.902,275.009h526.31 M80.902,316.745h526.31 M80.902,358.163h526.31 M80.902,399.899h526.31"/>
	<path fill="none" stroke="#D9D9D9" stroke-width="0.75" stroke-linejoin="round" stroke-miterlimit="10" d="M607.212,25.393
		v416.095 M519.406,25.393v416.095 M431.819,25.393v416.095 M343.917,25.393v416.095 M256.332,25.393v416.095 M168.746,25.393
		v416.095"/>
	
		<line fill="none" stroke="#BFBFBF" stroke-width="0.75" stroke-linejoin="round" stroke-miterlimit="10" x1="80.902" y1="441.488" x2="80.902" y2="25.39"/>
	
		<line fill="none" stroke="#BFBFBF" stroke-width="0.75" stroke-linejoin="round" stroke-miterlimit="10" x1="80.902" y1="441.488" x2="607.212" y2="441.488"/>
	<path fill="none" stroke="#5C9BD4" stroke-width="0.72" stroke-linejoin="round" stroke-miterlimit="10" d="M253.749,363.19
		l13.28-13.276 M267.028,363.19l-13.28-13.276"/>
	<path fill="none" stroke="#5C9BD4" stroke-width="0.72" stroke-linejoin="round" stroke-miterlimit="10" d="M223.079,348.962
		l13.28-13.277 M236.359,348.962l-13.28-13.277"/>
	<path fill="none" stroke="#5C9BD4" stroke-width="0.72" stroke-linejoin="round" stroke-miterlimit="10" d="M336.59,294.261
		l13.281-13.278 M349.871,294.261l-13.281-13.278"/>
	<path fill="none" stroke="#5C9BD4" stroke-width="0.72" stroke-linejoin="round" stroke-miterlimit="10" d="M368.211,307.225
		l13.279-13.278 M381.49,307.225l-13.279-13.278"/>
	<path fill="none" stroke="#5C9BD4" stroke-width="0.72" stroke-linejoin="round" stroke-miterlimit="10" d="M420.698,200.984
		l13.283-13.28 M433.981,200.984l-13.283-13.28"/>
	<path fill="none" stroke="#5C9BD4" stroke-width="0.72" stroke-linejoin="round" stroke-miterlimit="10" d="M431.136,183.278
		l13.276-13.28 M444.412,183.278l-13.276-13.28"/>
	<path fill="none" stroke="#5C9BD4" stroke-width="0.72" stroke-linejoin="round" stroke-miterlimit="10" d="M457.375,212.051
		l13.283-13.28 M470.658,212.051l-13.283-13.28"/>
	<path fill="none" stroke="#5C9BD4" stroke-width="0.72" stroke-linejoin="round" stroke-miterlimit="10" d="M482.673,233.236
		l13.281-13.28 M495.954,233.236l-13.281-13.28"/>
	<path fill="none" stroke="#5C9BD4" stroke-width="0.72" stroke-linejoin="round" stroke-miterlimit="10" d="M490.261,128.578
		l13.28-13.281 M503.541,128.578l-13.28-13.281"/>
	<path fill="none" stroke="#5C9BD4" stroke-width="0.72" stroke-linejoin="round" stroke-miterlimit="10" d="M309.398,252.526
		l13.281-13.281 M322.68,252.526l-13.281-13.281"/>
	<path fill="none" stroke="#5C9BD4" stroke-width="0.72" stroke-linejoin="round" stroke-miterlimit="10" d="M253.749,322.087
		l13.28-13.283 M267.028,322.087l-13.28-13.283"/>
	<path fill="none" stroke="#5C9BD4" stroke-width="0.72" stroke-linejoin="round" stroke-miterlimit="10" d="M263.551,366.984
		l13.281-13.278 M276.832,366.984l-13.281-13.278"/>
	<path fill="none" stroke="#5C9BD4" stroke-width="0.72" stroke-linejoin="round" stroke-miterlimit="10" d="M349.871,278.451
		l13.28-13.279 M363.151,278.451l-13.28-13.279"/>
	<path fill="none" stroke="#5C9BD4" stroke-width="0.72" stroke-linejoin="round" stroke-miterlimit="10" d="M397.616,180.432
		l13.281-13.28 M410.897,180.432l-13.281-13.28"/>
	<path fill="none" stroke="#5C9BD4" stroke-width="0.72" stroke-linejoin="round" stroke-miterlimit="10" d="M434.295,180.432
		l13.279-13.28 M447.574,180.432l-13.279-13.28"/>
	<path fill="none" stroke="#5C9BD4" stroke-width="0.72" stroke-linejoin="round" stroke-miterlimit="10" d="M476.664,212.051
		l13.28-13.28 M489.944,212.051l-13.28-13.28"/>
	<path fill="none" stroke="#5C9BD4" stroke-width="0.72" stroke-linejoin="round" stroke-miterlimit="10" d="M483.303,152.292
		l13.283-13.28 M496.586,152.292l-13.283-13.28"/>
	<path fill="none" stroke="#5C9BD4" stroke-width="0.72" stroke-linejoin="round" stroke-miterlimit="10" d="M479.512,161.777
		l13.278-13.28 M492.79,161.777l-13.278-13.28"/>
	<path fill="none" stroke="#C01718" stroke-width="0.72" stroke-linejoin="round" stroke-miterlimit="10" d="M197.466,344.223
		l13.281-13.284 M210.747,344.223l-13.281-13.284"/>
	<path fill="none" stroke="#C01718" stroke-width="0.72" stroke-linejoin="round" stroke-miterlimit="10" d="M321.731,244.303
		l13.278-13.28 M335.01,244.303l-13.278-13.28"/>
	<path fill="none" stroke="#C01718" stroke-width="0.72" stroke-linejoin="round" stroke-miterlimit="10" d="M371.689,173.477
		l13.28-13.28 M384.97,173.477l-13.28-13.28"/>
	<path fill="none" stroke="#C01718" stroke-width="0.72" stroke-linejoin="round" stroke-miterlimit="10" d="M440.933,120.356
		l13.283-13.281 M454.216,120.356l-13.283-13.281"/>
	<path fill="none" stroke="#C01718" stroke-width="0.72" stroke-linejoin="round" stroke-miterlimit="10" d="M473.186,105.494
		l13.283-13.281 M486.469,105.494l-13.283-13.281"/>
	<path fill="none" stroke="#C01718" stroke-width="0.72" stroke-linejoin="round" stroke-miterlimit="10" d="M477.613,140.909
		l13.281-13.281 M490.895,140.909l-13.281-13.281"/>
	<path fill="none" stroke="#C01718" stroke-width="0.72" stroke-linejoin="round" stroke-miterlimit="10" d="M227.505,338.53
		l13.28-13.283 M240.785,338.53l-13.28-13.283"/>
	<path fill="none" stroke="#C01718" stroke-width="0.72" stroke-linejoin="round" stroke-miterlimit="10" d="M192.091,317.976
		l13.281-13.277 M205.372,317.976l-13.281-13.277"/>
	<path fill="none" stroke="#C01718" stroke-width="0.72" stroke-linejoin="round" stroke-miterlimit="10" d="M266.713,249.046
		l13.281-13.28 M279.994,249.046l-13.281-13.28"/>
	<path fill="none" stroke="#C01718" stroke-width="0.72" stroke-linejoin="round" stroke-miterlimit="10" d="M349.241,230.708
		l13.276-13.281 M362.518,230.708l-13.276-13.281"/>
	<path fill="none" stroke="#C01718" stroke-width="0.72" stroke-linejoin="round" stroke-miterlimit="10" d="M446.313,110.869
		l13.276-13.281 M459.589,110.869l-13.276-13.281"/>
	<path fill="none" stroke="#C01718" stroke-width="0.72" stroke-linejoin="round" stroke-miterlimit="10" d="M453.266,138.379
		l13.281-13.28 M466.547,138.379l-13.281-13.28"/>
	<path fill="none" stroke="#C01718" stroke-width="0.72" stroke-linejoin="round" stroke-miterlimit="10" d="M466.547,142.804
		l13.28-13.28 M479.827,142.804l-13.28-13.28"/>
	<path fill="none" stroke="#C01718" stroke-width="0.72" stroke-linejoin="round" stroke-miterlimit="10" d="M476.981,87.154
		l13.279-13.28 M490.261,87.154l-13.279-13.28"/>
	<path fill="none" stroke="#C01718" stroke-width="0.72" stroke-linejoin="round" stroke-miterlimit="10" d="M239.52,270.866
		l13.281-13.282 M252.801,270.866l-13.281-13.282"/>
	<path fill="none" stroke="#C01718" stroke-width="0.72" stroke-linejoin="round" stroke-miterlimit="10" d="M348.921,256.634
		l13.283-13.28 M362.204,256.634l-13.283-13.28"/>
	<path fill="none" stroke="#C01718" stroke-width="0.72" stroke-linejoin="round" stroke-miterlimit="10" d="M456.113,139.958
		l13.279-13.28 M469.393,139.958l-13.279-13.28"/>
	<path fill="none" stroke="#C01718" stroke-width="0.72" stroke-linejoin="round" stroke-miterlimit="10" d="M461.805,96.958
		l13.279-13.281 M475.084,96.958l-13.279-13.281"/>
	<path fill="none" stroke="#71AE48" stroke-width="0.72" stroke-linejoin="round" stroke-miterlimit="10" d="M318.567,283.196
		l13.281-13.283 M331.849,283.196l-13.281-13.283"/>
	<path fill="none" stroke="#71AE48" stroke-width="0.72" stroke-linejoin="round" stroke-miterlimit="10" d="M243,361.611
		l13.28-13.283 M256.279,361.611L243,348.328"/>
	<path fill="none" stroke="#71AE48" stroke-width="0.72" stroke-linejoin="round" stroke-miterlimit="10" d="M173.121,420.105
		l13.28-13.278 M186.4,420.105l-13.28-13.278"/>
	<path fill="none" stroke="#71AE48" stroke-width="0.72" stroke-linejoin="round" stroke-miterlimit="10" d="M339.122,287.304
		l13.278-13.278 M352.4,287.304l-13.278-13.278"/>
	<path fill="none" stroke="#71AE48" stroke-width="0.72" stroke-linejoin="round" stroke-miterlimit="10" d="M438.721,106.76
		l13.283-13.28 M452.004,106.76l-13.283-13.28"/>
	<path fill="none" stroke="#71AE48" stroke-width="0.72" stroke-linejoin="round" stroke-miterlimit="10" d="M289.795,312.603
		l13.28-13.283 M303.075,312.603l-13.28-13.283"/>
	<path fill="none" stroke="#71AE48" stroke-width="0.72" stroke-linejoin="round" stroke-miterlimit="10" d="M422.28,95.375
		l13.281-13.28 M435.562,95.375l-13.281-13.28"/>
	<path fill="none" stroke="#71AE48" stroke-width="0.72" stroke-linejoin="round" stroke-miterlimit="10" d="M470.972,126.679
		l13.281-13.281 M484.253,126.679l-13.281-13.281"/>
	<path fill="none" stroke="#71AE48" stroke-width="0.72" stroke-linejoin="round" stroke-miterlimit="10" d="M471.606,173.161
		l13.28-13.281 M484.887,173.161l-13.28-13.281"/>
	<path fill="none" stroke="#71AE48" stroke-width="0.72" stroke-linejoin="round" stroke-miterlimit="10" d="M310.664,318.295
		l13.28-13.283 M323.943,318.295l-13.28-13.283"/>
	<path fill="none" stroke="#71AE48" stroke-width="0.72" stroke-linejoin="round" stroke-miterlimit="10" d="M165.215,356.233
		l13.281-13.276 M178.496,356.233l-13.281-13.276"/>
	<path fill="none" stroke="#71AE48" stroke-width="0.72" stroke-linejoin="round" stroke-miterlimit="10" d="M272.721,378.688
		L286,365.404 M286,378.688l-13.28-13.283"/>
	<path fill="none" stroke="#71AE48" stroke-width="0.72" stroke-linejoin="round" stroke-miterlimit="10" d="M136.442,396.71
		l13.279-13.283 M149.721,396.71l-13.279-13.283"/>
	<path fill="none" stroke="#71AE48" stroke-width="0.72" stroke-linejoin="round" stroke-miterlimit="10" d="M240.47,326.199
		l13.279-13.283 M253.749,326.199l-13.279-13.283"/>
	<path fill="none" stroke="#71AE48" stroke-width="0.72" stroke-linejoin="round" stroke-miterlimit="10" d="M369.791,240.192
		l13.283-13.28 M383.074,240.192l-13.283-13.28"/>
	<path fill="none" stroke="#71AE48" stroke-width="0.72" stroke-linejoin="round" stroke-miterlimit="10" d="M372.007,280.031
		l13.279-13.279 M385.286,280.031l-13.279-13.279"/>
	<path fill="none" stroke="#71AE48" stroke-width="0.72" stroke-linejoin="round" stroke-miterlimit="10" d="M404.256,176.954
		l13.283-13.28 M417.539,176.954l-13.283-13.28"/>
	<path fill="none" stroke="#71AE48" stroke-width="0.72" stroke-linejoin="round" stroke-miterlimit="10" d="M452.317,137.746
		l13.283-13.28 M465.601,137.746l-13.283-13.28"/>
	<path fill="none" stroke="#71AE48" stroke-width="0.72" stroke-linejoin="round" stroke-miterlimit="10" d="M464.967,168.418
		l13.278-13.28 M478.245,168.418l-13.278-13.28"/>
	<path fill="none" stroke="#673A8E" stroke-width="0.72" stroke-linejoin="round" stroke-miterlimit="10" d="M341.336,330.306
		l13.276-13.277 M354.612,330.306l-13.276-13.277"/>
	<path fill="none" stroke="#673A8E" stroke-width="0.72" stroke-linejoin="round" stroke-miterlimit="10" d="M432.716,200.668
		l13.278-13.281 M445.994,200.668l-13.278-13.281"/>
	<path fill="none" stroke="#673A8E" stroke-width="0.72" stroke-linejoin="round" stroke-miterlimit="10" d="M479.512,158.614
		l13.278-13.28 M492.79,158.614l-13.278-13.28"/>
	<path fill="none" stroke="#673A8E" stroke-width="0.72" stroke-linejoin="round" stroke-miterlimit="10" d="M520.934,133.32
		l13.277-13.281 M534.211,133.32l-13.277-13.281"/>
	<path fill="none" stroke="#673A8E" stroke-width="0.72" stroke-linejoin="round" stroke-miterlimit="10" d="M544.962,93.163
		l13.28-13.28 M558.242,93.163l-13.28-13.28"/>
	<path fill="none" stroke="#673A8E" stroke-width="0.72" stroke-linejoin="round" stroke-miterlimit="10" d="M545.911,172.528
		l13.281-13.281 M559.192,172.528l-13.281-13.281"/>
	<path fill="none" stroke="#673A8E" stroke-width="0.72" stroke-linejoin="round" stroke-miterlimit="10" d="M416.589,211.418
		l13.279-13.28 M429.868,211.418l-13.279-13.28"/>
	<path fill="none" stroke="#673A8E" stroke-width="0.72" stroke-linejoin="round" stroke-miterlimit="10" d="M254.065,357.819
		l13.28-13.283 M267.345,357.819l-13.28-13.283"/>
	<path fill="none" stroke="#673A8E" stroke-width="0.72" stroke-linejoin="round" stroke-miterlimit="10" d="M429.552,271.813
		l13.281-13.282 M442.833,271.813l-13.281-13.282"/>
	<path fill="none" stroke="#673A8E" stroke-width="0.72" stroke-linejoin="round" stroke-miterlimit="10" d="M422.597,227.228
		l13.278-13.28 M435.875,227.228l-13.278-13.28"/>
	<path fill="none" stroke="#673A8E" stroke-width="0.72" stroke-linejoin="round" stroke-miterlimit="10" d="M492.158,200.037
		l13.279-13.28 M505.438,200.037l-13.279-13.28"/>
	<path fill="none" stroke="#673A8E" stroke-width="0.72" stroke-linejoin="round" stroke-miterlimit="10" d="M541.17,164.939
		l13.276-13.281 M554.446,164.939l-13.276-13.281"/>
	<path fill="none" stroke="#673A8E" stroke-width="0.72" stroke-linejoin="round" stroke-miterlimit="10" d="M535.477,172.528
		l13.28-13.281 M548.757,172.528l-13.28-13.281"/>
	<path fill="none" stroke="#673A8E" stroke-width="0.72" stroke-linejoin="round" stroke-miterlimit="10" d="M547.808,155.138
		l13.28-13.281 M561.088,155.138l-13.28-13.281"/>
	
		<line fill="none" stroke="#5C9BD4" stroke-linecap="round" stroke-linejoin="round" stroke-miterlimit="10" x1="229.673" y1="355.981" x2="496.952" y2="157.811"/>
	
		<line fill="none" stroke="#C01718" stroke-linecap="round" stroke-linejoin="round" stroke-miterlimit="10" x1="198.795" y1="329.452" x2="484.319" y2="103.505"/>
	
		<line fill="none" stroke="#71AE48" stroke-linecap="round" stroke-linejoin="round" stroke-miterlimit="10" x1="143.006" y1="429.795" x2="478.178" y2="131.954"/>
	
		<line fill="none" stroke="#673A8E" stroke-linecap="round" stroke-linejoin="round" stroke-miterlimit="10" x1="260.901" y1="357.793" x2="554.583" y2="133.338"/>
	<g>
		<path d="M55.534,440.928c0-1.552,0.16-2.801,0.479-3.747s0.794-1.676,1.424-2.189s1.422-0.771,2.377-0.771
			c0.704,0,1.322,0.143,1.854,0.426s0.97,0.692,1.316,1.227s0.618,1.186,0.815,1.952c0.197,0.768,0.295,1.802,0.295,3.103
			c0,1.541-0.158,2.784-0.475,3.73c-0.316,0.945-0.79,1.677-1.419,2.193s-1.425,0.774-2.386,0.774c-1.266,0-2.26-0.453-2.982-1.361
			C55.966,445.173,55.534,443.394,55.534,440.928z M57.19,440.928c0,2.155,0.252,3.59,0.756,4.303
			c0.504,0.714,1.127,1.07,1.867,1.07s1.362-0.358,1.867-1.074c0.504-0.717,0.756-2.149,0.756-4.299c0-2.16-0.252-3.597-0.756-4.307
			c-0.505-0.711-1.133-1.065-1.885-1.065c-0.74,0-1.331,0.313-1.773,0.939C57.468,437.296,57.19,438.773,57.19,440.928z"/>
	</g>
	<g>
		<path d="M55.534,402.351l1.692-0.144c0.125,0.824,0.417,1.443,0.873,1.858s1.007,0.622,1.652,0.622
			c0.776,0,1.433-0.292,1.97-0.877c0.538-0.586,0.806-1.361,0.806-2.329c0-0.919-0.258-1.645-0.775-2.176
			c-0.516-0.531-1.192-0.797-2.028-0.797c-0.52,0-0.988,0.118-1.406,0.354c-0.418,0.236-0.746,0.542-0.985,0.918l-1.513-0.197
			l1.271-6.742h6.528v1.54h-5.238l-0.708,3.528c0.788-0.55,1.615-0.824,2.48-0.824c1.146,0,2.113,0.397,2.901,1.191
			s1.182,1.814,1.182,3.063c0,1.188-0.347,2.215-1.039,3.08c-0.842,1.063-1.991,1.594-3.447,1.594c-1.194,0-2.169-0.334-2.924-1.003
			C56.072,404.342,55.641,403.455,55.534,402.351z"/>
	</g>
	<g>
		<path d="M51.335,364.18h-1.612v-10.271c-0.388,0.371-0.897,0.741-1.527,1.111s-1.195,0.647-1.697,0.832v-1.558
			c0.901-0.424,1.689-0.938,2.364-1.54c0.675-0.604,1.152-1.188,1.433-1.756h1.039V364.18z"/>
		<path d="M55.39,357.705c0-1.552,0.16-2.801,0.479-3.747s0.794-1.676,1.424-2.189s1.422-0.771,2.377-0.771
			c0.704,0,1.322,0.143,1.854,0.426s0.97,0.692,1.316,1.227s0.618,1.186,0.815,1.952c0.197,0.768,0.295,1.802,0.295,3.103
			c0,1.541-0.158,2.784-0.475,3.73c-0.316,0.945-0.79,1.677-1.419,2.193s-1.425,0.774-2.386,0.774c-1.266,0-2.26-0.453-2.982-1.361
			C55.823,361.95,55.39,360.171,55.39,357.705z M57.047,357.705c0,2.155,0.252,3.59,0.756,4.303c0.504,0.714,1.127,1.07,1.867,1.07
			s1.362-0.358,1.867-1.074c0.504-0.717,0.756-2.149,0.756-4.299c0-2.16-0.252-3.597-0.756-4.307
			c-0.505-0.711-1.133-1.065-1.885-1.065c-0.74,0-1.331,0.313-1.773,0.939C57.324,354.073,57.047,355.551,57.047,357.705z"/>
	</g>
	<g>
		<path d="M51.335,322.568h-1.612v-10.271c-0.388,0.37-0.897,0.74-1.527,1.11s-1.195,0.648-1.697,0.833v-1.558
			c0.901-0.424,1.689-0.938,2.364-1.541s1.152-1.188,1.433-1.755h1.039V322.568z"/>
		<path d="M55.39,319.13l1.692-0.144c0.125,0.824,0.417,1.443,0.873,1.858s1.007,0.622,1.652,0.622c0.776,0,1.433-0.292,1.97-0.877
			c0.538-0.585,0.806-1.361,0.806-2.328c0-0.919-0.258-1.645-0.775-2.176c-0.516-0.531-1.192-0.797-2.028-0.797
			c-0.52,0-0.988,0.118-1.406,0.354s-0.746,0.542-0.985,0.917l-1.513-0.197l1.271-6.743h6.528v1.54h-5.238l-0.708,3.528
			c0.788-0.549,1.615-0.824,2.48-0.824c1.146,0,2.113,0.397,2.901,1.191c0.788,0.794,1.182,1.815,1.182,3.063
			c0,1.188-0.347,2.215-1.039,3.081c-0.842,1.063-1.991,1.594-3.447,1.594c-1.194,0-2.169-0.334-2.924-1.003
			C55.929,321.121,55.498,320.234,55.39,319.13z"/>
	</g>
	<g>
		<path d="M53.735,279.406v1.549h-8.677c-0.012-0.388,0.051-0.761,0.188-1.119c0.221-0.591,0.575-1.173,1.061-1.747
			c0.487-0.573,1.189-1.235,2.109-1.988c1.427-1.17,2.391-2.097,2.893-2.78s0.752-1.33,0.752-1.939c0-0.639-0.228-1.177-0.685-1.616
			c-0.457-0.438-1.052-0.658-1.786-0.658c-0.776,0-1.397,0.233-1.863,0.699c-0.466,0.465-0.702,1.11-0.708,1.934l-1.656-0.17
			c0.113-1.236,0.54-2.178,1.28-2.825c0.74-0.648,1.734-0.972,2.982-0.972c1.26,0,2.256,0.349,2.991,1.047
			c0.734,0.699,1.102,1.564,1.102,2.597c0,0.525-0.107,1.042-0.322,1.549c-0.215,0.508-0.572,1.042-1.07,1.603
			c-0.499,0.562-1.327,1.332-2.485,2.311c-0.967,0.812-1.588,1.362-1.862,1.652c-0.275,0.29-0.501,0.581-0.681,0.873H53.735z"/>
		<path d="M55.39,274.481c0-1.552,0.16-2.801,0.479-3.748s0.794-1.676,1.424-2.189c0.63-0.513,1.422-0.77,2.377-0.77
			c0.704,0,1.322,0.142,1.854,0.425s0.97,0.692,1.316,1.227c0.346,0.535,0.618,1.185,0.815,1.952
			c0.197,0.767,0.295,1.802,0.295,3.103c0,1.54-0.158,2.783-0.475,3.729s-0.79,1.678-1.419,2.194
			c-0.63,0.517-1.425,0.774-2.386,0.774c-1.266,0-2.26-0.454-2.982-1.361C55.823,278.726,55.39,276.946,55.39,274.481z
			 M57.047,274.481c0,2.155,0.252,3.589,0.756,4.303s1.127,1.07,1.867,1.07s1.362-0.358,1.867-1.074
			c0.504-0.717,0.756-2.149,0.756-4.298c0-2.161-0.252-3.597-0.756-4.307c-0.505-0.71-1.133-1.066-1.885-1.066
			c-0.74,0-1.331,0.313-1.773,0.94C57.324,270.848,57.047,272.326,57.047,274.481z"/>
	</g>
	<g>
		<path d="M53.735,237.794v1.549h-8.677c-0.012-0.388,0.051-0.761,0.188-1.119c0.221-0.591,0.575-1.173,1.061-1.747
			c0.487-0.573,1.189-1.235,2.109-1.988c1.427-1.17,2.391-2.097,2.893-2.78s0.752-1.33,0.752-1.939c0-0.639-0.228-1.177-0.685-1.616
			c-0.457-0.438-1.052-0.658-1.786-0.658c-0.776,0-1.397,0.233-1.863,0.699c-0.466,0.465-0.702,1.11-0.708,1.934l-1.656-0.17
			c0.113-1.236,0.54-2.178,1.28-2.825c0.74-0.648,1.734-0.972,2.982-0.972c1.26,0,2.256,0.349,2.991,1.047
			c0.734,0.699,1.102,1.564,1.102,2.597c0,0.525-0.107,1.042-0.322,1.549c-0.215,0.508-0.572,1.042-1.07,1.603
			c-0.499,0.562-1.327,1.332-2.485,2.311c-0.967,0.812-1.588,1.362-1.862,1.652c-0.275,0.29-0.501,0.581-0.681,0.873H53.735z"/>
		<path d="M55.39,235.905l1.692-0.144c0.125,0.824,0.417,1.443,0.873,1.858s1.007,0.622,1.652,0.622c0.776,0,1.433-0.292,1.97-0.877
			c0.538-0.585,0.806-1.361,0.806-2.328c0-0.919-0.258-1.645-0.775-2.176c-0.516-0.531-1.192-0.797-2.028-0.797
			c-0.52,0-0.988,0.118-1.406,0.354s-0.746,0.542-0.985,0.917l-1.513-0.197l1.271-6.743h6.528v1.54h-5.238l-0.708,3.528
			c0.788-0.549,1.615-0.824,2.48-0.824c1.146,0,2.113,0.397,2.901,1.191c0.788,0.794,1.182,1.815,1.182,3.063
			c0,1.188-0.347,2.215-1.039,3.081c-0.842,1.063-1.991,1.594-3.447,1.594c-1.194,0-2.169-0.334-2.924-1.003
			C55.929,237.896,55.498,237.01,55.39,235.905z"/>
	</g>
	<g>
		<path d="M45.273,194.269l1.612-0.215c0.185,0.913,0.5,1.571,0.945,1.974c0.445,0.403,0.986,0.604,1.625,0.604
			c0.758,0,1.398-0.263,1.92-0.788c0.522-0.525,0.784-1.176,0.784-1.952c0-0.74-0.242-1.351-0.725-1.831
			c-0.484-0.48-1.099-0.721-1.845-0.721c-0.305,0-0.684,0.06-1.137,0.179l0.179-1.415c0.107,0.012,0.194,0.018,0.26,0.018
			c0.687,0,1.304-0.179,1.854-0.538c0.549-0.358,0.824-0.91,0.824-1.656c0-0.591-0.2-1.081-0.6-1.469s-0.917-0.582-1.549-0.582
			c-0.627,0-1.149,0.197-1.567,0.591c-0.418,0.394-0.687,0.985-0.806,1.773l-1.612-0.286c0.197-1.081,0.645-1.918,1.343-2.512
			c0.699-0.594,1.567-0.891,2.606-0.891c0.716,0,1.376,0.154,1.979,0.461c0.603,0.308,1.064,0.727,1.383,1.258
			s0.479,1.096,0.479,1.692c0,0.567-0.152,1.083-0.457,1.549c-0.304,0.465-0.755,0.835-1.352,1.11
			c0.776,0.179,1.379,0.551,1.809,1.115c0.43,0.564,0.645,1.27,0.645,2.118c0,1.146-0.418,2.118-1.254,2.915
			c-0.836,0.797-1.893,1.195-3.17,1.195c-1.152,0-2.109-0.343-2.87-1.03C45.815,196.251,45.38,195.361,45.273,194.269z"/>
		<path d="M55.39,191.26c0-1.552,0.16-2.801,0.479-3.748s0.794-1.676,1.424-2.189c0.63-0.513,1.422-0.77,2.377-0.77
			c0.704,0,1.322,0.142,1.854,0.425s0.97,0.692,1.316,1.227c0.346,0.535,0.618,1.185,0.815,1.952
			c0.197,0.767,0.295,1.802,0.295,3.103c0,1.54-0.158,2.783-0.475,3.729s-0.79,1.678-1.419,2.194
			c-0.63,0.517-1.425,0.774-2.386,0.774c-1.266,0-2.26-0.454-2.982-1.361C55.823,195.505,55.39,193.726,55.39,191.26z
			 M57.047,191.26c0,2.155,0.252,3.589,0.756,4.303s1.127,1.07,1.867,1.07s1.362-0.358,1.867-1.074
			c0.504-0.717,0.756-2.149,0.756-4.298c0-2.161-0.252-3.597-0.756-4.307c-0.505-0.71-1.133-1.066-1.885-1.066
			c-0.74,0-1.331,0.313-1.773,0.94C57.324,187.627,57.047,189.105,57.047,191.26z"/>
	</g>
	<g>
		<path d="M45.273,152.656l1.612-0.215c0.185,0.913,0.5,1.571,0.945,1.974c0.445,0.403,0.986,0.604,1.625,0.604
			c0.758,0,1.398-0.263,1.92-0.788c0.522-0.525,0.784-1.176,0.784-1.952c0-0.74-0.242-1.351-0.725-1.831
			c-0.484-0.48-1.099-0.721-1.845-0.721c-0.305,0-0.684,0.06-1.137,0.179l0.179-1.415c0.107,0.012,0.194,0.018,0.26,0.018
			c0.687,0,1.304-0.179,1.854-0.538c0.549-0.358,0.824-0.91,0.824-1.656c0-0.591-0.2-1.081-0.6-1.469s-0.917-0.582-1.549-0.582
			c-0.627,0-1.149,0.197-1.567,0.591c-0.418,0.394-0.687,0.985-0.806,1.773l-1.612-0.286c0.197-1.081,0.645-1.918,1.343-2.512
			c0.699-0.594,1.567-0.891,2.606-0.891c0.716,0,1.376,0.154,1.979,0.461c0.603,0.308,1.064,0.727,1.383,1.258
			s0.479,1.096,0.479,1.692c0,0.567-0.152,1.083-0.457,1.549c-0.304,0.465-0.755,0.835-1.352,1.11
			c0.776,0.179,1.379,0.551,1.809,1.115c0.43,0.564,0.645,1.27,0.645,2.118c0,1.146-0.418,2.118-1.254,2.915
			c-0.836,0.797-1.893,1.195-3.17,1.195c-1.152,0-2.109-0.343-2.87-1.03C45.815,154.638,45.38,153.748,45.273,152.656z"/>
		<path d="M55.39,152.683l1.692-0.144c0.125,0.824,0.417,1.443,0.873,1.858s1.007,0.622,1.652,0.622c0.776,0,1.433-0.292,1.97-0.877
			c0.538-0.585,0.806-1.361,0.806-2.328c0-0.919-0.258-1.645-0.775-2.176c-0.516-0.531-1.192-0.797-2.028-0.797
			c-0.52,0-0.988,0.118-1.406,0.354s-0.746,0.542-0.985,0.917l-1.513-0.197l1.271-6.743h6.528v1.54h-5.238l-0.708,3.528
			c0.788-0.549,1.615-0.824,2.48-0.824c1.146,0,2.113,0.397,2.901,1.191c0.788,0.794,1.182,1.815,1.182,3.063
			c0,1.188-0.347,2.215-1.039,3.081c-0.842,1.063-1.991,1.594-3.447,1.594c-1.194,0-2.169-0.334-2.924-1.003
			C55.929,154.673,55.498,153.787,55.39,152.683z"/>
	</g>
	<g>
		<path d="M50.431,114.51v-3.143h-5.695v-1.478l5.991-8.507h1.316v8.507h1.773v1.478h-1.773v3.143H50.431z M50.431,109.889v-5.919
			l-4.11,5.919H50.431z"/>
		<path d="M55.39,108.036c0-1.552,0.16-2.801,0.479-3.748s0.794-1.676,1.424-2.189c0.63-0.513,1.422-0.77,2.377-0.77
			c0.704,0,1.322,0.142,1.854,0.425s0.97,0.692,1.316,1.227c0.346,0.535,0.618,1.185,0.815,1.952
			c0.197,0.767,0.295,1.802,0.295,3.103c0,1.54-0.158,2.783-0.475,3.729s-0.79,1.678-1.419,2.194
			c-0.63,0.517-1.425,0.774-2.386,0.774c-1.266,0-2.26-0.454-2.982-1.361C55.823,112.28,55.39,110.501,55.39,108.036z
			 M57.047,108.036c0,2.155,0.252,3.589,0.756,4.303s1.127,1.07,1.867,1.07s1.362-0.358,1.867-1.074
			c0.504-0.717,0.756-2.149,0.756-4.298c0-2.161-0.252-3.597-0.756-4.307c-0.505-0.71-1.133-1.066-1.885-1.066
			c-0.74,0-1.331,0.313-1.773,0.94C57.324,104.403,57.047,105.88,57.047,108.036z"/>
	</g>
	<g>
		<path d="M50.431,72.896v-3.143h-5.695v-1.478l5.991-8.507h1.316v8.507h1.773v1.478h-1.773v3.143H50.431z M50.431,68.276v-5.919
			l-4.11,5.919H50.431z"/>
		<path d="M55.39,69.458l1.692-0.144c0.125,0.824,0.417,1.443,0.873,1.858s1.007,0.622,1.652,0.622c0.776,0,1.433-0.292,1.97-0.877
			c0.538-0.585,0.806-1.361,0.806-2.328c0-0.919-0.258-1.645-0.775-2.176c-0.516-0.531-1.192-0.797-2.028-0.797
			c-0.52,0-0.988,0.118-1.406,0.354s-0.746,0.542-0.985,0.917l-1.513-0.197l1.271-6.743h6.528v1.54h-5.238l-0.708,3.528
			c0.788-0.549,1.615-0.824,2.48-0.824c1.146,0,2.113,0.397,2.901,1.191c0.788,0.794,1.182,1.815,1.182,3.063
			c0,1.188-0.347,2.215-1.039,3.081c-0.842,1.063-1.991,1.594-3.447,1.594c-1.194,0-2.169-0.334-2.924-1.003
			C55.929,71.449,55.498,70.563,55.39,69.458z"/>
	</g>
	<g>
		<path d="M45.264,27.849l1.692-0.144c0.125,0.824,0.417,1.443,0.873,1.858s1.007,0.622,1.652,0.622c0.776,0,1.433-0.292,1.97-0.877
			c0.538-0.585,0.806-1.361,0.806-2.328c0-0.919-0.258-1.645-0.775-2.176c-0.516-0.531-1.192-0.797-2.028-0.797
			c-0.52,0-0.988,0.118-1.406,0.354s-0.746,0.542-0.985,0.917l-1.513-0.197l1.271-6.743h6.528v1.54h-5.238l-0.708,3.528
			c0.788-0.549,1.615-0.824,2.48-0.824c1.146,0,2.113,0.397,2.901,1.191c0.788,0.794,1.182,1.815,1.182,3.063
			c0,1.188-0.347,2.215-1.039,3.081c-0.842,1.063-1.991,1.594-3.447,1.594c-1.194,0-2.169-0.334-2.924-1.003
			C45.803,29.839,45.372,28.953,45.264,27.849z"/>
		<path d="M55.39,24.813c0-1.552,0.16-2.801,0.479-3.748s0.794-1.676,1.424-2.189c0.63-0.513,1.422-0.77,2.377-0.77
			c0.704,0,1.322,0.142,1.854,0.425s0.97,0.692,1.316,1.227c0.346,0.535,0.618,1.185,0.815,1.952
			c0.197,0.767,0.295,1.802,0.295,3.103c0,1.54-0.158,2.783-0.475,3.729s-0.79,1.678-1.419,2.194
			c-0.63,0.517-1.425,0.774-2.386,0.774c-1.266,0-2.26-0.454-2.982-1.361C55.823,29.058,55.39,27.278,55.39,24.813z M57.047,24.813
			c0,2.155,0.252,3.589,0.756,4.303s1.127,1.07,1.867,1.07s1.362-0.358,1.867-1.074c0.504-0.717,0.756-2.149,0.756-4.298
			c0-2.161-0.252-3.597-0.756-4.307c-0.505-0.71-1.133-1.066-1.885-1.066c-0.74,0-1.331,0.313-1.773,0.94
			C57.324,21.18,57.047,22.658,57.047,24.813z"/>
	</g>
	<g>
		<path d="M76.532,462.879c0-1.552,0.16-2.801,0.479-3.747s0.794-1.676,1.424-2.189s1.422-0.771,2.377-0.771
			c0.704,0,1.322,0.143,1.854,0.426s0.97,0.692,1.316,1.227s0.618,1.186,0.815,1.952c0.197,0.768,0.295,1.802,0.295,3.103
			c0,1.541-0.158,2.784-0.475,3.73c-0.316,0.945-0.79,1.677-1.419,2.193s-1.425,0.774-2.386,0.774c-1.266,0-2.26-0.453-2.982-1.361
			C76.964,467.124,76.532,465.345,76.532,462.879z M78.188,462.879c0,2.155,0.252,3.59,0.756,4.303
			c0.504,0.714,1.127,1.07,1.867,1.07s1.362-0.358,1.867-1.074c0.504-0.717,0.756-2.149,0.756-4.299c0-2.16-0.252-3.597-0.756-4.307
			c-0.505-0.711-1.133-1.065-1.885-1.065c-0.74,0-1.331,0.313-1.773,0.939C78.466,459.247,78.188,460.725,78.188,462.879z"/>
	</g>
	<g>
		<path d="M165.187,469.354h-1.612v-10.271c-0.388,0.371-0.897,0.741-1.527,1.111s-1.195,0.647-1.697,0.832v-1.558
			c0.901-0.424,1.689-0.938,2.364-1.54c0.675-0.604,1.152-1.188,1.433-1.756h1.039V469.354z"/>
		<path d="M169.242,462.879c0-1.552,0.16-2.801,0.479-3.747s0.794-1.676,1.424-2.189s1.422-0.771,2.377-0.771
			c0.704,0,1.322,0.143,1.854,0.426s0.97,0.692,1.316,1.227s0.618,1.186,0.815,1.952c0.197,0.768,0.295,1.802,0.295,3.103
			c0,1.541-0.158,2.784-0.475,3.73c-0.316,0.945-0.79,1.677-1.419,2.193s-1.425,0.774-2.386,0.774c-1.266,0-2.26-0.453-2.982-1.361
			C169.674,467.124,169.242,465.345,169.242,462.879z M170.898,462.879c0,2.155,0.252,3.59,0.756,4.303
			c0.504,0.714,1.127,1.07,1.867,1.07s1.362-0.358,1.867-1.074c0.504-0.717,0.756-2.149,0.756-4.299c0-2.16-0.252-3.597-0.756-4.307
			c-0.505-0.711-1.133-1.065-1.885-1.065c-0.74,0-1.331,0.313-1.773,0.939C171.176,459.247,170.898,460.725,170.898,462.879z"/>
	</g>
	<g>
		<path d="M255.302,467.805v1.549h-8.677c-0.012-0.388,0.051-0.761,0.188-1.119c0.221-0.591,0.575-1.173,1.061-1.746
			c0.487-0.573,1.189-1.236,2.109-1.988c1.427-1.17,2.391-2.097,2.893-2.78s0.752-1.33,0.752-1.938c0-0.639-0.228-1.178-0.685-1.616
			c-0.457-0.439-1.052-0.658-1.786-0.658c-0.776,0-1.397,0.232-1.863,0.698s-0.702,1.11-0.708,1.934l-1.656-0.17
			c0.113-1.235,0.54-2.177,1.28-2.825c0.74-0.647,1.734-0.972,2.982-0.972c1.26,0,2.256,0.35,2.991,1.048s1.102,1.564,1.102,2.597
			c0,0.525-0.107,1.042-0.322,1.55c-0.215,0.507-0.572,1.042-1.07,1.603c-0.499,0.562-1.327,1.331-2.485,2.311
			c-0.967,0.812-1.588,1.362-1.862,1.652c-0.275,0.289-0.501,0.58-0.681,0.873H255.302z"/>
		<path d="M256.957,462.879c0-1.552,0.16-2.801,0.479-3.747s0.794-1.676,1.424-2.189s1.422-0.771,2.377-0.771
			c0.704,0,1.322,0.143,1.854,0.426s0.97,0.692,1.316,1.227s0.618,1.186,0.815,1.952c0.197,0.768,0.295,1.802,0.295,3.103
			c0,1.541-0.158,2.784-0.475,3.73c-0.316,0.945-0.79,1.677-1.419,2.193s-1.425,0.774-2.386,0.774c-1.266,0-2.26-0.453-2.982-1.361
			C257.389,467.124,256.957,465.345,256.957,462.879z M258.613,462.879c0,2.155,0.252,3.59,0.756,4.303
			c0.504,0.714,1.127,1.07,1.867,1.07s1.362-0.358,1.867-1.074c0.504-0.717,0.756-2.149,0.756-4.299c0-2.16-0.252-3.597-0.756-4.307
			c-0.505-0.711-1.133-1.065-1.885-1.065c-0.74,0-1.331,0.313-1.773,0.939C258.891,459.247,258.613,460.725,258.613,462.879z"/>
	</g>
	<g>
		<path d="M334.555,465.888l1.611-0.215c0.186,0.914,0.5,1.572,0.945,1.975c0.444,0.403,0.986,0.604,1.625,0.604
			c0.758,0,1.398-0.263,1.921-0.788s0.783-1.176,0.783-1.952c0-0.74-0.242-1.351-0.726-1.831s-1.099-0.721-1.845-0.721
			c-0.304,0-0.684,0.06-1.137,0.179l0.179-1.414c0.107,0.012,0.194,0.018,0.26,0.018c0.687,0,1.305-0.18,1.854-0.537
			c0.55-0.358,0.824-0.91,0.824-1.657c0-0.591-0.2-1.08-0.601-1.469c-0.399-0.388-0.916-0.582-1.549-0.582
			c-0.627,0-1.149,0.197-1.567,0.592c-0.418,0.394-0.687,0.984-0.806,1.772l-1.611-0.286c0.196-1.081,0.645-1.918,1.343-2.512
			s1.567-0.892,2.605-0.892c0.717,0,1.376,0.154,1.979,0.462c0.603,0.308,1.064,0.727,1.384,1.258s0.479,1.096,0.479,1.692
			c0,0.567-0.152,1.083-0.456,1.549c-0.305,0.466-0.756,0.836-1.353,1.11c0.776,0.18,1.379,0.551,1.809,1.115
			s0.645,1.271,0.645,2.118c0,1.146-0.418,2.117-1.253,2.914c-0.836,0.797-1.893,1.195-3.17,1.195c-1.152,0-2.109-0.343-2.87-1.029
			C335.096,467.87,334.662,466.98,334.555,465.888z"/>
		<path d="M344.671,462.879c0-1.552,0.16-2.801,0.479-3.747s0.794-1.676,1.424-2.189s1.422-0.771,2.377-0.771
			c0.705,0,1.322,0.143,1.854,0.426c0.531,0.283,0.97,0.692,1.316,1.227c0.346,0.534,0.617,1.186,0.814,1.952
			c0.197,0.768,0.296,1.802,0.296,3.103c0,1.541-0.159,2.784-0.475,3.73c-0.317,0.945-0.79,1.677-1.42,2.193
			s-1.425,0.774-2.387,0.774c-1.266,0-2.259-0.453-2.981-1.361C345.104,467.124,344.671,465.345,344.671,462.879z M346.328,462.879
			c0,2.155,0.252,3.59,0.757,4.303c0.504,0.714,1.126,1.07,1.866,1.07s1.363-0.358,1.867-1.074c0.505-0.717,0.757-2.149,0.757-4.299
			c0-2.16-0.252-3.597-0.757-4.307c-0.504-0.711-1.133-1.065-1.885-1.065c-0.74,0-1.331,0.313-1.772,0.939
			C346.605,459.247,346.328,460.725,346.328,462.879z"/>
	</g>
	<g>
		<path d="M427.431,469.354v-3.144h-5.695v-1.478l5.991-8.507h1.316v8.507h1.772v1.478h-1.772v3.144H427.431z M427.431,464.732
			v-5.919l-4.11,5.919H427.431z"/>
		<path d="M432.39,462.879c0-1.552,0.16-2.801,0.479-3.747s0.794-1.676,1.424-2.189s1.422-0.771,2.377-0.771
			c0.705,0,1.322,0.143,1.854,0.426c0.531,0.283,0.97,0.692,1.316,1.227c0.346,0.534,0.617,1.186,0.814,1.952
			c0.197,0.768,0.296,1.802,0.296,3.103c0,1.541-0.159,2.784-0.475,3.73c-0.317,0.945-0.79,1.677-1.42,2.193
			s-1.425,0.774-2.387,0.774c-1.266,0-2.259-0.453-2.981-1.361C432.823,467.124,432.39,465.345,432.39,462.879z M434.047,462.879
			c0,2.155,0.252,3.59,0.757,4.303c0.504,0.714,1.126,1.07,1.866,1.07s1.363-0.358,1.867-1.074c0.505-0.717,0.757-2.149,0.757-4.299
			c0-2.16-0.252-3.597-0.757-4.307c-0.504-0.711-1.133-1.065-1.885-1.065c-0.74,0-1.331,0.313-1.772,0.939
			C434.324,459.247,434.047,460.725,434.047,462.879z"/>
	</g>
	<g>
		<path d="M509.979,465.915l1.692-0.144c0.126,0.824,0.417,1.443,0.874,1.858c0.456,0.415,1.007,0.622,1.651,0.622
			c0.776,0,1.433-0.292,1.971-0.877c0.537-0.586,0.806-1.361,0.806-2.329c0-0.919-0.259-1.645-0.774-2.176
			c-0.517-0.531-1.192-0.797-2.028-0.797c-0.52,0-0.988,0.118-1.406,0.354c-0.418,0.236-0.746,0.542-0.984,0.918l-1.514-0.197
			l1.271-6.742h6.528v1.54h-5.239l-0.707,3.528c0.788-0.55,1.614-0.824,2.48-0.824c1.146,0,2.113,0.397,2.901,1.191
			s1.182,1.814,1.182,3.063c0,1.188-0.346,2.215-1.038,3.08c-0.842,1.063-1.991,1.594-3.448,1.594c-1.193,0-2.168-0.334-2.924-1.003
			C510.518,467.906,510.086,467.02,509.979,465.915z"/>
		<path d="M520.104,462.879c0-1.552,0.16-2.801,0.479-3.747s0.794-1.676,1.424-2.189s1.422-0.771,2.377-0.771
			c0.705,0,1.322,0.143,1.854,0.426c0.531,0.283,0.97,0.692,1.316,1.227c0.346,0.534,0.617,1.186,0.814,1.952
			c0.197,0.768,0.296,1.802,0.296,3.103c0,1.541-0.159,2.784-0.475,3.73c-0.317,0.945-0.79,1.677-1.42,2.193
			s-1.425,0.774-2.387,0.774c-1.266,0-2.259-0.453-2.981-1.361C520.538,467.124,520.104,465.345,520.104,462.879z M521.762,462.879
			c0,2.155,0.252,3.59,0.757,4.303c0.504,0.714,1.126,1.07,1.866,1.07s1.363-0.358,1.867-1.074c0.505-0.717,0.757-2.149,0.757-4.299
			c0-2.16-0.252-3.597-0.757-4.307c-0.504-0.711-1.133-1.065-1.885-1.065c-0.74,0-1.331,0.313-1.772,0.939
			C522.039,459.247,521.762,460.725,521.762,462.879z"/>
	</g>
	<g>
		<path d="M606.06,459.44l-1.604,0.126c-0.143-0.633-0.346-1.093-0.608-1.379c-0.436-0.46-0.974-0.69-1.612-0.69
			c-0.513,0-0.964,0.144-1.352,0.431c-0.508,0.37-0.907,0.91-1.2,1.62c-0.293,0.711-0.444,1.723-0.457,3.036
			c0.389-0.591,0.863-1.03,1.424-1.316c0.562-0.287,1.149-0.43,1.765-0.43c1.074,0,1.989,0.396,2.744,1.187
			c0.756,0.791,1.133,1.813,1.133,3.066c0,0.824-0.178,1.59-0.532,2.297c-0.355,0.708-0.844,1.249-1.465,1.626
			c-0.62,0.376-1.325,0.563-2.113,0.563c-1.343,0-2.438-0.494-3.286-1.481c-0.848-0.988-1.271-2.616-1.271-4.885
			c0-2.537,0.469-4.382,1.406-5.534c0.817-1.003,1.919-1.505,3.304-1.505c1.033,0,1.879,0.29,2.539,0.869
			C605.532,457.62,605.928,458.42,606.06,459.44z M599.478,465.1c0,0.556,0.118,1.087,0.354,1.595
			c0.236,0.507,0.565,0.894,0.99,1.159c0.424,0.266,0.868,0.398,1.334,0.398c0.681,0,1.266-0.274,1.755-0.823
			c0.489-0.55,0.734-1.296,0.734-2.239c0-0.907-0.242-1.622-0.726-2.145s-1.092-0.783-1.826-0.783c-0.729,0-1.347,0.261-1.854,0.783
			C599.731,463.567,599.478,464.252,599.478,465.1z"/>
		<path d="M607.821,462.879c0-1.552,0.16-2.801,0.479-3.747s0.794-1.676,1.424-2.189s1.422-0.771,2.377-0.771
			c0.705,0,1.322,0.143,1.854,0.426c0.531,0.283,0.97,0.692,1.316,1.227c0.346,0.534,0.617,1.186,0.814,1.952
			c0.197,0.768,0.296,1.802,0.296,3.103c0,1.541-0.159,2.784-0.475,3.73c-0.317,0.945-0.79,1.677-1.42,2.193
			s-1.425,0.774-2.387,0.774c-1.266,0-2.259-0.453-2.981-1.361C608.255,467.124,607.821,465.345,607.821,462.879z M609.479,462.879
			c0,2.155,0.252,3.59,0.757,4.303c0.504,0.714,1.126,1.07,1.866,1.07s1.363-0.358,1.867-1.074c0.505-0.717,0.757-2.149,0.757-4.299
			c0-2.16-0.252-3.597-0.757-4.307c-0.504-0.711-1.133-1.065-1.885-1.065c-0.74,0-1.331,0.313-1.772,0.939
			C609.756,459.247,609.479,460.725,609.479,462.879z"/>
	</g>
	<g>
		<defs>
			<rect id="SVGID_1_" x="-17.807" y="-3.561" width="664.003" height="590.649"/>
		</defs>
		<clipPath id="SVGID_2_">
			<use xlink:href="#SVGID_1_"  overflow="visible"/>
		</clipPath>
		<g clip-path="url(#SVGID_2_)">
			<path d="M28.18,379.955l0.438-1.737c1.427,0.364,2.515,1.02,3.264,1.966s1.124,2.103,1.124,3.47c0,1.415-0.288,2.565-0.864,3.452
				s-1.411,1.561-2.503,2.023s-2.266,0.694-3.519,0.694c-1.367,0-2.56-0.262-3.578-0.784c-1.018-0.521-1.791-1.266-2.319-2.229
				s-0.792-2.025-0.792-3.184c0-1.313,0.334-2.417,1.003-3.313c0.669-0.896,1.609-1.52,2.821-1.872l0.403,1.711
				c-0.955,0.304-1.65,0.746-2.086,1.325c-0.436,0.579-0.653,1.307-0.653,2.185c0,1.009,0.242,1.853,0.725,2.529
				c0.483,0.678,1.133,1.154,1.948,1.429s1.655,0.412,2.521,0.412c1.117,0,2.091-0.163,2.924-0.488
				c0.833-0.325,1.455-0.831,1.867-1.518c0.412-0.687,0.618-1.43,0.618-2.229c0-0.974-0.28-1.797-0.842-2.472
				C30.117,380.65,29.284,380.193,28.18,379.955z"/>
			<path d="M31.609,370.06c0.507,0.597,0.865,1.171,1.074,1.724c0.209,0.552,0.313,1.145,0.313,1.777
				c0,1.045-0.255,1.848-0.766,2.409c-0.51,0.561-1.163,0.841-1.957,0.841c-0.466,0-0.891-0.105-1.276-0.317
				c-0.385-0.212-0.694-0.489-0.927-0.833c-0.233-0.343-0.409-0.729-0.528-1.159c-0.083-0.316-0.165-0.794-0.242-1.433
				c-0.155-1.302-0.34-2.26-0.555-2.875c-0.221-0.006-0.361-0.009-0.421-0.009c-0.656,0-1.119,0.152-1.388,0.457
				c-0.364,0.411-0.546,1.023-0.546,1.835c0,0.759,0.133,1.318,0.398,1.68s0.736,0.628,1.411,0.801l-0.215,1.576
				c-0.675-0.144-1.219-0.379-1.634-0.707s-0.734-0.803-0.958-1.424c-0.224-0.621-0.335-1.34-0.335-2.158
				c0-0.812,0.095-1.472,0.287-1.979c0.191-0.507,0.431-0.88,0.721-1.119c0.29-0.238,0.655-0.405,1.097-0.501
				c0.275-0.054,0.771-0.081,1.487-0.081h2.149c1.499,0,2.446-0.034,2.843-0.103s0.777-0.205,1.142-0.407v1.683
				C32.448,369.904,32.057,370.012,31.609,370.06z M28.009,370.193c0.239,0.585,0.442,1.463,0.609,2.633
				c0.096,0.663,0.203,1.132,0.322,1.406c0.12,0.274,0.294,0.486,0.524,0.636c0.23,0.149,0.485,0.224,0.766,0.224
				c0.43,0,0.788-0.163,1.075-0.488s0.43-0.802,0.43-1.428c0-0.621-0.136-1.174-0.407-1.657s-0.643-0.839-1.115-1.065
				c-0.364-0.173-0.901-0.26-1.612-0.26H28.009z"/>
			<path d="M32.782,366.175H19.655v-1.612h13.127V366.175z"/>
			<path d="M29.299,355.841l0.206-1.585c1.092,0.173,1.948,0.616,2.565,1.329c0.618,0.714,0.927,1.59,0.927,2.629
				c0,1.301-0.425,2.348-1.276,3.138c-0.851,0.792-2.07,1.187-3.658,1.187c-1.026,0-1.925-0.17-2.695-0.51
				c-0.77-0.341-1.348-0.858-1.732-1.554c-0.385-0.695-0.578-1.452-0.578-2.271c0-1.032,0.261-1.877,0.783-2.534
				c0.522-0.656,1.264-1.077,2.226-1.263l0.242,1.567c-0.639,0.149-1.12,0.414-1.442,0.793s-0.483,0.837-0.483,1.374
				c0,0.813,0.291,1.472,0.873,1.979c0.582,0.507,1.503,0.761,2.763,0.761c1.277,0,2.206-0.245,2.785-0.734s0.869-1.128,0.869-1.916
				c0-0.633-0.194-1.161-0.582-1.585S30.105,355.954,29.299,355.841z"/>
			<path d="M32.782,346.645h-1.397c1.075,0.74,1.612,1.746,1.612,3.018c0,0.562-0.107,1.085-0.322,1.571
				c-0.215,0.487-0.485,0.849-0.811,1.084c-0.325,0.236-0.724,0.401-1.195,0.497c-0.316,0.065-0.818,0.099-1.504,0.099h-5.892
				v-1.612h5.274c0.841,0,1.409-0.032,1.701-0.099c0.424-0.101,0.757-0.316,0.999-0.645s0.363-0.734,0.363-1.218
				s-0.124-0.938-0.372-1.361c-0.248-0.424-0.585-0.724-1.012-0.899s-1.046-0.265-1.858-0.265h-5.095v-1.611h9.51V346.645z"/>
			<path d="M32.782,342.787H19.655v-1.612h13.127V342.787z"/>
			<path d="M31.609,332.435c0.507,0.597,0.865,1.171,1.074,1.724c0.209,0.552,0.313,1.145,0.313,1.777
				c0,1.045-0.255,1.848-0.766,2.409c-0.51,0.561-1.163,0.841-1.957,0.841c-0.466,0-0.891-0.105-1.276-0.317
				c-0.385-0.212-0.694-0.489-0.927-0.833c-0.233-0.343-0.409-0.729-0.528-1.159c-0.083-0.316-0.165-0.794-0.242-1.433
				c-0.155-1.302-0.34-2.26-0.555-2.875c-0.221-0.006-0.361-0.009-0.421-0.009c-0.656,0-1.119,0.152-1.388,0.457
				c-0.364,0.411-0.546,1.023-0.546,1.835c0,0.759,0.133,1.318,0.398,1.68s0.736,0.628,1.411,0.801l-0.215,1.576
				c-0.675-0.144-1.219-0.379-1.634-0.707s-0.734-0.803-0.958-1.424c-0.224-0.621-0.335-1.34-0.335-2.158
				c0-0.812,0.095-1.472,0.287-1.979c0.191-0.507,0.431-0.88,0.721-1.119c0.29-0.238,0.655-0.405,1.097-0.501
				c0.275-0.054,0.771-0.081,1.487-0.081h2.149c1.499,0,2.446-0.034,2.843-0.103s0.777-0.205,1.142-0.407v1.683
				C32.448,332.279,32.057,332.387,31.609,332.435z M28.009,332.568c0.239,0.585,0.442,1.463,0.609,2.633
				c0.096,0.663,0.203,1.132,0.322,1.406c0.12,0.274,0.294,0.486,0.524,0.636c0.23,0.149,0.485,0.224,0.766,0.224
				c0.43,0,0.788-0.163,1.075-0.488s0.43-0.802,0.43-1.428c0-0.621-0.136-1.174-0.407-1.657s-0.643-0.839-1.115-1.065
				c-0.364-0.173-0.901-0.26-1.612-0.26H28.009z"/>
			<path d="M31.34,324.995l1.424-0.233c0.096,0.454,0.144,0.86,0.144,1.218c0,0.585-0.093,1.039-0.278,1.361
				s-0.428,0.549-0.729,0.681c-0.302,0.131-0.936,0.197-1.903,0.197h-5.472v1.182h-1.253v-1.182h-2.355l-0.967-1.604h3.322v-1.621
				h1.253v1.621h5.561c0.46,0,0.755-0.028,0.886-0.085c0.132-0.057,0.236-0.149,0.313-0.277c0.078-0.129,0.117-0.313,0.117-0.551
				C31.403,325.523,31.382,325.287,31.34,324.995z"/>
			<path d="M29.72,316.945l0.206-1.666c0.973,0.263,1.728,0.749,2.266,1.459c0.537,0.71,0.806,1.618,0.806,2.722
				c0,1.391-0.428,2.494-1.285,3.309c-0.856,0.815-2.058,1.223-3.604,1.223c-1.6,0-2.842-0.412-3.725-1.236
				s-1.325-1.893-1.325-3.206c0-1.271,0.433-2.31,1.298-3.116c0.866-0.806,2.083-1.208,3.653-1.208c0.096,0,0.239,0.003,0.43,0.009
				v7.092c1.045-0.06,1.845-0.355,2.4-0.886s0.833-1.194,0.833-1.988c0-0.591-0.155-1.096-0.466-1.514
				C30.896,317.521,30.4,317.19,29.72,316.945z M27.114,322.237v-5.31c-0.8,0.072-1.4,0.274-1.8,0.609
				c-0.621,0.514-0.931,1.179-0.931,1.997c0,0.74,0.248,1.362,0.743,1.867C25.622,321.905,26.284,322.184,27.114,322.237z"/>
			<path d="M32.782,307.16h-1.2c0.943,0.603,1.415,1.489,1.415,2.659c0,0.758-0.209,1.455-0.627,2.091
				c-0.417,0.636-1.001,1.128-1.75,1.478c-0.749,0.35-1.61,0.524-2.583,0.524c-0.949,0-1.81-0.158-2.583-0.475
				c-0.773-0.316-1.365-0.791-1.777-1.424c-0.412-0.632-0.618-1.34-0.618-2.122c0-0.573,0.121-1.083,0.362-1.531
				c0.242-0.448,0.557-0.812,0.945-1.092h-4.71v-1.603h13.127V307.16z M28.036,312.255c1.218,0,2.128-0.257,2.731-0.771
				c0.603-0.513,0.904-1.119,0.904-1.818c0-0.704-0.288-1.303-0.864-1.795c-0.576-0.492-1.455-0.738-2.637-0.738
				c-1.301,0-2.256,0.25-2.865,0.752s-0.914,1.119-0.914,1.854c0,0.716,0.292,1.315,0.877,1.795
				C25.854,312.015,26.777,312.255,28.036,312.255z"/>
			<path d="M32.782,297.201H19.655v-1.612h7.486l-3.868-3.815v-2.086l3.528,3.636l5.982-4.003v1.988l-4.862,3.143l1.092,1.137h3.77
				V297.201z"/>
			<path d="M29.72,281.218l0.206-1.666c0.973,0.263,1.728,0.749,2.266,1.459c0.537,0.71,0.806,1.618,0.806,2.722
				c0,1.391-0.428,2.494-1.285,3.309c-0.856,0.815-2.058,1.223-3.604,1.223c-1.6,0-2.842-0.412-3.725-1.236
				s-1.325-1.893-1.325-3.206c0-1.271,0.433-2.31,1.298-3.116c0.866-0.806,2.083-1.208,3.653-1.208c0.096,0,0.239,0.003,0.43,0.009
				v7.092c1.045-0.06,1.845-0.355,2.4-0.886s0.833-1.194,0.833-1.988c0-0.591-0.155-1.096-0.466-1.514
				C30.896,281.794,30.4,281.463,29.72,281.218z M27.114,286.51v-5.31c-0.8,0.072-1.4,0.274-1.8,0.609
				c-0.621,0.514-0.931,1.179-0.931,1.997c0,0.74,0.248,1.362,0.743,1.867C25.622,286.178,26.284,286.457,27.114,286.51z"/>
			<path d="M36.445,277.674l-1.514,0.179c0.096-0.353,0.144-0.66,0.144-0.922c0-0.358-0.06-0.645-0.179-0.86
				c-0.12-0.215-0.287-0.391-0.501-0.528c-0.161-0.102-0.561-0.266-1.2-0.492c-0.09-0.03-0.221-0.078-0.394-0.144l-9.528,3.609
				v-1.737l5.507-1.979c0.699-0.256,1.433-0.486,2.203-0.689c-0.74-0.185-1.462-0.406-2.167-0.663l-5.543-2.033v-1.612l9.671,3.618
				c1.044,0.388,1.764,0.689,2.158,0.904c0.531,0.287,0.921,0.615,1.168,0.985c0.248,0.371,0.372,0.812,0.372,1.326
				C36.642,276.945,36.576,277.292,36.445,277.674z"/>
			<path d="M36.427,269.056H23.272v-1.468h1.236c-0.484-0.346-0.846-0.737-1.088-1.173c-0.242-0.436-0.362-0.964-0.362-1.585
				c0-0.812,0.209-1.528,0.626-2.149c0.418-0.621,1.008-1.089,1.769-1.406c0.761-0.316,1.596-0.475,2.503-0.475
				c0.973,0,1.849,0.175,2.628,0.524c0.779,0.35,1.376,0.857,1.791,1.522c0.415,0.666,0.622,1.366,0.622,2.1
				c0,0.537-0.113,1.019-0.34,1.446c-0.227,0.427-0.513,0.778-0.859,1.052h4.629V269.056z M28.081,267.596
				c1.224,0,2.128-0.248,2.713-0.743s0.877-1.096,0.877-1.8c0-0.717-0.303-1.33-0.909-1.84s-1.545-0.766-2.816-0.766
				c-1.212,0-2.119,0.25-2.722,0.748c-0.603,0.499-0.905,1.094-0.905,1.787c0,0.687,0.321,1.294,0.963,1.822
				S26.857,267.596,28.081,267.596z"/>
			<path d="M32.782,258.948h-9.51v-1.451h1.441c-0.674-0.37-1.119-0.712-1.334-1.025s-0.322-0.658-0.322-1.034
				c0-0.543,0.173-1.095,0.519-1.657l1.496,0.555c-0.233,0.394-0.349,0.788-0.349,1.182c0,0.353,0.106,0.668,0.318,0.949
				s0.506,0.48,0.882,0.6c0.573,0.179,1.2,0.269,1.88,0.269h4.979V258.948z"/>
			<path d="M29.72,246.405l0.206-1.666c0.973,0.263,1.728,0.749,2.266,1.459c0.537,0.71,0.806,1.618,0.806,2.722
				c0,1.391-0.428,2.494-1.285,3.309c-0.856,0.815-2.058,1.223-3.604,1.223c-1.6,0-2.842-0.412-3.725-1.236
				s-1.325-1.893-1.325-3.206c0-1.271,0.433-2.31,1.298-3.116c0.866-0.806,2.083-1.208,3.653-1.208c0.096,0,0.239,0.003,0.43,0.009
				v7.092c1.045-0.06,1.845-0.355,2.4-0.886s0.833-1.194,0.833-1.988c0-0.591-0.155-1.096-0.466-1.514
				C30.896,246.981,30.4,246.649,29.72,246.405z M27.114,251.697v-5.31c-0.8,0.072-1.4,0.274-1.8,0.609
				c-0.621,0.514-0.931,1.179-0.931,1.997c0,0.74,0.248,1.362,0.743,1.867C25.622,251.364,26.284,251.643,27.114,251.697z"/>
			<path d="M29.943,243.434l-0.25-1.594c0.639-0.089,1.128-0.338,1.469-0.748c0.34-0.409,0.51-0.98,0.51-1.715
				c0-0.74-0.151-1.29-0.452-1.647c-0.301-0.358-0.655-0.538-1.061-0.538c-0.364,0-0.651,0.158-0.86,0.475
				c-0.143,0.221-0.325,0.77-0.546,1.648c-0.298,1.182-0.557,2.001-0.774,2.458c-0.218,0.457-0.52,0.803-0.904,1.039
				c-0.385,0.236-0.811,0.354-1.276,0.354c-0.424,0-0.816-0.097-1.177-0.291c-0.361-0.194-0.661-0.458-0.9-0.792
				c-0.185-0.25-0.342-0.592-0.47-1.025c-0.128-0.433-0.192-0.897-0.192-1.393c0-0.746,0.107-1.401,0.322-1.966
				c0.215-0.564,0.506-0.98,0.873-1.249s0.858-0.454,1.473-0.555l0.215,1.576c-0.489,0.071-0.872,0.279-1.146,0.622
				c-0.274,0.344-0.412,0.829-0.412,1.455c0,0.741,0.123,1.269,0.367,1.585c0.245,0.317,0.531,0.475,0.859,0.475
				c0.209,0,0.397-0.065,0.564-0.197c0.173-0.131,0.316-0.337,0.43-0.618c0.06-0.162,0.197-0.636,0.412-1.424
				c0.304-1.14,0.554-1.936,0.748-2.387c0.194-0.451,0.476-0.804,0.846-1.061c0.37-0.256,0.83-0.385,1.379-0.385
				c0.538,0,1.043,0.157,1.518,0.47s0.842,0.766,1.101,1.357c0.26,0.591,0.39,1.259,0.39,2.006c0,1.235-0.256,2.177-0.77,2.825
				C31.714,242.841,30.953,243.254,29.943,243.434z"/>
			<path d="M29.943,234.264l-0.25-1.594c0.639-0.089,1.128-0.338,1.469-0.748c0.34-0.409,0.51-0.98,0.51-1.715
				c0-0.74-0.151-1.29-0.452-1.647c-0.301-0.358-0.655-0.538-1.061-0.538c-0.364,0-0.651,0.158-0.86,0.475
				c-0.143,0.221-0.325,0.77-0.546,1.648c-0.298,1.182-0.557,2.001-0.774,2.458c-0.218,0.457-0.52,0.803-0.904,1.039
				c-0.385,0.236-0.811,0.354-1.276,0.354c-0.424,0-0.816-0.097-1.177-0.291c-0.361-0.194-0.661-0.458-0.9-0.792
				c-0.185-0.25-0.342-0.592-0.47-1.025c-0.128-0.433-0.192-0.897-0.192-1.393c0-0.746,0.107-1.401,0.322-1.966
				c0.215-0.564,0.506-0.98,0.873-1.249s0.858-0.454,1.473-0.555l0.215,1.576c-0.489,0.071-0.872,0.279-1.146,0.622
				c-0.274,0.344-0.412,0.829-0.412,1.455c0,0.741,0.123,1.269,0.367,1.585c0.245,0.317,0.531,0.475,0.859,0.475
				c0.209,0,0.397-0.065,0.564-0.197c0.173-0.131,0.316-0.337,0.43-0.618c0.06-0.162,0.197-0.636,0.412-1.424
				c0.304-1.14,0.554-1.936,0.748-2.387c0.194-0.451,0.476-0.804,0.846-1.061c0.37-0.256,0.83-0.385,1.379-0.385
				c0.538,0,1.043,0.157,1.518,0.47s0.842,0.766,1.101,1.357c0.26,0.591,0.39,1.259,0.39,2.006c0,1.235-0.256,2.177-0.77,2.825
				C31.714,233.671,30.953,234.084,29.943,234.264z"/>
			<path d="M32.782,215.484l-9.51,3.618V217.4l5.695-2.042c0.615-0.221,1.253-0.424,1.916-0.609c-0.501-0.143-1.104-0.343-1.809-0.6
				l-5.803-2.113v-1.657l9.51,3.6V215.484z"/>
			<path d="M29.72,202.446l0.206-1.666c0.973,0.263,1.728,0.749,2.266,1.459c0.537,0.71,0.806,1.618,0.806,2.722
				c0,1.391-0.428,2.494-1.285,3.309c-0.856,0.815-2.058,1.223-3.604,1.223c-1.6,0-2.842-0.412-3.725-1.236
				s-1.325-1.893-1.325-3.206c0-1.271,0.433-2.31,1.298-3.116c0.866-0.806,2.083-1.208,3.653-1.208c0.096,0,0.239,0.003,0.43,0.009
				v7.092c1.045-0.06,1.845-0.355,2.4-0.886s0.833-1.194,0.833-1.988c0-0.591-0.155-1.096-0.466-1.514
				C30.896,203.022,30.4,202.69,29.72,202.446z M27.114,207.738v-5.31c-0.8,0.072-1.4,0.274-1.8,0.609
				c-0.621,0.514-0.931,1.179-0.931,1.997c0,0.74,0.248,1.362,0.743,1.867C25.622,207.405,26.284,207.684,27.114,207.738z"/>
			<path d="M32.782,198.866H19.655v-1.612h13.127V198.866z"/>
			<path d="M28.027,195.337c-1.761,0-3.065-0.489-3.913-1.469c-0.705-0.818-1.057-1.814-1.057-2.991
				c0-1.307,0.428-2.376,1.285-3.206c0.857-0.83,2.041-1.245,3.551-1.245c1.224,0,2.187,0.184,2.888,0.551
				c0.702,0.367,1.246,0.902,1.634,1.603c0.388,0.702,0.582,1.467,0.582,2.297c0,1.332-0.427,2.407-1.28,3.228
				C30.863,194.926,29.633,195.337,28.027,195.337z M28.027,193.68c1.218,0,2.13-0.266,2.736-0.797s0.909-1.2,0.909-2.006
				c0-0.8-0.305-1.465-0.914-1.997c-0.609-0.531-1.537-0.797-2.785-0.797c-1.176,0-2.067,0.268-2.673,0.802
				s-0.909,1.198-0.909,1.992c0,0.806,0.302,1.475,0.904,2.006C25.899,193.415,26.81,193.68,28.027,193.68z"/>
			<path d="M29.299,178.405l0.206-1.585c1.092,0.173,1.948,0.617,2.565,1.33c0.618,0.714,0.927,1.59,0.927,2.628
				c0,1.302-0.425,2.348-1.276,3.139s-2.07,1.187-3.658,1.187c-1.026,0-1.925-0.17-2.695-0.51c-0.77-0.34-1.348-0.858-1.732-1.554
				c-0.385-0.695-0.578-1.452-0.578-2.27c0-1.033,0.261-1.877,0.783-2.534c0.522-0.657,1.264-1.078,2.226-1.263l0.242,1.567
				c-0.639,0.149-1.12,0.414-1.442,0.792c-0.322,0.379-0.483,0.837-0.483,1.375c0,0.812,0.291,1.472,0.873,1.979
				c0.582,0.508,1.503,0.761,2.763,0.761c1.277,0,2.206-0.245,2.785-0.734c0.579-0.489,0.869-1.128,0.869-1.916
				c0-0.633-0.194-1.161-0.582-1.585S30.105,178.519,29.299,178.405z"/>
			<path d="M21.508,175.433h-1.854v-1.612h1.854V175.433z M32.782,175.433h-9.51v-1.612h9.51V175.433z"/>
			<path d="M31.34,167.83l1.424-0.233c0.096,0.454,0.144,0.86,0.144,1.218c0,0.585-0.093,1.039-0.278,1.361
				s-0.428,0.549-0.729,0.681c-0.302,0.131-0.936,0.197-1.903,0.197h-5.472v1.182h-1.253v-1.182h-2.355l-0.967-1.603h3.322v-1.621
				h1.253v1.621h5.561c0.46,0,0.755-0.028,0.886-0.085c0.132-0.057,0.236-0.149,0.313-0.277c0.078-0.128,0.117-0.312,0.117-0.551
				C31.403,168.358,31.382,168.122,31.34,167.83z"/>
			<path d="M36.445,166.362l-1.514,0.179c0.096-0.353,0.144-0.66,0.144-0.922c0-0.358-0.06-0.645-0.179-0.86
				c-0.12-0.215-0.287-0.391-0.501-0.528c-0.161-0.102-0.561-0.266-1.2-0.492c-0.09-0.03-0.221-0.078-0.394-0.144l-9.528,3.609
				v-1.737l5.507-1.979c0.699-0.256,1.433-0.486,2.203-0.689c-0.74-0.185-1.462-0.406-2.167-0.663l-5.543-2.033v-1.612l9.671,3.618
				c1.044,0.388,1.764,0.689,2.158,0.904c0.531,0.287,0.921,0.615,1.168,0.985c0.248,0.371,0.372,0.812,0.372,1.326
				C36.642,165.633,36.576,165.98,36.445,166.362z"/>
			<path d="M32.782,157.323h-1.836v-1.835h1.836c0.674,0,1.219,0.119,1.634,0.358s0.736,0.618,0.962,1.137l-0.689,0.448
				c-0.149-0.34-0.369-0.591-0.658-0.752s-0.706-0.251-1.249-0.269V157.323z"/>
			<path d="M32.782,143.72l-9.51,3.618v-1.701l5.695-2.042c0.615-0.221,1.253-0.424,1.916-0.609c-0.501-0.143-1.104-0.343-1.809-0.6
				l-5.803-2.113v-1.657l9.51,3.6V143.72z"/>
			<path d="M36.642,129.035c-1.123,0.889-2.436,1.642-3.94,2.256s-3.063,0.922-4.674,0.922c-1.421,0-2.782-0.23-4.083-0.689
				c-1.51-0.538-3.015-1.367-4.513-2.489v-1.155c1.242,0.722,2.128,1.2,2.66,1.433c0.824,0.364,1.684,0.651,2.579,0.86
				c1.116,0.256,2.238,0.385,3.367,0.385c2.872,0,5.74-0.892,8.605-2.677V129.035z"/>
			<path d="M32.782,126.1h-9.51v-1.441h1.334c-0.465-0.299-0.84-0.696-1.124-1.191c-0.284-0.495-0.425-1.06-0.425-1.692
				c0-0.704,0.146-1.282,0.438-1.732s0.702-0.769,1.227-0.954c-1.11-0.752-1.666-1.731-1.666-2.938c0-0.943,0.261-1.668,0.783-2.176
				c0.522-0.507,1.327-0.761,2.414-0.761h6.528v1.603h-5.991c-0.645,0-1.109,0.052-1.393,0.157
				c-0.283,0.104-0.512,0.294-0.685,0.568c-0.173,0.275-0.259,0.597-0.259,0.967c0,0.668,0.222,1.224,0.667,1.666
				s1.157,0.663,2.136,0.663h5.525v1.612h-6.179c-0.716,0-1.254,0.131-1.612,0.394c-0.358,0.263-0.537,0.693-0.537,1.29
				c0,0.454,0.119,0.873,0.358,1.258c0.239,0.385,0.588,0.664,1.048,0.837c0.459,0.173,1.123,0.26,1.988,0.26h4.934V126.1z"/>
			<path d="M32.782,110.622h-9.51v-1.441h1.334c-0.465-0.299-0.84-0.696-1.124-1.191c-0.284-0.495-0.425-1.06-0.425-1.692
				c0-0.704,0.146-1.282,0.438-1.732s0.702-0.769,1.227-0.954c-1.11-0.752-1.666-1.731-1.666-2.938c0-0.943,0.261-1.668,0.783-2.176
				c0.522-0.507,1.327-0.761,2.414-0.761h6.528v1.603h-5.991c-0.645,0-1.109,0.052-1.393,0.157
				c-0.283,0.104-0.512,0.294-0.685,0.568c-0.173,0.275-0.259,0.597-0.259,0.967c0,0.668,0.222,1.224,0.667,1.666
				s1.157,0.663,2.136,0.663h5.525v1.612h-6.179c-0.716,0-1.254,0.131-1.612,0.394c-0.358,0.263-0.537,0.693-0.537,1.29
				c0,0.454,0.119,0.873,0.358,1.258c0.239,0.385,0.588,0.664,1.048,0.837c0.459,0.173,1.123,0.26,1.988,0.26h4.934V110.622z"/>
			<path d="M33.006,96.352l-13.575-3.806v-1.29l13.575,3.797V96.352z"/>
			<path d="M29.943,90.729l-0.25-1.594c0.639-0.089,1.128-0.338,1.469-0.748c0.34-0.409,0.51-0.98,0.51-1.715
				c0-0.74-0.151-1.29-0.452-1.647c-0.301-0.358-0.655-0.538-1.061-0.538c-0.364,0-0.651,0.158-0.86,0.475
				c-0.143,0.221-0.325,0.77-0.546,1.648c-0.298,1.182-0.557,2.001-0.774,2.458c-0.218,0.457-0.52,0.803-0.904,1.039
				c-0.385,0.236-0.811,0.354-1.276,0.354c-0.424,0-0.816-0.097-1.177-0.291c-0.361-0.194-0.661-0.458-0.9-0.792
				c-0.185-0.25-0.342-0.592-0.47-1.025c-0.128-0.433-0.192-0.897-0.192-1.393c0-0.746,0.107-1.401,0.322-1.966
				c0.215-0.564,0.506-0.98,0.873-1.249s0.858-0.454,1.473-0.555l0.215,1.576c-0.489,0.071-0.872,0.279-1.146,0.622
				c-0.274,0.344-0.412,0.829-0.412,1.455c0,0.741,0.123,1.269,0.367,1.585c0.245,0.317,0.531,0.475,0.859,0.475
				c0.209,0,0.397-0.065,0.564-0.197c0.173-0.131,0.316-0.337,0.43-0.618c0.06-0.162,0.197-0.636,0.412-1.424
				c0.304-1.14,0.554-1.936,0.748-2.387c0.194-0.451,0.476-0.804,0.846-1.061c0.37-0.256,0.83-0.385,1.379-0.385
				c0.538,0,1.043,0.157,1.518,0.47s0.842,0.766,1.101,1.357c0.26,0.591,0.39,1.259,0.39,2.006c0,1.235-0.256,2.177-0.77,2.825
				C31.714,90.137,30.953,90.55,29.943,90.729z"/>
			<path d="M36.642,79.858v1.155c-2.865-1.785-5.734-2.677-8.605-2.677c-1.122,0-2.235,0.128-3.34,0.385
				c-0.896,0.203-1.755,0.487-2.579,0.851c-0.537,0.233-1.433,0.713-2.687,1.442v-1.155c1.499-1.122,3.003-1.952,4.513-2.489
				c1.302-0.459,2.663-0.689,4.083-0.689c1.612,0,3.17,0.309,4.674,0.927C34.206,78.224,35.519,78.975,36.642,79.858z"/>
		</g>
	</g>
	<g>
		<path d="M147.25,498.516v-13.128h5.82c1.17,0,2.06,0.118,2.668,0.354c0.609,0.235,1.096,0.652,1.459,1.249
			c0.364,0.597,0.546,1.257,0.546,1.979c0,0.932-0.301,1.717-0.904,2.355s-1.534,1.045-2.794,1.218
			c0.459,0.221,0.809,0.438,1.048,0.653c0.507,0.466,0.988,1.048,1.441,1.746l2.284,3.573h-2.185l-1.737-2.731
			c-0.507-0.788-0.925-1.391-1.253-1.809c-0.329-0.418-0.623-0.71-0.882-0.878c-0.259-0.167-0.523-0.283-0.792-0.349
			c-0.197-0.042-0.519-0.063-0.967-0.063h-2.015v5.829H147.25z M148.986,491.182h3.734c0.794,0,1.415-0.082,1.862-0.246
			s0.788-0.427,1.021-0.788s0.349-0.754,0.349-1.178c0-0.62-0.225-1.131-0.676-1.531c-0.451-0.399-1.163-0.6-2.136-0.6h-4.155
			V491.182z"/>
		<path d="M166.789,495.453l1.666,0.206c-0.263,0.973-0.749,1.729-1.459,2.266s-1.618,0.806-2.722,0.806
			c-1.391,0-2.494-0.428-3.309-1.285c-0.815-0.856-1.223-2.058-1.223-3.604c0-1.6,0.412-2.841,1.236-3.725s1.893-1.325,3.206-1.325
			c1.271,0,2.31,0.433,3.116,1.298c0.806,0.866,1.208,2.084,1.208,3.654c0,0.095-0.003,0.238-0.009,0.43h-7.092
			c0.06,1.045,0.355,1.845,0.886,2.399c0.531,0.556,1.194,0.833,1.988,0.833c0.591,0,1.096-0.155,1.514-0.466
			C166.212,496.629,166.544,496.134,166.789,495.453z M161.497,492.848h5.31c-0.072-0.8-0.274-1.4-0.609-1.8
			c-0.514-0.621-1.179-0.932-1.997-0.932c-0.74,0-1.362,0.248-1.867,0.743C161.829,491.354,161.55,492.018,161.497,492.848z"/>
		<path d="M170.369,498.516v-13.128h1.612v13.128H170.369z"/>
		<path d="M180.703,497.343c-0.597,0.507-1.172,0.865-1.724,1.074c-0.552,0.209-1.145,0.313-1.778,0.313
			c-1.044,0-1.848-0.255-2.409-0.766s-0.842-1.162-0.842-1.956c0-0.466,0.106-0.892,0.318-1.276s0.489-0.694,0.833-0.927
			c0.343-0.233,0.729-0.409,1.16-0.528c0.316-0.084,0.793-0.164,1.433-0.242c1.301-0.155,2.259-0.34,2.875-0.555
			c0.006-0.221,0.009-0.361,0.009-0.421c0-0.657-0.152-1.119-0.457-1.389c-0.412-0.363-1.024-0.546-1.836-0.546
			c-0.758,0-1.318,0.133-1.679,0.398c-0.361,0.266-0.628,0.736-0.802,1.41l-1.576-0.215c0.143-0.674,0.379-1.219,0.707-1.634
			c0.329-0.415,0.803-0.734,1.424-0.958c0.621-0.225,1.34-0.336,2.158-0.336c0.812,0,1.472,0.096,1.979,0.286
			c0.507,0.191,0.88,0.432,1.119,0.721c0.239,0.29,0.406,0.655,0.501,1.098c0.054,0.274,0.081,0.77,0.081,1.486v2.149
			c0,1.498,0.035,2.445,0.103,2.843c0.069,0.396,0.205,0.777,0.408,1.142h-1.684C180.858,498.182,180.751,497.79,180.703,497.343z
			 M180.569,493.743c-0.585,0.238-1.463,0.441-2.633,0.608c-0.663,0.096-1.131,0.203-1.406,0.322
			c-0.275,0.12-0.487,0.294-0.636,0.524c-0.149,0.229-0.224,0.484-0.224,0.766c0,0.43,0.163,0.788,0.488,1.074
			c0.325,0.286,0.801,0.43,1.428,0.43c0.621,0,1.173-0.136,1.657-0.407c0.483-0.271,0.838-0.644,1.065-1.115
			c0.173-0.363,0.26-0.901,0.26-1.611V493.743z"/>
		<path d="M188.143,497.074l0.233,1.424c-0.454,0.095-0.86,0.143-1.218,0.143c-0.585,0-1.039-0.092-1.361-0.277
			c-0.322-0.185-0.549-0.428-0.681-0.729s-0.197-0.936-0.197-1.903v-5.471h-1.182v-1.254h1.182v-2.355l1.603-0.967v3.322h1.621
			v1.254h-1.621v5.561c0,0.46,0.028,0.755,0.085,0.887c0.057,0.131,0.149,0.235,0.277,0.313c0.128,0.077,0.312,0.116,0.551,0.116
			C187.614,497.137,187.85,497.116,188.143,497.074z"/>
		<path d="M189.709,487.241v-1.854h1.612v1.854H189.709z M189.709,498.516v-9.51h1.612v9.51H189.709z"/>
		<path d="M196.435,498.516l-3.618-9.51h1.701l2.042,5.695c0.221,0.614,0.424,1.253,0.609,1.916c0.143-0.501,0.343-1.104,0.6-1.809
			l2.113-5.803h1.657l-3.6,9.51H196.435z"/>
		<path d="M209.473,495.453l1.666,0.206c-0.263,0.973-0.749,1.729-1.459,2.266s-1.618,0.806-2.722,0.806
			c-1.391,0-2.494-0.428-3.309-1.285c-0.815-0.856-1.223-2.058-1.223-3.604c0-1.6,0.412-2.841,1.236-3.725s1.893-1.325,3.206-1.325
			c1.271,0,2.31,0.433,3.116,1.298c0.806,0.866,1.208,2.084,1.208,3.654c0,0.095-0.003,0.238-0.009,0.43h-7.092
			c0.06,1.045,0.355,1.845,0.886,2.399c0.531,0.556,1.194,0.833,1.988,0.833c0.591,0,1.096-0.155,1.514-0.466
			C208.896,496.629,209.228,496.134,209.473,495.453z M204.181,492.848h5.31c-0.072-0.8-0.274-1.4-0.609-1.8
			c-0.514-0.621-1.179-0.932-1.997-0.932c-0.74,0-1.362,0.248-1.867,0.743C204.513,491.354,204.234,492.018,204.181,492.848z"/>
		<path d="M218.771,498.516v-9.51h1.441v1.334c0.299-0.466,0.696-0.84,1.191-1.124c0.495-0.283,1.06-0.425,1.692-0.425
			c0.704,0,1.282,0.146,1.732,0.438c0.451,0.293,0.769,0.702,0.954,1.227c0.752-1.11,1.731-1.665,2.938-1.665
			c0.943,0,1.668,0.261,2.176,0.783s0.761,1.327,0.761,2.413v6.528h-1.603v-5.99c0-0.646-0.052-1.109-0.157-1.393
			c-0.104-0.284-0.294-0.512-0.568-0.686c-0.275-0.173-0.597-0.26-0.967-0.26c-0.668,0-1.224,0.223-1.666,0.667
			c-0.442,0.445-0.663,1.157-0.663,2.136v5.525h-1.612v-6.179c0-0.717-0.131-1.254-0.394-1.612c-0.263-0.357-0.693-0.537-1.29-0.537
			c-0.454,0-0.873,0.12-1.258,0.358c-0.385,0.239-0.664,0.588-0.837,1.048c-0.173,0.46-0.26,1.122-0.26,1.988v4.934H218.771z"/>
		<path d="M240.759,495.453l1.666,0.206c-0.263,0.973-0.749,1.729-1.459,2.266s-1.618,0.806-2.722,0.806
			c-1.391,0-2.494-0.428-3.309-1.285c-0.815-0.856-1.223-2.058-1.223-3.604c0-1.6,0.412-2.841,1.236-3.725s1.893-1.325,3.206-1.325
			c1.271,0,2.31,0.433,3.116,1.298c0.806,0.866,1.208,2.084,1.208,3.654c0,0.095-0.003,0.238-0.009,0.43h-7.092
			c0.06,1.045,0.355,1.845,0.886,2.399c0.531,0.556,1.194,0.833,1.988,0.833c0.591,0,1.096-0.155,1.514-0.466
			C240.183,496.629,240.514,496.134,240.759,495.453z M235.467,492.848h5.31c-0.072-0.8-0.274-1.4-0.609-1.8
			c-0.514-0.621-1.179-0.932-1.997-0.932c-0.74,0-1.362,0.248-1.867,0.743C235.799,491.354,235.521,492.018,235.467,492.848z"/>
		<path d="M250.581,497.343c-0.597,0.507-1.172,0.865-1.724,1.074c-0.552,0.209-1.145,0.313-1.778,0.313
			c-1.044,0-1.848-0.255-2.409-0.766s-0.842-1.162-0.842-1.956c0-0.466,0.106-0.892,0.318-1.276s0.489-0.694,0.833-0.927
			c0.343-0.233,0.729-0.409,1.16-0.528c0.316-0.084,0.793-0.164,1.433-0.242c1.301-0.155,2.259-0.34,2.875-0.555
			c0.006-0.221,0.009-0.361,0.009-0.421c0-0.657-0.152-1.119-0.457-1.389c-0.412-0.363-1.024-0.546-1.836-0.546
			c-0.758,0-1.318,0.133-1.679,0.398c-0.361,0.266-0.628,0.736-0.802,1.41l-1.576-0.215c0.143-0.674,0.379-1.219,0.707-1.634
			c0.329-0.415,0.803-0.734,1.424-0.958c0.621-0.225,1.34-0.336,2.158-0.336c0.812,0,1.472,0.096,1.979,0.286
			c0.507,0.191,0.88,0.432,1.119,0.721c0.239,0.29,0.406,0.655,0.501,1.098c0.054,0.274,0.081,0.77,0.081,1.486v2.149
			c0,1.498,0.035,2.445,0.103,2.843c0.069,0.396,0.205,0.777,0.408,1.142h-1.684C250.736,498.182,250.629,497.79,250.581,497.343z
			 M250.447,493.743c-0.585,0.238-1.463,0.441-2.633,0.608c-0.663,0.096-1.131,0.203-1.406,0.322
			c-0.275,0.12-0.487,0.294-0.636,0.524c-0.149,0.229-0.224,0.484-0.224,0.766c0,0.43,0.163,0.788,0.488,1.074
			c0.325,0.286,0.801,0.43,1.428,0.43c0.621,0,1.173-0.136,1.657-0.407c0.483-0.271,0.838-0.644,1.065-1.115
			c0.173-0.363,0.26-0.901,0.26-1.611V493.743z"/>
		<path d="M253.856,495.677l1.594-0.251c0.089,0.64,0.338,1.129,0.748,1.469c0.409,0.341,0.98,0.511,1.715,0.511
			c0.74,0,1.29-0.15,1.647-0.452c0.358-0.302,0.538-0.655,0.538-1.062c0-0.363-0.158-0.65-0.475-0.859
			c-0.221-0.144-0.77-0.325-1.648-0.546c-1.182-0.299-2.001-0.557-2.458-0.774c-0.457-0.219-0.803-0.52-1.039-0.905
			c-0.236-0.385-0.354-0.81-0.354-1.275c0-0.424,0.097-0.816,0.291-1.178c0.194-0.361,0.458-0.661,0.792-0.9
			c0.25-0.185,0.592-0.342,1.025-0.47c0.433-0.128,0.897-0.192,1.393-0.192c0.746,0,1.401,0.107,1.966,0.322
			c0.564,0.215,0.98,0.506,1.249,0.873s0.454,0.858,0.555,1.473l-1.576,0.215c-0.071-0.489-0.279-0.871-0.622-1.146
			c-0.344-0.274-0.829-0.412-1.455-0.412c-0.741,0-1.269,0.122-1.585,0.367c-0.317,0.245-0.475,0.531-0.475,0.859
			c0,0.209,0.065,0.397,0.197,0.564c0.131,0.173,0.337,0.316,0.618,0.43c0.162,0.06,0.636,0.197,1.424,0.412
			c1.14,0.305,1.936,0.554,2.387,0.747c0.451,0.194,0.804,0.477,1.061,0.847c0.256,0.37,0.385,0.83,0.385,1.379
			c0,0.537-0.157,1.043-0.47,1.518s-0.766,0.842-1.357,1.102c-0.591,0.26-1.259,0.39-2.006,0.39c-1.235,0-2.177-0.257-2.825-0.771
			C254.449,497.447,254.036,496.686,253.856,495.677z"/>
		<path d="M269.903,498.516v-1.396c-0.74,1.074-1.746,1.611-3.018,1.611c-0.562,0-1.085-0.107-1.572-0.322
			c-0.487-0.215-0.848-0.485-1.083-0.811s-0.401-0.724-0.497-1.195c-0.066-0.316-0.099-0.817-0.099-1.505v-5.892h1.612v5.274
			c0,0.842,0.033,1.409,0.099,1.701c0.102,0.424,0.316,0.757,0.645,0.998c0.328,0.242,0.734,0.363,1.218,0.363
			c0.483,0,0.937-0.124,1.361-0.372c0.424-0.247,0.724-0.585,0.9-1.012c0.176-0.427,0.264-1.046,0.264-1.858v-5.095h1.612v9.51
			H269.903z"/>
		<path d="M273.779,498.516v-9.51h1.451v1.441c0.37-0.675,0.712-1.119,1.025-1.334s0.658-0.322,1.034-0.322
			c0.543,0,1.095,0.173,1.657,0.52l-0.555,1.495c-0.394-0.232-0.788-0.35-1.182-0.35c-0.353,0-0.668,0.106-0.949,0.318
			s-0.48,0.506-0.6,0.882c-0.179,0.573-0.269,1.2-0.269,1.881v4.979H273.779z"/>
		<path d="M286.322,495.453l1.666,0.206c-0.263,0.973-0.749,1.729-1.459,2.266s-1.618,0.806-2.722,0.806
			c-1.391,0-2.494-0.428-3.309-1.285c-0.815-0.856-1.223-2.058-1.223-3.604c0-1.6,0.412-2.841,1.236-3.725s1.893-1.325,3.206-1.325
			c1.271,0,2.31,0.433,3.116,1.298c0.806,0.866,1.208,2.084,1.208,3.654c0,0.095-0.003,0.238-0.009,0.43h-7.092
			c0.06,1.045,0.355,1.845,0.886,2.399c0.531,0.556,1.194,0.833,1.988,0.833c0.591,0,1.096-0.155,1.514-0.466
			C285.746,496.629,286.078,496.134,286.322,495.453z M281.03,492.848h5.31c-0.072-0.8-0.274-1.4-0.609-1.8
			c-0.514-0.621-1.179-0.932-1.997-0.932c-0.74,0-1.362,0.248-1.867,0.743C281.363,491.354,281.084,492.018,281.03,492.848z"/>
		<path d="M296.108,498.516v-1.2c-0.603,0.943-1.489,1.415-2.659,1.415c-0.758,0-1.455-0.209-2.091-0.627
			c-0.636-0.418-1.128-1.001-1.478-1.75c-0.35-0.75-0.524-1.61-0.524-2.584c0-0.949,0.158-1.811,0.475-2.583
			c0.316-0.773,0.791-1.366,1.424-1.777c0.632-0.412,1.34-0.618,2.122-0.618c0.573,0,1.083,0.121,1.531,0.362
			c0.448,0.242,0.812,0.557,1.092,0.945v-4.711h1.603v13.128H296.108z M291.013,493.77c0,1.218,0.257,2.128,0.771,2.731
			c0.513,0.603,1.119,0.904,1.818,0.904c0.704,0,1.303-0.288,1.795-0.864c0.492-0.576,0.738-1.455,0.738-2.637
			c0-1.302-0.25-2.257-0.752-2.866c-0.501-0.608-1.119-0.913-1.854-0.913c-0.716,0-1.315,0.293-1.795,0.878
			C291.253,491.588,291.013,492.51,291.013,493.77z"/>
		<path d="M306.058,502.16v-13.154h1.468v1.235c0.346-0.483,0.737-0.846,1.173-1.088c0.436-0.241,0.964-0.362,1.585-0.362
			c0.812,0,1.528,0.209,2.149,0.627c0.621,0.418,1.089,1.007,1.406,1.769c0.316,0.761,0.475,1.595,0.475,2.503
			c0,0.973-0.175,1.849-0.524,2.628c-0.35,0.779-0.857,1.376-1.522,1.791s-1.366,0.622-2.1,0.622c-0.537,0-1.019-0.113-1.446-0.34
			c-0.427-0.228-0.778-0.514-1.052-0.86v4.63H306.058z M307.518,493.814c0,1.224,0.248,2.128,0.743,2.713
			c0.496,0.586,1.096,0.878,1.8,0.878c0.717,0,1.33-0.303,1.84-0.909c0.51-0.605,0.766-1.544,0.766-2.816
			c0-1.211-0.25-2.119-0.748-2.722c-0.499-0.604-1.094-0.904-1.787-0.904c-0.687,0-1.294,0.32-1.822,0.962
			C307.782,491.658,307.518,492.591,307.518,493.814z"/>
		<path d="M322.694,495.453l1.666,0.206c-0.264,0.973-0.75,1.729-1.461,2.266c-0.709,0.537-1.617,0.806-2.721,0.806
			c-1.393,0-2.494-0.428-3.311-1.285c-0.814-0.856-1.222-2.058-1.222-3.604c0-1.6,0.413-2.841,1.235-3.725
			c0.824-0.884,1.893-1.325,3.207-1.325c1.271,0,2.311,0.433,3.115,1.298c0.807,0.866,1.209,2.084,1.209,3.654
			c0,0.095-0.002,0.238-0.008,0.43h-7.094c0.061,1.045,0.355,1.845,0.887,2.399c0.531,0.556,1.195,0.833,1.988,0.833
			c0.592,0,1.096-0.155,1.514-0.466S322.448,496.134,322.694,495.453z M317.401,492.848h5.311c-0.072-0.8-0.275-1.4-0.609-1.8
			c-0.514-0.621-1.178-0.932-1.996-0.932c-0.74,0-1.363,0.248-1.867,0.743S317.456,492.018,317.401,492.848z"/>
		<path d="M332.516,497.343c-0.597,0.507-1.171,0.865-1.724,1.074c-0.552,0.209-1.145,0.313-1.777,0.313
			c-1.045,0-1.848-0.255-2.409-0.766c-0.561-0.511-0.841-1.162-0.841-1.956c0-0.466,0.105-0.892,0.317-1.276
			s0.489-0.694,0.833-0.927c0.343-0.233,0.729-0.409,1.159-0.528c0.316-0.084,0.794-0.164,1.433-0.242
			c1.302-0.155,2.26-0.34,2.875-0.555c0.006-0.221,0.009-0.361,0.009-0.421c0-0.657-0.152-1.119-0.457-1.389
			c-0.411-0.363-1.023-0.546-1.835-0.546c-0.759,0-1.318,0.133-1.68,0.398s-0.628,0.736-0.801,1.41l-1.576-0.215
			c0.144-0.674,0.379-1.219,0.707-1.634s0.803-0.734,1.424-0.958c0.621-0.225,1.34-0.336,2.158-0.336
			c0.812,0,1.472,0.096,1.979,0.286c0.507,0.191,0.88,0.432,1.119,0.721c0.238,0.29,0.405,0.655,0.501,1.098
			c0.054,0.274,0.081,0.77,0.081,1.486v2.149c0,1.498,0.034,2.445,0.103,2.843c0.068,0.396,0.205,0.777,0.407,1.142h-1.683
			C332.671,498.182,332.563,497.79,332.516,497.343z M332.382,493.743c-0.585,0.238-1.463,0.441-2.633,0.608
			c-0.663,0.096-1.132,0.203-1.406,0.322c-0.274,0.12-0.486,0.294-0.636,0.524c-0.149,0.229-0.224,0.484-0.224,0.766
			c0,0.43,0.163,0.788,0.488,1.074s0.802,0.43,1.428,0.43c0.621,0,1.174-0.136,1.657-0.407s0.839-0.644,1.065-1.115
			c0.173-0.363,0.26-0.901,0.26-1.611V493.743z"/>
		<path d="M336.445,498.516v-13.128h1.612v7.486l3.814-3.868h2.086l-3.636,3.528l4.003,5.981h-1.987l-3.144-4.862l-1.137,1.093v3.77
			H336.445z"/>
		<path d="M357.199,497.343c-0.597,0.507-1.171,0.865-1.724,1.074c-0.552,0.209-1.145,0.313-1.777,0.313
			c-1.045,0-1.848-0.255-2.409-0.766c-0.561-0.511-0.841-1.162-0.841-1.956c0-0.466,0.105-0.892,0.317-1.276
			s0.489-0.694,0.833-0.927c0.343-0.233,0.729-0.409,1.159-0.528c0.316-0.084,0.794-0.164,1.433-0.242
			c1.302-0.155,2.26-0.34,2.875-0.555c0.006-0.221,0.009-0.361,0.009-0.421c0-0.657-0.152-1.119-0.457-1.389
			c-0.411-0.363-1.023-0.546-1.835-0.546c-0.759,0-1.318,0.133-1.68,0.398s-0.628,0.736-0.801,1.41l-1.576-0.215
			c0.144-0.674,0.379-1.219,0.707-1.634s0.803-0.734,1.424-0.958c0.621-0.225,1.34-0.336,2.158-0.336
			c0.812,0,1.472,0.096,1.979,0.286c0.507,0.191,0.88,0.432,1.119,0.721c0.238,0.29,0.405,0.655,0.501,1.098
			c0.054,0.274,0.081,0.77,0.081,1.486v2.149c0,1.498,0.034,2.445,0.103,2.843c0.068,0.396,0.205,0.777,0.407,1.142h-1.683
			C357.354,498.182,357.247,497.79,357.199,497.343z M357.065,493.743c-0.585,0.238-1.463,0.441-2.633,0.608
			c-0.663,0.096-1.132,0.203-1.406,0.322c-0.274,0.12-0.486,0.294-0.636,0.524c-0.149,0.229-0.224,0.484-0.224,0.766
			c0,0.43,0.163,0.788,0.488,1.074s0.802,0.43,1.428,0.43c0.621,0,1.174-0.136,1.657-0.407s0.839-0.644,1.065-1.115
			c0.173-0.363,0.26-0.901,0.26-1.611V493.743z"/>
		<path d="M367.353,498.516v-1.396c-0.74,1.074-1.746,1.611-3.018,1.611c-0.562,0-1.085-0.107-1.571-0.322
			c-0.487-0.215-0.849-0.485-1.084-0.811c-0.236-0.325-0.401-0.724-0.497-1.195c-0.065-0.316-0.099-0.817-0.099-1.505v-5.892h1.612
			v5.274c0,0.842,0.032,1.409,0.099,1.701c0.101,0.424,0.316,0.757,0.645,0.998c0.328,0.242,0.734,0.363,1.218,0.363
			s0.938-0.124,1.361-0.372c0.424-0.247,0.724-0.585,0.899-1.012s0.265-1.046,0.265-1.858v-5.095h1.611v9.51H367.353z"/>
		<path d="M377.416,498.516v-1.2c-0.604,0.943-1.49,1.415-2.66,1.415c-0.758,0-1.455-0.209-2.091-0.627s-1.128-1.001-1.478-1.75
			c-0.349-0.75-0.523-1.61-0.523-2.584c0-0.949,0.158-1.811,0.475-2.583c0.316-0.773,0.791-1.366,1.424-1.777
			c0.633-0.412,1.34-0.618,2.122-0.618c0.573,0,1.084,0.121,1.531,0.362c0.447,0.242,0.812,0.557,1.093,0.945v-4.711h1.603v13.128
			H377.416z M372.32,493.77c0,1.218,0.257,2.128,0.771,2.731c0.514,0.603,1.119,0.904,1.817,0.904c0.705,0,1.303-0.288,1.796-0.864
			c0.492-0.576,0.738-1.455,0.738-2.637c0-1.302-0.25-2.257-0.752-2.866c-0.501-0.608-1.119-0.913-1.854-0.913
			c-0.717,0-1.315,0.293-1.796,0.878S372.32,492.51,372.32,493.77z"/>
		<path d="M381.381,487.241v-1.854h1.612v1.854H381.381z M381.381,498.516v-9.51h1.612v9.51H381.381z"/>
		<path d="M384.865,493.761c0-1.761,0.489-3.065,1.468-3.913c0.818-0.704,1.815-1.057,2.991-1.057c1.308,0,2.376,0.429,3.206,1.285
			c0.829,0.856,1.244,2.04,1.244,3.55c0,1.225-0.184,2.187-0.551,2.889c-0.367,0.701-0.901,1.246-1.603,1.634
			s-1.467,0.582-2.297,0.582c-1.331,0-2.407-0.427-3.229-1.28C385.275,496.597,384.865,495.366,384.865,493.761z M386.521,493.761
			c0,1.218,0.266,2.13,0.797,2.735c0.531,0.606,1.2,0.909,2.006,0.909c0.8,0,1.466-0.305,1.997-0.913
			c0.531-0.609,0.797-1.537,0.797-2.785c0-1.176-0.268-2.067-0.802-2.673c-0.534-0.606-1.198-0.909-1.992-0.909
			c-0.806,0-1.475,0.302-2.006,0.904C386.787,491.633,386.521,492.543,386.521,493.761z"/>
		<path d="M407.479,497.343c-0.597,0.507-1.171,0.865-1.724,1.074c-0.552,0.209-1.145,0.313-1.777,0.313
			c-1.045,0-1.848-0.255-2.409-0.766c-0.561-0.511-0.841-1.162-0.841-1.956c0-0.466,0.105-0.892,0.317-1.276
			s0.489-0.694,0.833-0.927c0.343-0.233,0.729-0.409,1.159-0.528c0.316-0.084,0.794-0.164,1.433-0.242
			c1.302-0.155,2.26-0.34,2.875-0.555c0.006-0.221,0.009-0.361,0.009-0.421c0-0.657-0.152-1.119-0.457-1.389
			c-0.411-0.363-1.023-0.546-1.835-0.546c-0.759,0-1.318,0.133-1.68,0.398s-0.628,0.736-0.801,1.41l-1.576-0.215
			c0.144-0.674,0.379-1.219,0.707-1.634s0.803-0.734,1.424-0.958c0.621-0.225,1.34-0.336,2.158-0.336
			c0.812,0,1.472,0.096,1.979,0.286c0.507,0.191,0.88,0.432,1.119,0.721c0.238,0.29,0.405,0.655,0.501,1.098
			c0.054,0.274,0.081,0.77,0.081,1.486v2.149c0,1.498,0.034,2.445,0.103,2.843c0.068,0.396,0.205,0.777,0.407,1.142h-1.683
			C407.634,498.182,407.526,497.79,407.479,497.343z M407.345,493.743c-0.585,0.238-1.463,0.441-2.633,0.608
			c-0.663,0.096-1.132,0.203-1.406,0.322c-0.274,0.12-0.486,0.294-0.636,0.524c-0.149,0.229-0.224,0.484-0.224,0.766
			c0,0.43,0.163,0.788,0.488,1.074s0.802,0.43,1.428,0.43c0.621,0,1.174-0.136,1.657-0.407s0.839-0.644,1.065-1.115
			c0.173-0.363,0.26-0.901,0.26-1.611V493.743z"/>
		<path d="M411.399,498.516v-9.51h1.441v1.334c0.299-0.466,0.695-0.84,1.191-1.124c0.495-0.283,1.06-0.425,1.692-0.425
			c0.704,0,1.281,0.146,1.732,0.438c0.451,0.293,0.769,0.702,0.954,1.227c0.752-1.11,1.73-1.665,2.937-1.665
			c0.943,0,1.669,0.261,2.177,0.783c0.507,0.522,0.761,1.327,0.761,2.413v6.528h-1.603v-5.99c0-0.646-0.053-1.109-0.157-1.393
			c-0.104-0.284-0.294-0.512-0.568-0.686c-0.274-0.173-0.598-0.26-0.967-0.26c-0.669,0-1.225,0.223-1.666,0.667
			c-0.441,0.445-0.663,1.157-0.663,2.136v5.525h-1.611v-6.179c0-0.717-0.132-1.254-0.395-1.612
			c-0.263-0.357-0.692-0.537-1.289-0.537c-0.454,0-0.873,0.12-1.258,0.358c-0.386,0.239-0.664,0.588-0.838,1.048
			c-0.173,0.46-0.26,1.122-0.26,1.988v4.934H411.399z"/>
		<path d="M426.878,502.16v-13.154h1.469v1.235c0.346-0.483,0.737-0.846,1.173-1.088c0.436-0.241,0.964-0.362,1.585-0.362
			c0.812,0,1.528,0.209,2.149,0.627c0.62,0.418,1.089,1.007,1.405,1.769c0.316,0.761,0.475,1.595,0.475,2.503
			c0,0.973-0.175,1.849-0.523,2.628c-0.35,0.779-0.856,1.376-1.522,1.791s-1.365,0.622-2.1,0.622c-0.537,0-1.02-0.113-1.446-0.34
			c-0.427-0.228-0.777-0.514-1.053-0.86v4.63H426.878z M428.338,493.814c0,1.224,0.247,2.128,0.743,2.713
			c0.495,0.586,1.095,0.878,1.8,0.878c0.716,0,1.329-0.303,1.84-0.909c0.511-0.605,0.766-1.544,0.766-2.816
			c0-1.211-0.249-2.119-0.748-2.722c-0.498-0.604-1.094-0.904-1.786-0.904c-0.687,0-1.294,0.32-1.822,0.962
			C428.602,491.658,428.338,492.591,428.338,493.814z"/>
		<path d="M436.968,498.516v-13.128h1.612v13.128H436.968z"/>
		<path d="M441.105,487.241v-1.854h1.612v1.854H441.105z M441.105,498.516v-9.51h1.612v9.51H441.105z"/>
		<path d="M448.727,497.074l0.232,1.424c-0.454,0.095-0.859,0.143-1.218,0.143c-0.585,0-1.039-0.092-1.361-0.277
			c-0.322-0.185-0.549-0.428-0.681-0.729c-0.131-0.302-0.197-0.936-0.197-1.903v-5.471h-1.182v-1.254h1.182v-2.355l1.604-0.967
			v3.322h1.621v1.254h-1.621v5.561c0,0.46,0.028,0.755,0.085,0.887c0.057,0.131,0.149,0.235,0.277,0.313
			c0.129,0.077,0.313,0.116,0.551,0.116C448.198,497.137,448.434,497.116,448.727,497.074z"/>
		<path d="M456.498,498.516v-1.396c-0.74,1.074-1.746,1.611-3.018,1.611c-0.562,0-1.085-0.107-1.571-0.322
			c-0.487-0.215-0.849-0.485-1.084-0.811c-0.236-0.325-0.401-0.724-0.497-1.195c-0.065-0.316-0.099-0.817-0.099-1.505v-5.892h1.612
			v5.274c0,0.842,0.032,1.409,0.099,1.701c0.101,0.424,0.316,0.757,0.645,0.998c0.328,0.242,0.734,0.363,1.218,0.363
			s0.938-0.124,1.361-0.372c0.424-0.247,0.724-0.585,0.899-1.012s0.265-1.046,0.265-1.858v-5.095h1.611v9.51H456.498z"/>
		<path d="M466.562,498.516v-1.2c-0.604,0.943-1.49,1.415-2.66,1.415c-0.758,0-1.455-0.209-2.091-0.627s-1.128-1.001-1.478-1.75
			c-0.349-0.75-0.523-1.61-0.523-2.584c0-0.949,0.158-1.811,0.475-2.583c0.316-0.773,0.791-1.366,1.424-1.777
			c0.633-0.412,1.34-0.618,2.122-0.618c0.573,0,1.084,0.121,1.531,0.362c0.447,0.242,0.812,0.557,1.093,0.945v-4.711h1.603v13.128
			H466.562z M461.466,493.77c0,1.218,0.257,2.128,0.771,2.731c0.514,0.603,1.119,0.904,1.817,0.904c0.705,0,1.303-0.288,1.796-0.864
			c0.492-0.576,0.738-1.455,0.738-2.637c0-1.302-0.25-2.257-0.752-2.866c-0.501-0.608-1.119-0.913-1.854-0.913
			c-0.717,0-1.315,0.293-1.796,0.878S461.466,492.51,461.466,493.77z"/>
		<path d="M477.027,495.453l1.666,0.206c-0.263,0.973-0.75,1.729-1.46,2.266s-1.618,0.806-2.722,0.806
			c-1.392,0-2.494-0.428-3.31-1.285c-0.814-0.856-1.222-2.058-1.222-3.604c0-1.6,0.412-2.841,1.235-3.725
			c0.824-0.884,1.893-1.325,3.206-1.325c1.271,0,2.311,0.433,3.116,1.298c0.806,0.866,1.209,2.084,1.209,3.654
			c0,0.095-0.003,0.238-0.009,0.43h-7.093c0.06,1.045,0.355,1.845,0.887,2.399c0.531,0.556,1.194,0.833,1.988,0.833
			c0.591,0,1.095-0.155,1.513-0.466S476.782,496.134,477.027,495.453z M471.735,492.848h5.311c-0.072-0.8-0.275-1.4-0.609-1.8
			c-0.514-0.621-1.179-0.932-1.997-0.932c-0.74,0-1.362,0.248-1.867,0.743C472.068,491.354,471.789,492.018,471.735,492.848z"/>
		<path d="M481.064,498.516v-1.836h1.836v1.836c0,0.675-0.12,1.219-0.358,1.634c-0.239,0.415-0.618,0.736-1.138,0.963l-0.447-0.689
			c0.34-0.149,0.591-0.368,0.752-0.658c0.161-0.289,0.251-0.706,0.269-1.249H481.064z"/>
		<path d="M490.46,498.516l5.042-13.128h1.871l5.373,13.128h-1.979l-1.531-3.976h-5.489l-1.442,3.976H490.46z M494.248,493.125
			h4.451l-1.37-3.636c-0.418-1.104-0.729-2.012-0.932-2.723c-0.167,0.842-0.403,1.678-0.707,2.508L494.248,493.125z"/>
		<path d="M512.177,502.375c-0.89-1.122-1.642-2.436-2.257-3.94c-0.614-1.504-0.922-3.063-0.922-4.674
			c0-1.421,0.229-2.782,0.689-4.083c0.537-1.511,1.367-3.015,2.489-4.514h1.155c-0.723,1.242-1.2,2.128-1.433,2.66
			c-0.364,0.823-0.65,1.683-0.859,2.578c-0.257,1.117-0.386,2.239-0.386,3.367c0,2.872,0.893,5.74,2.678,8.605H512.177z"/>
		<path d="M521.282,498.516v-1.2c-0.604,0.943-1.49,1.415-2.66,1.415c-0.758,0-1.455-0.209-2.091-0.627s-1.128-1.001-1.478-1.75
			c-0.349-0.75-0.523-1.61-0.523-2.584c0-0.949,0.158-1.811,0.475-2.583c0.316-0.773,0.791-1.366,1.424-1.777
			c0.633-0.412,1.34-0.618,2.122-0.618c0.573,0,1.084,0.121,1.531,0.362c0.447,0.242,0.812,0.557,1.093,0.945v-4.711h1.603v13.128
			H521.282z M516.187,493.77c0,1.218,0.257,2.128,0.771,2.731c0.514,0.603,1.119,0.904,1.817,0.904c0.705,0,1.303-0.288,1.796-0.864
			c0.492-0.576,0.738-1.455,0.738-2.637c0-1.302-0.25-2.257-0.752-2.866c-0.501-0.608-1.119-0.913-1.854-0.913
			c-0.717,0-1.315,0.293-1.796,0.878S516.187,492.51,516.187,493.77z"/>
		<path d="M525.372,498.516v-13.128h4.926c1.003,0,1.807,0.133,2.413,0.398c0.605,0.267,1.08,0.675,1.424,1.228
			c0.343,0.552,0.515,1.13,0.515,1.732c0,0.562-0.152,1.09-0.457,1.585c-0.304,0.495-0.764,0.896-1.379,1.2
			c0.794,0.232,1.404,0.63,1.832,1.19c0.427,0.562,0.64,1.225,0.64,1.988c0,0.615-0.13,1.187-0.39,1.715s-0.58,0.936-0.962,1.223
			c-0.383,0.286-0.861,0.503-1.438,0.648c-0.576,0.146-1.282,0.22-2.118,0.22H525.372z M527.109,490.904h2.839
			c0.771,0,1.322-0.051,1.656-0.152c0.442-0.131,0.775-0.35,0.999-0.653c0.224-0.305,0.336-0.687,0.336-1.146
			c0-0.436-0.104-0.819-0.313-1.15c-0.209-0.332-0.508-0.559-0.896-0.681c-0.389-0.123-1.054-0.184-1.997-0.184h-2.624V490.904z
			 M527.109,496.967h3.269c0.562,0,0.955-0.021,1.183-0.063c0.399-0.071,0.734-0.19,1.003-0.357s0.489-0.411,0.662-0.73
			s0.26-0.688,0.26-1.105c0-0.489-0.125-0.915-0.376-1.276s-0.599-0.614-1.043-0.761c-0.445-0.146-1.085-0.22-1.921-0.22h-3.036
			V496.967z"/>
		<path d="M538.619,502.375h-1.155c1.785-2.865,2.678-5.733,2.678-8.605c0-1.122-0.129-2.235-0.386-3.34
			c-0.202-0.896-0.486-1.755-0.851-2.579c-0.232-0.537-0.713-1.433-1.441-2.687h1.155c1.122,1.499,1.952,3.003,2.489,4.514
			c0.46,1.301,0.689,2.662,0.689,4.083c0,1.611-0.309,3.17-0.927,4.674C540.253,499.939,539.503,501.253,538.619,502.375z"/>
	</g>
	<path fill="none" stroke="#5C9BD4" stroke-width="0.75" stroke-linejoin="round" stroke-miterlimit="10" d="M216.492,558.315
		l10.117-10.117 M226.609,558.315l-10.117-10.117"/>
	<g>
		<path d="M229.83,559.293l5.042-13.128h1.872l5.373,13.128h-1.979l-1.531-3.976h-5.489l-1.441,3.976H229.83z M233.617,553.902
			h4.451l-1.37-3.636c-0.418-1.104-0.729-2.012-0.931-2.723c-0.167,0.842-0.403,1.678-0.708,2.508L233.617,553.902z"/>
		<path d="M242.95,555.827l1.612-0.215c0.185,0.914,0.5,1.572,0.945,1.975c0.445,0.403,0.986,0.604,1.625,0.604
			c0.758,0,1.398-0.263,1.92-0.788s0.784-1.176,0.784-1.952c0-0.74-0.242-1.351-0.725-1.831c-0.484-0.48-1.099-0.721-1.845-0.721
			c-0.305,0-0.684,0.06-1.137,0.179l0.179-1.414c0.107,0.012,0.194,0.018,0.26,0.018c0.687,0,1.304-0.18,1.854-0.537
			c0.549-0.358,0.824-0.91,0.824-1.657c0-0.591-0.2-1.08-0.6-1.469c-0.4-0.388-0.917-0.582-1.549-0.582
			c-0.627,0-1.149,0.197-1.567,0.592c-0.418,0.394-0.687,0.984-0.806,1.772l-1.612-0.286c0.197-1.081,0.645-1.918,1.343-2.512
			c0.699-0.594,1.567-0.892,2.606-0.892c0.716,0,1.376,0.154,1.979,0.462s1.064,0.727,1.383,1.258s0.479,1.096,0.479,1.692
			c0,0.567-0.152,1.083-0.457,1.549c-0.304,0.466-0.755,0.836-1.352,1.11c0.776,0.18,1.379,0.551,1.809,1.115
			c0.43,0.564,0.645,1.271,0.645,2.118c0,1.146-0.418,2.117-1.254,2.914s-1.893,1.195-3.17,1.195c-1.152,0-2.109-0.343-2.87-1.029
			C243.492,557.81,243.058,556.92,242.95,555.827z"/>
	</g>
	<path fill="none" stroke="#C01718" stroke-width="0.75" stroke-linejoin="round" stroke-miterlimit="10" d="M264.869,558.315
		l10.119-10.117 M274.988,558.315l-10.119-10.117"/>
	<g>
		<path d="M289.19,555.323l1.737,0.438c-0.364,1.427-1.02,2.515-1.965,3.264c-0.946,0.75-2.103,1.124-3.47,1.124
			c-1.415,0-2.565-0.288-3.452-0.864c-0.887-0.575-1.562-1.41-2.024-2.503c-0.463-1.092-0.694-2.265-0.694-3.519
			c0-1.367,0.261-2.56,0.783-3.577c0.522-1.019,1.266-1.791,2.23-2.319c0.964-0.528,2.025-0.793,3.183-0.793
			c1.313,0,2.418,0.335,3.313,1.003c0.896,0.669,1.519,1.609,1.872,2.821l-1.71,0.402c-0.305-0.955-0.747-1.65-1.325-2.086
			c-0.579-0.436-1.308-0.654-2.185-0.654c-1.009,0-1.852,0.242-2.53,0.726s-1.154,1.133-1.428,1.947
			c-0.274,0.815-0.412,1.655-0.412,2.521c0,1.116,0.163,2.091,0.488,2.924c0.325,0.832,0.831,1.455,1.518,1.866
			c0.687,0.412,1.43,0.618,2.23,0.618c0.973,0,1.797-0.28,2.471-0.842C288.495,557.261,288.952,556.428,289.19,555.323z"/>
	</g>
	<g>
		<path d="M300.444,556.2l-1.791,0.798v2.928h-0.77v-2.579l-3.206,1.433v3.027h-0.77v-2.678l-1.791,0.797v-1.504l1.791-0.798v-4.423
			l-1.791,0.797v-1.505l1.791-0.797v-2.928h0.77v2.579l3.206-1.434v-3.116h0.77v2.768l1.791-0.797v1.504l-1.791,0.797v4.424
			l1.791-0.797V556.2z M297.883,555.843v-4.424l-3.206,1.433v4.424L297.883,555.843z"/>
	</g>
	<g>
		<path d="M306.785,559.926v-3.144h-5.695v-1.478l5.991-8.507h1.316v8.507h1.773v1.478h-1.773v3.144H306.785z M306.785,555.305
			v-5.919l-4.11,5.919H306.785z"/>
	</g>
	<path fill="none" stroke="#71AE48" stroke-width="0.75" stroke-linejoin="round" stroke-miterlimit="10" d="M323.682,558.315
		l10.117-10.117 M333.799,558.315l-10.117-10.117"/>
	<g>
		<path d="M338.648,559.293v-13.128h9.492v1.55h-7.755v4.021h7.263v1.54h-7.263v4.469h8.06v1.549H338.648z"/>
		<path d="M355.45,559.293v-3.144h-5.695v-1.478l5.991-8.507h1.316v8.507h1.772v1.478h-1.772v3.144H355.45z M355.45,554.672v-5.919
			l-4.11,5.919H355.45z"/>
	</g>
	<path fill="none" stroke="#673A8E" stroke-width="0.75" stroke-linejoin="round" stroke-miterlimit="10" d="M372.375,558.315
		l10.115-10.117 M382.49,558.315l-10.115-10.117"/>
	<g>
		<path d="M393.307,554.776v-1.54l5.561-0.009v4.871c-0.854,0.681-1.733,1.193-2.642,1.536c-0.907,0.343-1.838,0.515-2.793,0.515
			c-1.29,0-2.462-0.275-3.516-0.828c-1.054-0.552-1.849-1.351-2.386-2.396s-0.807-2.212-0.807-3.501c0-1.277,0.268-2.47,0.802-3.577
			s1.303-1.93,2.306-2.468c1.003-0.537,2.158-0.806,3.466-0.806c0.949,0,1.808,0.154,2.574,0.461
			c0.768,0.308,1.369,0.736,1.805,1.285c0.436,0.55,0.767,1.266,0.994,2.149l-1.567,0.43c-0.197-0.669-0.441-1.194-0.734-1.576
			c-0.292-0.382-0.71-0.688-1.254-0.918c-0.543-0.229-1.146-0.345-1.809-0.345c-0.794,0-1.48,0.121-2.06,0.363
			c-0.579,0.241-1.046,0.56-1.401,0.953c-0.355,0.395-0.631,0.827-0.828,1.299c-0.335,0.812-0.502,1.692-0.502,2.642
			c0,1.17,0.202,2.149,0.604,2.937c0.403,0.788,0.99,1.374,1.76,1.756c0.771,0.382,1.588,0.573,2.454,0.573
			c0.752,0,1.486-0.146,2.202-0.435c0.717-0.29,1.26-0.599,1.63-0.927v-2.445H393.307z"/>
	</g>
	<g>
		<path d="M408.737,556.2l-1.791,0.798v2.928h-0.771v-2.579l-3.205,1.433v3.027H402.2v-2.678l-1.791,0.797v-1.504l1.791-0.798
			v-4.423l-1.791,0.797v-1.505l1.791-0.797v-2.928h0.771v2.579l3.205-1.434v-3.116h0.771v2.768l1.791-0.797v1.504l-1.791,0.797
			v4.424l1.791-0.797V556.2z M406.176,555.843v-4.424l-3.205,1.433v4.424L406.176,555.843z"/>
	</g>
	<g>
		<path d="M415.077,559.926v-3.144h-5.695v-1.478l5.991-8.507h1.316v8.507h1.772v1.478h-1.772v3.144H415.077z M415.077,555.305
			v-5.919l-4.11,5.919H415.077z"/>
	</g>
</g>
<g>
</g>
<g>
</g>
<g>
</g>
<g>
</g>
<g>
</g>
<g>
</g>
</svg>
