<?xml version="1.0" encoding="utf-8"?>
<!-- Generator: Adobe Illustrator 16.0.0, SVG Export Plug-In . SVG Version: 6.00 Build 0)  -->
<!DOCTYPE svg PUBLIC "-//W3C//DTD SVG 1.1//EN" "http://www.w3.org/Graphics/SVG/1.1/DTD/svg11.dtd">
<svg version="1.1" id="Layer_1" xmlns="http://www.w3.org/2000/svg" xmlns:xlink="http://www.w3.org/1999/xlink" x="0px" y="0px"
	 width="651px" height="719px" viewBox="0 0 651 719" enable-background="new 0 0 651 719" xml:space="preserve">
<g>
	<path fill="none" stroke="#D9D9D9" stroke-width="0.75" stroke-linejoin="round" stroke-miterlimit="10" d="M81.477,28.26h543.915
		 M81.477,95.035h543.915 M81.477,161.703h543.915 M81.477,228.689h543.915 M81.477,295.357h543.915 M81.477,362.029h543.915"/>
	<path fill="none" stroke="#D9D9D9" stroke-width="0.75" stroke-linejoin="round" stroke-miterlimit="10" d="M625.392,28.258
		v400.646 M547.598,28.258v400.646 M470.033,28.258v400.646 M392.148,28.258v400.646 M314.583,28.258v400.646 M237.018,28.258
		v400.646 M159.131,28.258v400.646"/>
	
		<line fill="none" stroke="#BFBFBF" stroke-width="0.75" stroke-linejoin="round" stroke-miterlimit="10" x1="81.477" y1="428.904" x2="81.477" y2="28.258"/>
	
		<line fill="none" stroke="#BFBFBF" stroke-width="0.75" stroke-linejoin="round" stroke-miterlimit="10" x1="81.477" y1="428.904" x2="625.392" y2="428.904"/>
	<g>
		<defs>
			<rect id="SVGID_1_" x="81.244" y="28.046" width="545.842" height="402.573"/>
		</defs>
		<clipPath id="SVGID_2_">
			<use xlink:href="#SVGID_1_"  overflow="visible"/>
		</clipPath>
		
			<polyline clip-path="url(#SVGID_2_)" fill="none" stroke="#C01718" stroke-linecap="round" stroke-linejoin="round" stroke-miterlimit="10" points="
			81.477,390.537 120.347,371.965 159.128,370.043 197.912,372.604 237.015,356.577 275.798,346.644 314.58,321.323 
			353.365,268.116 392.146,211.383 431.25,160.102 470.033,113.946 508.814,95.676 547.598,95.355 586.38,91.831 625.486,90.924 
			664.267,97.279 703.096,104.651 		"/>
	</g>
	<path fill="none" stroke="#C01718" stroke-width="0.72" stroke-linejoin="round" stroke-miterlimit="10" d="M74.781,397.285
		l13.461-13.463 M88.242,397.285l-13.461-13.463"/>
	<path fill="none" stroke="#C01718" stroke-width="0.72" stroke-linejoin="round" stroke-miterlimit="10" d="M113.563,378.693
		l13.462-13.461 M127.024,378.693l-13.462-13.461"/>
	<path fill="none" stroke="#C01718" stroke-width="0.72" stroke-linejoin="round" stroke-miterlimit="10" d="M152.347,376.771
		l13.461-13.465 M165.808,376.771l-13.461-13.465"/>
	<path fill="none" stroke="#C01718" stroke-width="0.72" stroke-linejoin="round" stroke-miterlimit="10" d="M191.128,379.332
		l13.462-13.459 M204.59,379.332l-13.462-13.459"/>
	<path fill="none" stroke="#C01718" stroke-width="0.72" stroke-linejoin="round" stroke-miterlimit="10" d="M230.232,363.307
		l13.462-13.459 M243.694,363.307l-13.462-13.459"/>
	<path fill="none" stroke="#C01718" stroke-width="0.72" stroke-linejoin="round" stroke-miterlimit="10" d="M269.014,353.374
		l13.463-13.464 M282.477,353.374l-13.463-13.464"/>
	<path fill="none" stroke="#C01718" stroke-width="0.72" stroke-linejoin="round" stroke-miterlimit="10" d="M307.799,328.052
		l13.459-13.462 M321.258,328.052l-13.459-13.462"/>
	<path fill="none" stroke="#C01718" stroke-width="0.72" stroke-linejoin="round" stroke-miterlimit="10" d="M346.58,274.845
		l13.462-13.461 M360.042,274.845l-13.462-13.461"/>
	<path fill="none" stroke="#C01718" stroke-width="0.72" stroke-linejoin="round" stroke-miterlimit="10" d="M385.36,218.113
		l13.464-13.46 M398.824,218.113l-13.464-13.46"/>
	<path fill="none" stroke="#C01718" stroke-width="0.72" stroke-linejoin="round" stroke-miterlimit="10" d="M424.467,166.832
		l13.462-13.462 M437.929,166.832l-13.462-13.462"/>
	<path fill="none" stroke="#C01718" stroke-width="0.72" stroke-linejoin="round" stroke-miterlimit="10" d="M463.249,120.675
		l13.462-13.462 M476.711,120.675l-13.462-13.462"/>
	<path fill="none" stroke="#C01718" stroke-width="0.72" stroke-linejoin="round" stroke-miterlimit="10" d="M502.032,102.406
		l13.462-13.461 M515.494,102.406l-13.462-13.461"/>
	<path fill="none" stroke="#C01718" stroke-width="0.72" stroke-linejoin="round" stroke-miterlimit="10" d="M540.813,102.085
		l13.463-13.461 M554.276,102.085l-13.463-13.461"/>
	<path fill="none" stroke="#C01718" stroke-width="0.72" stroke-linejoin="round" stroke-miterlimit="10" d="M579.599,98.559
		l13.461-13.46 M593.06,98.559l-13.461-13.46"/>
	<path fill="none" stroke="#C01718" stroke-width="0.72" stroke-linejoin="round" stroke-miterlimit="10" d="M618.701,97.597
		l13.462-13.461 M632.163,97.597l-13.462-13.461"/>
	<g>
		<defs>
			<rect id="SVGID_3_" x="81.244" y="28.046" width="545.842" height="402.573"/>
		</defs>
		<clipPath id="SVGID_4_">
			<use xlink:href="#SVGID_3_"  overflow="visible"/>
		</clipPath>
		
			<line clip-path="url(#SVGID_4_)" fill="none" stroke="#7F7F7F" stroke-width="1.5" stroke-linecap="round" stroke-linejoin="round" stroke-miterlimit="10" stroke-dasharray="4.5,6" x1="-578.994" y1="128.419" x2="1363.566" y2="128.419"/>
		
			<line clip-path="url(#SVGID_4_)" fill="none" stroke="#71AE48" stroke-width="1.5" stroke-linecap="round" stroke-linejoin="round" stroke-miterlimit="10" x1="458.332" y1="629.223" x2="458.332" y2="-238.836"/>
	</g>
	
		<line fill="none" stroke="#673A8E" stroke-width="1.5" stroke-linecap="round" stroke-linejoin="round" stroke-miterlimit="10" x1="431.137" y1="160.254" x2="469.989" y2="113.959"/>
	<path fill="none" stroke="#673A8E" stroke-width="0.72" stroke-linejoin="round" stroke-miterlimit="10" d="M420.619,160.101
		h21.154 M431.196,149.521v21.156"/>
	<path fill="none" stroke="#673A8E" stroke-width="0.72" stroke-linejoin="round" stroke-miterlimit="10" d="M459.403,113.945
		h21.154 M469.98,103.367v21.154"/>
	<g>
		<defs>
			<rect id="SVGID_5_" x="81.244" y="28.046" width="543.918" height="400.647"/>
		</defs>
		<clipPath id="SVGID_6_">
			<use xlink:href="#SVGID_5_"  overflow="visible"/>
		</clipPath>
		
			<line clip-path="url(#SVGID_6_)" fill="none" stroke="#1770B7" stroke-width="1.5" stroke-linecap="round" stroke-linejoin="round" stroke-miterlimit="10" stroke-dasharray="0,3" x1="81.477" y1="576.914" x2="586.542" y2="-24.929"/>
	</g>
	<g>
		<path d="M55.76,428.334c0-1.573,0.162-2.84,0.486-3.799s0.805-1.699,1.443-2.22c0.638-0.521,1.441-0.78,2.41-0.78
			c0.714,0,1.34,0.144,1.879,0.431c0.539,0.288,0.983,0.702,1.334,1.244c0.351,0.541,0.626,1.201,0.826,1.979
			s0.299,1.826,0.299,3.146c0,1.561-0.16,2.821-0.481,3.78s-0.8,1.7-1.439,2.224c-0.638,0.523-1.445,0.785-2.419,0.785
			c-1.283,0-2.291-0.459-3.022-1.379C56.199,432.637,55.76,430.833,55.76,428.334z M57.439,428.334c0,2.185,0.256,3.639,0.767,4.361
			c0.511,0.724,1.142,1.085,1.893,1.085s1.381-0.363,1.893-1.09c0.511-0.726,0.767-2.179,0.767-4.356
			c0-2.19-0.256-3.646-0.767-4.366c-0.511-0.721-1.148-1.08-1.911-1.08c-0.75,0-1.35,0.317-1.797,0.953
			C57.721,424.651,57.439,426.149,57.439,428.334z"/>
	</g>
	<g>
		<path d="M61.914,368.124H60.28v-10.411c-0.394,0.375-0.909,0.75-1.548,1.125c-0.638,0.375-1.211,0.657-1.72,0.845v-1.58
			c0.914-0.43,1.712-0.95,2.396-1.561c0.684-0.611,1.168-1.205,1.453-1.779h1.053V368.124z"/>
	</g>
	<g>
		<path d="M64.347,299.775v1.57h-8.795c-0.012-0.393,0.051-0.771,0.19-1.135c0.224-0.599,0.583-1.189,1.076-1.77
			s1.206-1.252,2.138-2.015c1.446-1.186,2.423-2.125,2.932-2.818c0.509-0.693,0.763-1.348,0.763-1.965
			c0-0.647-0.231-1.193-0.694-1.638s-1.066-0.667-1.811-0.667c-0.787,0-1.416,0.236-1.888,0.708
			c-0.472,0.472-0.711,1.125-0.717,1.961l-1.679-0.172c0.115-1.253,0.547-2.208,1.298-2.864c0.75-0.656,1.758-0.985,3.023-0.985
			c1.276,0,2.287,0.354,3.032,1.062c0.744,0.708,1.116,1.586,1.116,2.633c0,0.532-0.109,1.056-0.327,1.57
			c-0.218,0.514-0.58,1.056-1.085,1.625c-0.505,0.569-1.345,1.35-2.519,2.342c-0.98,0.823-1.61,1.381-1.888,1.674
			c-0.278,0.294-0.508,0.589-0.69,0.885H64.347z"/>
	</g>
	<g>
		<path d="M55.769,231.058l1.634-0.218c0.188,0.926,0.507,1.593,0.958,2.002c0.451,0.408,1,0.612,1.647,0.612
			c0.769,0,1.417-0.266,1.947-0.799c0.529-0.532,0.794-1.192,0.794-1.979c0-0.75-0.245-1.369-0.735-1.856
			c-0.49-0.487-1.114-0.73-1.87-0.73c-0.309,0-0.693,0.061-1.153,0.181l0.182-1.434c0.109,0.012,0.197,0.018,0.263,0.018
			c0.696,0,1.322-0.181,1.879-0.544s0.835-0.923,0.835-1.679c0-0.599-0.203-1.095-0.608-1.489c-0.405-0.393-0.929-0.59-1.57-0.59
			c-0.635,0-1.165,0.2-1.588,0.599c-0.424,0.399-0.696,0.999-0.817,1.797l-1.634-0.29c0.2-1.095,0.654-1.944,1.362-2.546
			s1.588-0.903,2.642-0.903c0.726,0,1.395,0.156,2.006,0.468s1.079,0.737,1.402,1.275s0.486,1.11,0.486,1.715
			c0,0.575-0.154,1.099-0.463,1.57c-0.309,0.472-0.766,0.848-1.371,1.125c0.787,0.182,1.397,0.559,1.833,1.13
			c0.436,0.572,0.653,1.288,0.653,2.146c0,1.162-0.423,2.147-1.271,2.955c-0.848,0.808-1.918,1.211-3.213,1.211
			c-1.168,0-2.138-0.348-2.909-1.044C56.318,233.067,55.878,232.166,55.769,231.058z"/>
	</g>
	<g>
		<path d="M60.998,167.796v-3.186h-5.773v-1.498l6.073-8.624h1.334v8.624h1.797v1.498h-1.797v3.186H60.998z M60.998,163.113v-6
			l-4.167,6H60.998z"/>
	</g>
	<g>
		<path d="M55.76,97.533l1.716-0.145c0.127,0.835,0.422,1.463,0.885,1.883c0.463,0.421,1.021,0.631,1.675,0.631
			c0.787,0,1.453-0.296,1.997-0.889c0.544-0.593,0.817-1.38,0.817-2.36c0-0.932-0.262-1.667-0.785-2.206s-1.209-0.808-2.056-0.808
			c-0.526,0-1.001,0.12-1.425,0.359c-0.424,0.239-0.757,0.549-0.999,0.93l-1.534-0.2l1.289-6.835h6.617v1.561h-5.31l-0.717,3.577
			c0.799-0.557,1.637-0.835,2.515-0.835c1.162,0,2.142,0.403,2.941,1.208s1.198,1.84,1.198,3.104c0,1.204-0.351,2.245-1.053,3.123
			c-0.853,1.077-2.018,1.616-3.495,1.616c-1.21,0-2.198-0.339-2.964-1.017S55.869,98.653,55.76,97.533z"/>
	</g>
	<g>
		<path d="M64.238,24.194l-1.625,0.127c-0.146-0.641-0.351-1.107-0.617-1.398c-0.442-0.466-0.987-0.699-1.634-0.699
			c-0.521,0-0.977,0.145-1.371,0.436c-0.514,0.375-0.92,0.923-1.216,1.643s-0.451,1.746-0.463,3.077
			c0.394-0.599,0.875-1.044,1.443-1.334s1.165-0.436,1.788-0.436c1.089,0,2.017,0.401,2.782,1.203s1.148,1.838,1.148,3.109
			c0,0.835-0.18,1.611-0.54,2.328c-0.36,0.717-0.855,1.267-1.484,1.648c-0.629,0.381-1.343,0.572-2.142,0.572
			c-1.362,0-2.472-0.501-3.332-1.502s-1.289-2.652-1.289-4.952c0-2.572,0.475-4.441,1.425-5.609c0.829-1.017,1.945-1.525,3.35-1.525
			c1.047,0,1.905,0.294,2.573,0.881S64.105,23.159,64.238,24.194z M57.566,29.931c0,0.563,0.119,1.101,0.358,1.616
			c0.239,0.514,0.573,0.906,1.003,1.175c0.43,0.27,0.88,0.404,1.353,0.404c0.69,0,1.283-0.278,1.779-0.835
			c0.496-0.557,0.744-1.313,0.744-2.269c0-0.92-0.245-1.645-0.735-2.174c-0.49-0.529-1.107-0.794-1.852-0.794
			c-0.738,0-1.365,0.265-1.879,0.794C57.823,28.377,57.566,29.072,57.566,29.931z"/>
	</g>
	<g>
		<path d="M77.995,457.15h-1.634v-10.411c-0.394,0.375-0.909,0.75-1.548,1.125c-0.638,0.375-1.211,0.657-1.72,0.845v-1.58
			c0.914-0.43,1.712-0.95,2.396-1.561c0.684-0.611,1.168-1.205,1.453-1.779h1.053V457.15z"/>
		<path d="M82.214,445.586v-1.57h8.614v1.271c-0.847,0.902-1.687,2.101-2.519,3.595c-0.832,1.495-1.475,3.032-1.929,4.611
			c-0.327,1.113-0.536,2.333-0.626,3.658h-1.679c0.018-1.047,0.224-2.312,0.617-3.794c0.394-1.482,0.958-2.912,1.693-4.289
			c0.735-1.377,1.518-2.537,2.347-3.481H82.214z"/>
	</g>
	<g>
		<path d="M155.701,457.15h-1.634v-10.411c-0.394,0.375-0.909,0.75-1.548,1.125c-0.638,0.375-1.211,0.657-1.72,0.845v-1.58
			c0.914-0.43,1.712-0.95,2.396-1.561c0.684-0.611,1.168-1.205,1.453-1.779h1.053V457.15z"/>
		<path d="M160.056,454.073l1.57-0.146c0.133,0.738,0.387,1.274,0.763,1.606c0.375,0.333,0.856,0.5,1.443,0.5
			c0.502,0,0.942-0.115,1.32-0.346c0.378-0.229,0.688-0.536,0.931-0.921c0.242-0.384,0.445-0.903,0.608-1.557
			c0.164-0.653,0.245-1.319,0.245-1.997c0-0.072-0.003-0.182-0.009-0.327c-0.327,0.521-0.773,0.943-1.339,1.267
			c-0.566,0.324-1.179,0.485-1.838,0.485c-1.102,0-2.033-0.399-2.795-1.198c-0.763-0.799-1.144-1.852-1.144-3.158
			c0-1.35,0.398-2.436,1.194-3.259c0.795-0.823,1.792-1.234,2.991-1.234c0.865,0,1.657,0.232,2.374,0.698
			c0.717,0.467,1.262,1.131,1.634,1.993s0.558,2.11,0.558,3.744c0,1.7-0.185,3.055-0.554,4.062
			c-0.369,1.008-0.918,1.775-1.647,2.302c-0.729,0.526-1.584,0.789-2.564,0.789c-1.041,0-1.891-0.288-2.551-0.866
			S160.189,455.12,160.056,454.073z M166.746,448.2c0-0.938-0.25-1.683-0.749-2.233c-0.499-0.55-1.1-0.825-1.802-0.825
			c-0.726,0-1.358,0.296-1.897,0.89c-0.539,0.593-0.808,1.361-0.808,2.306c0,0.847,0.256,1.535,0.767,2.064s1.142,0.794,1.893,0.794
			c0.756,0,1.378-0.265,1.865-0.794C166.502,449.872,166.746,449.139,166.746,448.2z"/>
	</g>
	<g>
		<path d="M235.839,455.58v1.57h-8.795c-0.012-0.394,0.051-0.771,0.19-1.135c0.224-0.599,0.583-1.189,1.076-1.77
			c0.493-0.581,1.206-1.253,2.138-2.016c1.446-1.186,2.423-2.125,2.932-2.818c0.509-0.693,0.763-1.348,0.763-1.965
			c0-0.647-0.231-1.194-0.694-1.639c-0.463-0.445-1.066-0.667-1.811-0.667c-0.787,0-1.416,0.235-1.888,0.708
			c-0.472,0.472-0.711,1.125-0.717,1.96l-1.679-0.172c0.115-1.253,0.547-2.207,1.298-2.864c0.75-0.656,1.758-0.984,3.023-0.984
			c1.276,0,2.287,0.354,3.032,1.062c0.744,0.708,1.116,1.586,1.116,2.633c0,0.532-0.109,1.056-0.327,1.57s-0.58,1.056-1.085,1.625
			c-0.505,0.568-1.345,1.35-2.519,2.342c-0.98,0.823-1.61,1.381-1.888,1.675c-0.278,0.293-0.508,0.588-0.69,0.885H235.839z"/>
		<path d="M243.671,457.15h-1.634v-10.411c-0.394,0.375-0.909,0.75-1.548,1.125c-0.638,0.375-1.211,0.657-1.72,0.845v-1.58
			c0.914-0.43,1.712-0.95,2.396-1.561c0.684-0.611,1.168-1.205,1.453-1.779h1.053V457.15z"/>
	</g>
	<g>
		<path d="M313.547,455.58v1.57h-8.795c-0.012-0.394,0.051-0.771,0.19-1.135c0.224-0.599,0.583-1.189,1.076-1.77
			c0.493-0.581,1.206-1.253,2.138-2.016c1.446-1.186,2.423-2.125,2.932-2.818c0.509-0.693,0.763-1.348,0.763-1.965
			c0-0.647-0.231-1.194-0.694-1.639c-0.463-0.445-1.066-0.667-1.811-0.667c-0.787,0-1.416,0.235-1.888,0.708
			c-0.472,0.472-0.711,1.125-0.717,1.96l-1.679-0.172c0.115-1.253,0.547-2.207,1.298-2.864c0.75-0.656,1.758-0.984,3.023-0.984
			c1.276,0,2.287,0.354,3.032,1.062c0.744,0.708,1.116,1.586,1.116,2.633c0,0.532-0.109,1.056-0.327,1.57s-0.58,1.056-1.085,1.625
			c-0.505,0.568-1.345,1.35-2.519,2.342c-0.98,0.823-1.61,1.381-1.888,1.675c-0.278,0.293-0.508,0.588-0.69,0.885H313.547z"/>
		<path d="M315.234,453.638l1.634-0.218c0.188,0.926,0.507,1.593,0.958,2.001c0.451,0.409,1,0.613,1.647,0.613
			c0.769,0,1.417-0.267,1.947-0.799c0.529-0.532,0.794-1.192,0.794-1.979c0-0.75-0.245-1.369-0.735-1.855
			c-0.49-0.487-1.114-0.731-1.87-0.731c-0.309,0-0.693,0.061-1.153,0.182l0.182-1.434c0.109,0.012,0.197,0.018,0.263,0.018
			c0.696,0,1.322-0.182,1.879-0.544c0.557-0.363,0.835-0.923,0.835-1.68c0-0.6-0.203-1.096-0.608-1.488
			c-0.405-0.394-0.929-0.591-1.57-0.591c-0.635,0-1.165,0.2-1.588,0.6c-0.424,0.399-0.696,0.998-0.817,1.797l-1.634-0.29
			c0.2-1.096,0.654-1.944,1.362-2.546c0.708-0.603,1.588-0.903,2.642-0.903c0.726,0,1.395,0.155,2.006,0.467
			c0.611,0.313,1.079,0.737,1.402,1.275c0.324,0.539,0.486,1.111,0.486,1.716c0,0.575-0.154,1.099-0.463,1.57
			s-0.766,0.848-1.371,1.126c0.787,0.182,1.397,0.558,1.833,1.13c0.436,0.572,0.653,1.287,0.653,2.146
			c0,1.162-0.423,2.147-1.271,2.955c-0.848,0.808-1.918,1.212-3.213,1.212c-1.168,0-2.138-0.349-2.909-1.044
			C315.783,455.646,315.343,454.745,315.234,453.638z"/>
	</g>
	<g>
		<path d="M391.252,455.58v1.57h-8.796c-0.012-0.394,0.052-0.771,0.19-1.135c0.225-0.599,0.583-1.189,1.076-1.77
			c0.493-0.581,1.206-1.253,2.138-2.016c1.446-1.186,2.424-2.125,2.932-2.818c0.509-0.693,0.763-1.348,0.763-1.965
			c0-0.647-0.231-1.194-0.694-1.639c-0.463-0.445-1.066-0.667-1.811-0.667c-0.787,0-1.416,0.235-1.889,0.708
			c-0.472,0.472-0.711,1.125-0.717,1.96l-1.68-0.172c0.115-1.253,0.548-2.207,1.299-2.864c0.75-0.656,1.758-0.984,3.022-0.984
			c1.276,0,2.287,0.354,3.031,1.062c0.745,0.708,1.117,1.586,1.117,2.633c0,0.532-0.109,1.056-0.327,1.57s-0.579,1.056-1.085,1.625
			c-0.505,0.568-1.345,1.35-2.519,2.342c-0.98,0.823-1.61,1.381-1.889,1.675c-0.278,0.293-0.508,0.588-0.689,0.885H391.252z"/>
		<path d="M392.93,453.665l1.716-0.146c0.127,0.835,0.422,1.463,0.885,1.884c0.463,0.42,1.021,0.631,1.675,0.631
			c0.787,0,1.452-0.297,1.997-0.89s0.817-1.38,0.817-2.36c0-0.932-0.263-1.667-0.786-2.206c-0.523-0.538-1.208-0.808-2.056-0.808
			c-0.526,0-1.001,0.12-1.425,0.358c-0.424,0.239-0.757,0.55-0.999,0.931l-1.533-0.199l1.288-6.836h6.618v1.562h-5.311l-0.717,3.576
			c0.799-0.557,1.637-0.835,2.514-0.835c1.162,0,2.143,0.402,2.941,1.207c0.799,0.806,1.198,1.84,1.198,3.104
			c0,1.205-0.352,2.245-1.053,3.123c-0.854,1.077-2.019,1.615-3.495,1.615c-1.21,0-2.198-0.339-2.964-1.017
			S393.039,454.784,392.93,453.665z"/>
	</g>
	<g>
		<path d="M468.959,455.58v1.57h-8.796c-0.012-0.394,0.052-0.771,0.19-1.135c0.225-0.599,0.583-1.189,1.076-1.77
			c0.493-0.581,1.206-1.253,2.138-2.016c1.446-1.186,2.424-2.125,2.932-2.818c0.509-0.693,0.763-1.348,0.763-1.965
			c0-0.647-0.231-1.194-0.694-1.639c-0.463-0.445-1.066-0.667-1.811-0.667c-0.787,0-1.416,0.235-1.889,0.708
			c-0.472,0.472-0.711,1.125-0.717,1.96l-1.68-0.172c0.115-1.253,0.548-2.207,1.299-2.864c0.75-0.656,1.758-0.984,3.022-0.984
			c1.276,0,2.287,0.354,3.031,1.062c0.745,0.708,1.117,1.586,1.117,2.633c0,0.532-0.109,1.056-0.327,1.57s-0.579,1.056-1.085,1.625
			c-0.505,0.568-1.345,1.35-2.519,2.342c-0.98,0.823-1.61,1.381-1.889,1.675c-0.278,0.293-0.508,0.588-0.689,0.885H468.959z"/>
		<path d="M470.746,445.586v-1.57h8.614v1.271c-0.848,0.902-1.688,2.101-2.52,3.595c-0.832,1.495-1.475,3.032-1.929,4.611
			c-0.327,1.113-0.535,2.333-0.626,3.658h-1.68c0.019-1.047,0.224-2.312,0.617-3.794s0.958-2.912,1.693-4.289
			s1.517-2.537,2.346-3.481H470.746z"/>
	</g>
	<g>
		<path d="M546.665,455.58v1.57h-8.796c-0.012-0.394,0.052-0.771,0.19-1.135c0.225-0.599,0.583-1.189,1.076-1.77
			c0.493-0.581,1.206-1.253,2.138-2.016c1.446-1.186,2.424-2.125,2.932-2.818c0.509-0.693,0.763-1.348,0.763-1.965
			c0-0.647-0.231-1.194-0.694-1.639c-0.463-0.445-1.066-0.667-1.811-0.667c-0.787,0-1.416,0.235-1.889,0.708
			c-0.472,0.472-0.711,1.125-0.717,1.96l-1.68-0.172c0.115-1.253,0.548-2.207,1.299-2.864c0.75-0.656,1.758-0.984,3.022-0.984
			c1.276,0,2.287,0.354,3.031,1.062c0.745,0.708,1.117,1.586,1.117,2.633c0,0.532-0.109,1.056-0.327,1.57s-0.579,1.056-1.085,1.625
			c-0.505,0.568-1.345,1.35-2.519,2.342c-0.98,0.823-1.61,1.381-1.889,1.675c-0.278,0.293-0.508,0.588-0.689,0.885H546.665z"/>
		<path d="M548.588,454.073l1.57-0.146c0.133,0.738,0.388,1.274,0.763,1.606c0.375,0.333,0.856,0.5,1.443,0.5
			c0.502,0,0.942-0.115,1.32-0.346c0.378-0.229,0.688-0.536,0.931-0.921c0.242-0.384,0.444-0.903,0.608-1.557
			c0.163-0.653,0.245-1.319,0.245-1.997c0-0.072-0.003-0.182-0.01-0.327c-0.326,0.521-0.772,0.943-1.339,1.267
			c-0.565,0.324-1.179,0.485-1.838,0.485c-1.102,0-2.033-0.399-2.796-1.198s-1.144-1.852-1.144-3.158
			c0-1.35,0.397-2.436,1.193-3.259s1.793-1.234,2.991-1.234c0.865,0,1.656,0.232,2.374,0.698c0.717,0.467,1.262,1.131,1.634,1.993
			s0.559,2.11,0.559,3.744c0,1.7-0.186,3.055-0.554,4.062c-0.37,1.008-0.919,1.775-1.648,2.302
			c-0.729,0.526-1.584,0.789-2.563,0.789c-1.041,0-1.892-0.288-2.551-0.866C549.117,455.933,548.721,455.12,548.588,454.073z
			 M555.277,448.2c0-0.938-0.249-1.683-0.748-2.233c-0.5-0.55-1.101-0.825-1.802-0.825c-0.727,0-1.359,0.296-1.897,0.89
			c-0.539,0.593-0.808,1.361-0.808,2.306c0,0.847,0.255,1.535,0.767,2.064s1.143,0.794,1.893,0.794c0.757,0,1.378-0.265,1.865-0.794
			S555.277,449.139,555.277,448.2z"/>
	</g>
	<g>
		<path d="M615.793,453.638l1.634-0.218c0.188,0.926,0.507,1.593,0.958,2.001c0.451,0.409,1,0.613,1.647,0.613
			c0.769,0,1.418-0.267,1.947-0.799s0.794-1.192,0.794-1.979c0-0.75-0.245-1.369-0.735-1.855c-0.49-0.487-1.113-0.731-1.869-0.731
			c-0.309,0-0.693,0.061-1.153,0.182l0.182-1.434c0.109,0.012,0.196,0.018,0.264,0.018c0.695,0,1.321-0.182,1.879-0.544
			c0.557-0.363,0.835-0.923,0.835-1.68c0-0.6-0.203-1.096-0.608-1.488c-0.405-0.394-0.929-0.591-1.57-0.591
			c-0.636,0-1.165,0.2-1.589,0.6c-0.423,0.399-0.695,0.998-0.816,1.797l-1.634-0.29c0.199-1.096,0.653-1.944,1.361-2.546
			c0.708-0.603,1.589-0.903,2.642-0.903c0.726,0,1.395,0.155,2.006,0.467c0.611,0.313,1.079,0.737,1.402,1.275
			c0.324,0.539,0.485,1.111,0.485,1.716c0,0.575-0.154,1.099-0.463,1.57s-0.766,0.848-1.37,1.126
			c0.786,0.182,1.397,0.558,1.833,1.13c0.437,0.572,0.654,1.287,0.654,2.146c0,1.162-0.424,2.147-1.271,2.955
			c-0.847,0.808-1.918,1.212-3.213,1.212c-1.168,0-2.138-0.349-2.909-1.044C616.343,455.646,615.902,454.745,615.793,453.638z"/>
		<path d="M632.203,457.15h-1.634v-10.411c-0.394,0.375-0.909,0.75-1.548,1.125s-1.212,0.657-1.72,0.845v-1.58
			c0.913-0.43,1.712-0.95,2.396-1.561c0.684-0.611,1.168-1.205,1.452-1.779h1.053V457.15z"/>
	</g>
	<g>
		<path d="M43.101,293.667H29.794v-1.761h6.599l-6.599-6.608v-2.387l5.392,5.583l7.916-5.828v2.324l-6.735,4.738l2.124,2.179h4.611
			V293.667z"/>
		<path d="M39.997,274.712l0.209-1.688c0.986,0.266,1.752,0.759,2.296,1.479s0.817,1.64,0.817,2.759c0,1.41-0.434,2.528-1.303,3.354
			c-0.868,0.826-2.086,1.239-3.653,1.239c-1.622,0-2.88-0.417-3.776-1.253c-0.896-0.835-1.343-1.918-1.343-3.25
			c0-1.289,0.439-2.342,1.316-3.159s2.112-1.226,3.703-1.226c0.097,0,0.242,0.003,0.436,0.009v7.189
			c1.059-0.061,1.87-0.36,2.433-0.898s0.844-1.21,0.844-2.015c0-0.599-0.157-1.111-0.472-1.534
			C41.189,275.296,40.687,274.96,39.997,274.712z M37.355,280.077v-5.383c-0.811,0.073-1.419,0.278-1.824,0.617
			c-0.629,0.521-0.944,1.195-0.944,2.024c0,0.75,0.251,1.381,0.753,1.893C35.842,279.739,36.514,280.022,37.355,280.077z"/>
		<path d="M46.813,271.119l-1.534,0.182c0.097-0.357,0.145-0.668,0.145-0.935c0-0.363-0.061-0.653-0.182-0.872
			c-0.121-0.218-0.291-0.396-0.508-0.535c-0.163-0.103-0.569-0.27-1.216-0.5c-0.091-0.03-0.224-0.079-0.399-0.145l-9.658,3.658
			v-1.761l5.583-2.006c0.708-0.26,1.453-0.493,2.233-0.699c-0.75-0.188-1.482-0.411-2.196-0.671l-5.619-2.061v-1.634l9.804,3.667
			c1.059,0.394,1.788,0.699,2.188,0.917c0.539,0.291,0.933,0.624,1.185,0.999c0.251,0.375,0.376,0.823,0.376,1.344
			C47.013,270.381,46.947,270.732,46.813,271.119z"/>
		<path d="M43.101,250.054h-1.216c0.956,0.611,1.434,1.51,1.434,2.696c0,0.769-0.212,1.475-0.635,2.12s-1.015,1.144-1.775,1.498
			c-0.759,0.354-1.632,0.531-2.619,0.531c-0.962,0-1.835-0.161-2.619-0.481c-0.784-0.32-1.384-0.802-1.802-1.443
			c-0.417-0.642-0.626-1.359-0.626-2.151c0-0.581,0.123-1.099,0.368-1.552c0.245-0.454,0.564-0.823,0.958-1.107h-4.774v-1.625
			h13.307V250.054z M38.29,255.219c1.234,0,2.158-0.26,2.769-0.781c0.611-0.521,0.917-1.135,0.917-1.843
			c0-0.714-0.292-1.321-0.876-1.82c-0.584-0.5-1.475-0.749-2.673-0.749c-1.319,0-2.288,0.254-2.905,0.763s-0.926,1.134-0.926,1.879
			c0,0.726,0.296,1.333,0.89,1.82C36.079,254.975,37.013,255.219,38.29,255.219z"/>
		<path d="M39.997,239.444l0.209-1.688c0.986,0.266,1.752,0.759,2.296,1.479s0.817,1.64,0.817,2.759c0,1.41-0.434,2.528-1.303,3.354
			c-0.868,0.826-2.086,1.239-3.653,1.239c-1.622,0-2.88-0.417-3.776-1.253c-0.896-0.835-1.343-1.918-1.343-3.25
			c0-1.289,0.439-2.342,1.316-3.159s2.112-1.226,3.703-1.226c0.097,0,0.242,0.003,0.436,0.009v7.189
			c1.059-0.061,1.87-0.36,2.433-0.898s0.844-1.21,0.844-2.015c0-0.599-0.157-1.111-0.472-1.534
			C41.189,240.028,40.687,239.692,39.997,239.444z M37.355,244.809v-5.383c-0.811,0.073-1.419,0.278-1.824,0.617
			c-0.629,0.521-0.944,1.195-0.944,2.024c0,0.75,0.251,1.381,0.753,1.893C35.842,244.471,36.514,244.754,37.355,244.809z"/>
		<path d="M46.795,235.778H33.461v-1.488h1.253c-0.49-0.351-0.858-0.748-1.103-1.189c-0.245-0.441-0.368-0.977-0.368-1.606
			c0-0.823,0.212-1.549,0.635-2.179c0.424-0.629,1.021-1.104,1.793-1.425s1.617-0.481,2.537-0.481c0.986,0,1.875,0.177,2.664,0.531
			s1.395,0.868,1.815,1.543s0.631,1.384,0.631,2.128c0,0.545-0.115,1.034-0.345,1.466s-0.521,0.788-0.872,1.066h4.693V235.778z
			 M38.335,234.299c1.241,0,2.158-0.251,2.75-0.753c0.593-0.502,0.89-1.11,0.89-1.824c0-0.727-0.307-1.348-0.921-1.866
			c-0.614-0.517-1.566-0.776-2.855-0.776c-1.228,0-2.148,0.252-2.759,0.758s-0.917,1.109-0.917,1.811
			c0,0.696,0.326,1.312,0.976,1.847S37.095,234.299,38.335,234.299z"/>
		<path d="M41.64,221.946l1.443-0.236c0.097,0.46,0.145,0.872,0.145,1.234c0,0.593-0.094,1.053-0.281,1.38s-0.434,0.557-0.74,0.69
			s-0.949,0.2-1.929,0.2h-5.546v1.198h-1.271v-1.198h-2.387l-0.98-1.625h3.368v-1.643h1.271v1.643h5.637
			c0.466,0,0.766-0.028,0.899-0.086s0.239-0.151,0.317-0.282c0.079-0.13,0.118-0.316,0.118-0.558
			C41.703,222.482,41.682,222.243,41.64,221.946z"/>
		<path d="M43.101,220.367H29.794v-1.634h4.774c-0.883-0.762-1.325-1.725-1.325-2.887c0-0.714,0.141-1.334,0.422-1.861
			c0.281-0.526,0.67-0.903,1.166-1.13c0.497-0.227,1.216-0.34,2.161-0.34h6.109v1.634h-6.109c-0.817,0-1.412,0.177-1.784,0.531
			s-0.558,0.854-0.558,1.502c0,0.484,0.125,0.939,0.376,1.366c0.251,0.427,0.592,0.731,1.021,0.912
			c0.43,0.182,1.023,0.272,1.779,0.272h5.274V220.367z"/>
		<path d="M47.013,201.221c-1.138,0.902-2.469,1.665-3.994,2.288c-1.525,0.624-3.104,0.935-4.738,0.935
			c-1.44,0-2.82-0.233-4.139-0.699c-1.531-0.544-3.056-1.386-4.575-2.523v-1.171c1.259,0.732,2.157,1.216,2.696,1.453
			c0.835,0.369,1.707,0.66,2.614,0.871c1.132,0.26,2.27,0.391,3.413,0.391c2.911,0,5.819-0.905,8.723-2.714V201.221z"/>
		<path d="M43.101,198.246h-9.64v-1.461h1.353c-0.472-0.302-0.852-0.705-1.139-1.207c-0.287-0.502-0.431-1.074-0.431-1.716
			c0-0.714,0.148-1.299,0.445-1.756c0.296-0.457,0.711-0.779,1.244-0.967c-1.125-0.762-1.688-1.755-1.688-2.977
			c0-0.956,0.265-1.691,0.794-2.206c0.529-0.514,1.345-0.771,2.446-0.771h6.617v1.625h-6.073c-0.653,0-1.124,0.053-1.412,0.159
			c-0.287,0.106-0.519,0.298-0.694,0.577c-0.175,0.278-0.263,0.605-0.263,0.98c0,0.678,0.226,1.241,0.676,1.688
			c0.451,0.448,1.172,0.672,2.165,0.672h5.601v1.634h-6.263c-0.726,0-1.271,0.133-1.634,0.399c-0.363,0.266-0.545,0.702-0.545,1.307
			c0,0.46,0.121,0.885,0.363,1.275c0.242,0.39,0.596,0.673,1.062,0.849c0.466,0.176,1.138,0.263,2.015,0.263h5.001V198.246z"/>
		<path d="M43.101,182.555h-9.64v-1.461h1.353c-0.472-0.302-0.852-0.705-1.139-1.207c-0.287-0.502-0.431-1.074-0.431-1.716
			c0-0.714,0.148-1.299,0.445-1.756c0.296-0.457,0.711-0.779,1.244-0.967c-1.125-0.762-1.688-1.755-1.688-2.977
			c0-0.956,0.265-1.691,0.794-2.206c0.529-0.514,1.345-0.771,2.446-0.771h6.617v1.625h-6.073c-0.653,0-1.124,0.053-1.412,0.159
			c-0.287,0.106-0.519,0.298-0.694,0.577c-0.175,0.278-0.263,0.605-0.263,0.98c0,0.678,0.226,1.241,0.676,1.688
			c0.451,0.448,1.172,0.672,2.165,0.672h5.601v1.634h-6.263c-0.726,0-1.271,0.133-1.634,0.399c-0.363,0.266-0.545,0.702-0.545,1.307
			c0,0.46,0.121,0.885,0.363,1.275c0.242,0.39,0.596,0.673,1.062,0.849c0.466,0.176,1.138,0.263,2.015,0.263h5.001V182.555z"/>
		<path d="M47.013,165.794v1.171c-2.904-1.81-5.812-2.714-8.723-2.714c-1.138,0-2.266,0.13-3.386,0.391
			c-0.908,0.206-1.779,0.493-2.614,0.862c-0.544,0.236-1.452,0.723-2.723,1.461v-1.171c1.519-1.138,3.044-1.979,4.575-2.523
			c1.319-0.466,2.699-0.699,4.139-0.699c1.634,0,3.213,0.313,4.738,0.939C44.544,164.138,45.875,164.899,47.013,165.794z"/>
	</g>
	<g>
		<path d="M328.041,486.71v-13.308h8.978v1.57h-7.216v4.121h6.245v1.57h-6.245v6.046H328.041z"/>
		<path d="M338.949,486.71v-9.64h1.471v1.461c0.375-0.684,0.722-1.135,1.04-1.353c0.317-0.218,0.667-0.326,1.048-0.326
			c0.55,0,1.11,0.175,1.679,0.526l-0.563,1.516c-0.399-0.236-0.799-0.354-1.198-0.354c-0.357,0-0.678,0.108-0.962,0.322
			c-0.285,0.215-0.487,0.514-0.608,0.895c-0.181,0.581-0.272,1.217-0.272,1.906v5.047H338.949z"/>
		<path d="M351.355,485.521c-0.605,0.515-1.188,0.878-1.748,1.09s-1.161,0.317-1.802,0.317c-1.059,0-1.873-0.259-2.442-0.776
			c-0.569-0.517-0.853-1.178-0.853-1.983c0-0.472,0.107-0.902,0.322-1.293c0.214-0.391,0.496-0.704,0.844-0.939
			c0.348-0.236,0.74-0.415,1.176-0.536c0.321-0.084,0.805-0.166,1.452-0.245c1.319-0.157,2.291-0.345,2.914-0.563
			c0.006-0.224,0.009-0.366,0.009-0.427c0-0.665-0.154-1.135-0.463-1.406c-0.417-0.369-1.038-0.554-1.861-0.554
			c-0.769,0-1.336,0.135-1.702,0.403c-0.366,0.27-0.637,0.746-0.813,1.43l-1.598-0.218c0.145-0.684,0.384-1.236,0.717-1.656
			c0.333-0.421,0.813-0.744,1.443-0.972c0.629-0.227,1.359-0.34,2.188-0.34c0.823,0,1.491,0.097,2.006,0.29
			c0.514,0.193,0.893,0.438,1.135,0.73c0.242,0.294,0.411,0.664,0.508,1.112c0.054,0.278,0.082,0.78,0.082,1.507v2.179
			c0,1.519,0.035,2.479,0.104,2.882c0.069,0.402,0.207,0.788,0.413,1.157h-1.707C351.513,486.371,351.404,485.975,351.355,485.521z
			 M351.219,481.872c-0.593,0.242-1.483,0.447-2.669,0.617c-0.671,0.097-1.146,0.206-1.425,0.326
			c-0.279,0.121-0.494,0.299-0.645,0.531c-0.151,0.233-0.227,0.492-0.227,0.776c0,0.436,0.165,0.799,0.495,1.089
			c0.33,0.291,0.813,0.436,1.448,0.436c0.629,0,1.189-0.137,1.679-0.412c0.49-0.275,0.85-0.652,1.081-1.131
			c0.175-0.369,0.263-0.913,0.263-1.634V481.872z"/>
		<path d="M355.33,486.71v-9.64h1.461v1.353c0.302-0.473,0.705-0.853,1.207-1.14s1.074-0.431,1.716-0.431
			c0.714,0,1.299,0.147,1.756,0.444c0.457,0.297,0.779,0.711,0.967,1.243c0.762-1.125,1.755-1.688,2.977-1.688
			c0.956,0,1.691,0.265,2.206,0.794c0.514,0.529,0.771,1.345,0.771,2.446v6.617h-1.625v-6.072c0-0.654-0.053-1.124-0.159-1.412
			c-0.106-0.287-0.298-0.519-0.577-0.694c-0.278-0.175-0.605-0.263-0.98-0.263c-0.678,0-1.241,0.226-1.688,0.676
			c-0.448,0.451-0.672,1.173-0.672,2.165v5.601h-1.634v-6.264c0-0.726-0.133-1.271-0.399-1.634
			c-0.266-0.362-0.702-0.544-1.307-0.544c-0.46,0-0.885,0.121-1.275,0.362c-0.39,0.242-0.673,0.597-0.849,1.063
			c-0.176,0.466-0.263,1.138-0.263,2.015v5.002H355.33z"/>
		<path d="M377.618,483.605l1.688,0.209c-0.267,0.986-0.76,1.752-1.479,2.297c-0.72,0.544-1.64,0.816-2.76,0.816
			c-1.41,0-2.527-0.434-3.354-1.303c-0.826-0.868-1.239-2.086-1.239-3.653c0-1.622,0.418-2.881,1.253-3.776s1.918-1.343,3.249-1.343
			c1.289,0,2.343,0.438,3.159,1.315c0.817,0.878,1.226,2.112,1.226,3.704c0,0.097-0.003,0.242-0.009,0.436h-7.189
			c0.061,1.059,0.36,1.87,0.898,2.433c0.539,0.563,1.211,0.844,2.016,0.844c0.599,0,1.11-0.157,1.534-0.472
			C377.034,484.798,377.37,484.296,377.618,483.605z M372.254,480.964h5.383c-0.072-0.811-0.278-1.419-0.617-1.824
			c-0.521-0.629-1.195-0.944-2.024-0.944c-0.75,0-1.381,0.251-1.893,0.754C372.591,479.451,372.309,480.123,372.254,480.964z"/>
	</g>
	
		<line fill="none" stroke="#C01718" stroke-linecap="round" stroke-linejoin="round" stroke-miterlimit="10" x1="171.943" y1="542.322" x2="239.25" y2="542.322"/>
	<path fill="none" stroke="#C01718" stroke-width="0.75" stroke-linejoin="round" stroke-miterlimit="10" d="M200.156,547.287
		l10.258-10.256 M210.414,547.287l-10.258-10.256"/>
	<g>
		<path d="M248.123,548.317V535.01h5.9c1.186,0,2.087,0.12,2.705,0.359c0.618,0.238,1.111,0.661,1.48,1.266
			c0.369,0.605,0.554,1.274,0.554,2.006c0,0.944-0.306,1.74-0.917,2.388s-1.555,1.06-2.832,1.234
			c0.466,0.225,0.82,0.445,1.062,0.663c0.514,0.472,1.001,1.062,1.461,1.77l2.314,3.622h-2.215l-1.761-2.769
			c-0.515-0.799-0.938-1.41-1.271-1.834c-0.333-0.423-0.631-0.72-0.894-0.89c-0.263-0.169-0.531-0.287-0.803-0.354
			c-0.2-0.042-0.526-0.063-0.98-0.063h-2.042v5.909H248.123z M249.884,540.883h3.786c0.805,0,1.434-0.083,1.888-0.249
			c0.454-0.167,0.799-0.433,1.035-0.799c0.236-0.366,0.354-0.764,0.354-1.194c0-0.629-0.229-1.146-0.686-1.552
			s-1.179-0.608-2.165-0.608h-4.212V540.883z"/>
		<path d="M260.723,543.497c0-1.785,0.496-3.107,1.489-3.967c0.829-0.714,1.839-1.07,3.032-1.07c1.325,0,2.408,0.434,3.25,1.302
			c0.841,0.869,1.262,2.068,1.262,3.6c0,1.24-0.186,2.216-0.558,2.928c-0.372,0.711-0.914,1.263-1.625,1.656s-1.487,0.59-2.328,0.59
			c-1.35,0-2.44-0.433-3.272-1.298S260.723,545.125,260.723,543.497z M262.402,543.497c0,1.234,0.27,2.159,0.808,2.773
			s1.216,0.921,2.033,0.921c0.811,0,1.485-0.309,2.024-0.926c0.539-0.617,0.808-1.558,0.808-2.822c0-1.192-0.271-2.096-0.813-2.71
			s-1.215-0.921-2.02-0.921c-0.817,0-1.495,0.306-2.033,0.916C262.671,541.34,262.402,542.263,262.402,543.497z"/>
		<path d="M271.856,548.317V535.01h1.634v13.308H271.856z"/>
		<path d="M276.005,548.317V535.01h1.634v13.308H276.005z"/>
		<path d="M280.218,536.89v-1.88h1.634v1.88H280.218z M280.218,548.317v-9.64h1.634v9.64H280.218z"/>
		<path d="M284.06,548.317v-9.64h1.47v1.37c0.708-1.059,1.731-1.588,3.068-1.588c0.581,0,1.115,0.104,1.602,0.313
			c0.487,0.209,0.852,0.482,1.094,0.821c0.242,0.34,0.412,0.742,0.508,1.208c0.061,0.303,0.091,0.832,0.091,1.588v5.928h-1.634
			v-5.864c0-0.665-0.063-1.163-0.191-1.493c-0.127-0.329-0.353-0.593-0.676-0.789c-0.324-0.197-0.703-0.295-1.139-0.295
			c-0.696,0-1.296,0.221-1.802,0.662c-0.505,0.442-0.758,1.28-0.758,2.515v5.265H284.06z"/>
		<path d="M294.322,549.116l1.588,0.236c0.067,0.49,0.251,0.847,0.554,1.07c0.406,0.303,0.959,0.454,1.661,0.454
			c0.757,0,1.34-0.151,1.752-0.454c0.412-0.302,0.69-0.726,0.835-1.271c0.084-0.333,0.124-1.031,0.118-2.097
			c-0.714,0.841-1.604,1.262-2.668,1.262c-1.325,0-2.351-0.478-3.077-1.435c-0.726-0.956-1.089-2.103-1.089-3.439
			c0-0.92,0.167-1.769,0.499-2.547c0.333-0.777,0.815-1.378,1.448-1.802c0.632-0.423,1.375-0.635,2.228-0.635
			c1.138,0,2.076,0.46,2.814,1.379v-1.161h1.507v8.333c0,1.5-0.153,2.563-0.458,3.19c-0.305,0.626-0.79,1.121-1.452,1.483
			c-0.663,0.363-1.478,0.545-2.446,0.545c-1.15,0-2.079-0.259-2.787-0.776C294.64,550.937,294.298,550.157,294.322,549.116z
			 M295.675,543.325c0,1.265,0.251,2.188,0.753,2.769s1.131,0.871,1.888,0.871c0.75,0,1.38-0.289,1.888-0.867
			c0.508-0.577,0.762-1.483,0.762-2.719c0-1.18-0.262-2.069-0.785-2.668c-0.523-0.6-1.154-0.898-1.893-0.898
			c-0.726,0-1.343,0.295-1.852,0.885S295.675,542.163,295.675,543.325z"/>
		<path d="M316.621,547.128c-0.605,0.515-1.188,0.878-1.748,1.09s-1.161,0.317-1.802,0.317c-1.059,0-1.873-0.259-2.442-0.776
			c-0.569-0.517-0.853-1.178-0.853-1.983c0-0.472,0.107-0.902,0.322-1.293c0.214-0.391,0.496-0.704,0.844-0.939
			c0.348-0.236,0.74-0.415,1.176-0.536c0.321-0.084,0.805-0.166,1.452-0.245c1.319-0.157,2.291-0.345,2.914-0.563
			c0.006-0.224,0.009-0.366,0.009-0.427c0-0.665-0.154-1.135-0.463-1.406c-0.417-0.369-1.038-0.554-1.861-0.554
			c-0.769,0-1.336,0.135-1.702,0.403c-0.366,0.27-0.637,0.746-0.813,1.43l-1.598-0.218c0.145-0.684,0.384-1.236,0.717-1.656
			c0.333-0.421,0.813-0.744,1.443-0.972c0.629-0.227,1.359-0.34,2.188-0.34c0.823,0,1.491,0.097,2.006,0.29
			c0.514,0.193,0.893,0.438,1.135,0.73c0.242,0.294,0.411,0.664,0.508,1.112c0.054,0.278,0.082,0.78,0.082,1.507v2.179
			c0,1.519,0.035,2.479,0.104,2.882c0.069,0.402,0.207,0.788,0.413,1.157h-1.707C316.778,547.979,316.669,547.582,316.621,547.128z
			 M316.485,543.479c-0.593,0.242-1.483,0.447-2.669,0.617c-0.671,0.097-1.146,0.206-1.425,0.326
			c-0.279,0.121-0.494,0.299-0.645,0.531c-0.151,0.233-0.227,0.492-0.227,0.776c0,0.436,0.165,0.799,0.495,1.089
			c0.33,0.291,0.813,0.436,1.448,0.436c0.629,0,1.189-0.137,1.679-0.412c0.49-0.275,0.85-0.652,1.081-1.131
			c0.175-0.369,0.263-0.913,0.263-1.634V543.479z"/>
		<path d="M323.273,548.317l-3.667-9.64h1.725l2.07,5.772c0.224,0.624,0.43,1.271,0.617,1.942c0.146-0.508,0.348-1.119,0.608-1.833
			l2.142-5.882h1.679l-3.649,9.64H323.273z"/>
		<path d="M336.489,545.213l1.688,0.209c-0.266,0.986-0.759,1.752-1.479,2.297c-0.72,0.544-1.64,0.816-2.759,0.816
			c-1.41,0-2.528-0.434-3.354-1.303c-0.826-0.868-1.239-2.086-1.239-3.653c0-1.622,0.417-2.881,1.253-3.776
			c0.835-0.896,1.918-1.343,3.25-1.343c1.289,0,2.342,0.438,3.159,1.315c0.817,0.878,1.226,2.112,1.226,3.704
			c0,0.097-0.003,0.242-0.009,0.436h-7.189c0.061,1.059,0.36,1.87,0.898,2.433s1.21,0.844,2.015,0.844
			c0.599,0,1.111-0.157,1.534-0.472C335.905,546.405,336.241,545.903,336.489,545.213z M331.125,542.571h5.383
			c-0.073-0.811-0.278-1.419-0.617-1.824c-0.521-0.629-1.195-0.944-2.024-0.944c-0.75,0-1.381,0.251-1.893,0.754
			C331.462,541.059,331.179,541.73,331.125,542.571z"/>
		<path d="M340.434,548.317v-9.64h1.471v1.461c0.375-0.684,0.722-1.135,1.04-1.353c0.317-0.218,0.667-0.326,1.048-0.326
			c0.55,0,1.11,0.175,1.679,0.526l-0.563,1.516c-0.399-0.236-0.799-0.354-1.198-0.354c-0.357,0-0.678,0.108-0.962,0.322
			c-0.285,0.215-0.487,0.514-0.608,0.895c-0.181,0.581-0.272,1.217-0.272,1.906v5.047H340.434z"/>
		<path d="M352.84,547.128c-0.605,0.515-1.188,0.878-1.748,1.09s-1.161,0.317-1.802,0.317c-1.059,0-1.873-0.259-2.442-0.776
			c-0.569-0.517-0.853-1.178-0.853-1.983c0-0.472,0.107-0.902,0.322-1.293c0.214-0.391,0.496-0.704,0.844-0.939
			c0.348-0.236,0.74-0.415,1.176-0.536c0.321-0.084,0.805-0.166,1.452-0.245c1.319-0.157,2.291-0.345,2.914-0.563
			c0.006-0.224,0.009-0.366,0.009-0.427c0-0.665-0.154-1.135-0.463-1.406c-0.417-0.369-1.038-0.554-1.861-0.554
			c-0.769,0-1.336,0.135-1.702,0.403c-0.366,0.27-0.637,0.746-0.813,1.43l-1.598-0.218c0.145-0.684,0.384-1.236,0.717-1.656
			c0.333-0.421,0.813-0.744,1.443-0.972c0.629-0.227,1.359-0.34,2.188-0.34c0.823,0,1.491,0.097,2.006,0.29
			c0.514,0.193,0.893,0.438,1.135,0.73c0.242,0.294,0.411,0.664,0.508,1.112c0.054,0.278,0.082,0.78,0.082,1.507v2.179
			c0,1.519,0.035,2.479,0.104,2.882c0.069,0.402,0.207,0.788,0.413,1.157h-1.707C352.998,547.979,352.889,547.582,352.84,547.128z
			 M352.704,543.479c-0.593,0.242-1.483,0.447-2.669,0.617c-0.671,0.097-1.146,0.206-1.425,0.326
			c-0.279,0.121-0.494,0.299-0.645,0.531c-0.151,0.233-0.227,0.492-0.227,0.776c0,0.436,0.165,0.799,0.495,1.089
			c0.33,0.291,0.813,0.436,1.448,0.436c0.629,0,1.189-0.137,1.679-0.412c0.49-0.275,0.85-0.652,1.081-1.131
			c0.175-0.369,0.263-0.913,0.263-1.634V543.479z"/>
		<path d="M356.812,549.116l1.588,0.236c0.067,0.49,0.251,0.847,0.554,1.07c0.406,0.303,0.959,0.454,1.661,0.454
			c0.757,0,1.34-0.151,1.752-0.454c0.412-0.302,0.69-0.726,0.835-1.271c0.084-0.333,0.124-1.031,0.118-2.097
			c-0.714,0.841-1.604,1.262-2.668,1.262c-1.325,0-2.351-0.478-3.077-1.435c-0.726-0.956-1.089-2.103-1.089-3.439
			c0-0.92,0.167-1.769,0.499-2.547c0.333-0.777,0.815-1.378,1.448-1.802c0.632-0.423,1.375-0.635,2.228-0.635
			c1.138,0,2.076,0.46,2.814,1.379v-1.161h1.507v8.333c0,1.5-0.153,2.563-0.458,3.19c-0.305,0.626-0.79,1.121-1.452,1.483
			c-0.663,0.363-1.478,0.545-2.446,0.545c-1.15,0-2.079-0.259-2.787-0.776C357.13,550.937,356.788,550.157,356.812,549.116z
			 M358.165,543.325c0,1.265,0.251,2.188,0.753,2.769s1.131,0.871,1.888,0.871c0.75,0,1.38-0.289,1.888-0.867
			c0.508-0.577,0.762-1.483,0.762-2.719c0-1.18-0.262-2.069-0.785-2.668c-0.523-0.6-1.154-0.898-1.893-0.898
			c-0.726,0-1.343,0.295-1.852,0.885S358.165,542.163,358.165,543.325z"/>
		<path d="M373.975,545.213l1.689,0.209c-0.268,0.986-0.76,1.752-1.48,2.297c-0.719,0.544-1.639,0.816-2.76,0.816
			c-1.409,0-2.527-0.434-3.353-1.303c-0.826-0.868-1.239-2.086-1.239-3.653c0-1.622,0.417-2.881,1.253-3.776
			c0.835-0.896,1.918-1.343,3.25-1.343c1.289,0,2.342,0.438,3.158,1.315c0.818,0.878,1.227,2.112,1.227,3.704
			c0,0.097-0.004,0.242-0.01,0.436h-7.189c0.061,1.059,0.36,1.87,0.898,2.433s1.21,0.844,2.015,0.844c0.6,0,1.111-0.157,1.535-0.472
			C373.391,546.405,373.727,545.903,373.975,545.213z M368.611,542.571h5.383c-0.072-0.811-0.279-1.419-0.617-1.824
			c-0.521-0.629-1.195-0.944-2.025-0.944c-0.75,0-1.381,0.251-1.892,0.754C368.948,541.059,368.665,541.73,368.611,542.571z"/>
		<path d="M383.121,552.012V535.01h3.604v1.353h-1.97v14.297h1.97v1.353H383.121z"/>
		<path d="M388.231,548.317v-9.64h1.471v1.37c0.708-1.059,1.73-1.588,3.067-1.588c0.581,0,1.115,0.104,1.603,0.313
			s0.852,0.482,1.094,0.821c0.242,0.34,0.411,0.742,0.509,1.208c0.06,0.303,0.09,0.832,0.09,1.588v5.928h-1.634v-5.864
			c0-0.665-0.063-1.163-0.19-1.493c-0.127-0.329-0.353-0.593-0.676-0.789c-0.324-0.197-0.704-0.295-1.14-0.295
			c-0.696,0-1.297,0.221-1.802,0.662c-0.505,0.442-0.758,1.28-0.758,2.515v5.265H388.231z"/>
		<path d="M407.092,540.493h-8.786v-1.525h8.786V540.493z M407.092,544.532h-8.786v-1.525h8.786V544.532z"/>
		<path d="M408.936,544.832l1.716-0.146c0.127,0.835,0.422,1.463,0.885,1.884c0.463,0.42,1.021,0.631,1.675,0.631
			c0.787,0,1.452-0.297,1.997-0.89s0.817-1.38,0.817-2.36c0-0.932-0.263-1.667-0.786-2.206c-0.523-0.538-1.208-0.808-2.056-0.808
			c-0.526,0-1.001,0.12-1.425,0.358c-0.424,0.239-0.757,0.55-0.999,0.931l-1.533-0.199l1.288-6.836h6.618v1.562h-5.311l-0.717,3.576
			c0.799-0.557,1.637-0.835,2.514-0.835c1.162,0,2.143,0.402,2.941,1.207c0.799,0.806,1.198,1.84,1.198,3.104
			c0,1.205-0.352,2.245-1.053,3.123c-0.854,1.077-2.019,1.615-3.495,1.615c-1.21,0-2.198-0.339-2.964-1.017
			S409.045,545.951,408.936,544.832z"/>
		<path d="M422.684,552.012h-3.604v-1.353h1.97v-14.297h-1.97v-1.353h3.604V552.012z"/>
		<path d="M429.636,543.497c0-1.785,0.496-3.107,1.488-3.967c0.829-0.714,1.84-1.07,3.032-1.07c1.325,0,2.408,0.434,3.25,1.302
			c0.841,0.869,1.262,2.068,1.262,3.6c0,1.24-0.187,2.216-0.559,2.928c-0.372,0.711-0.914,1.263-1.625,1.656s-1.487,0.59-2.328,0.59
			c-1.35,0-2.44-0.433-3.272-1.298S429.636,545.125,429.636,543.497z M431.315,543.497c0,1.234,0.269,2.159,0.808,2.773
			c0.538,0.614,1.216,0.921,2.033,0.921c0.811,0,1.485-0.309,2.024-0.926c0.538-0.617,0.808-1.558,0.808-2.822
			c0-1.192-0.271-2.096-0.813-2.71s-1.215-0.921-2.02-0.921c-0.817,0-1.495,0.306-2.033,0.916
			C431.584,541.34,431.315,542.263,431.315,543.497z"/>
		<path d="M441.196,548.317v-8.369h-1.443v-1.271h1.443v-1.026c0-0.647,0.057-1.128,0.172-1.443c0.157-0.423,0.435-0.767,0.831-1.03
			c0.396-0.263,0.951-0.395,1.665-0.395c0.46,0,0.969,0.055,1.525,0.163l-0.245,1.426c-0.339-0.061-0.66-0.091-0.962-0.091
			c-0.497,0-0.848,0.105-1.054,0.317c-0.205,0.212-0.309,0.608-0.309,1.189v0.89h1.879v1.271h-1.879v8.369H441.196z"/>
		<path d="M457.353,548.317v-1.217c-0.611,0.957-1.51,1.435-2.696,1.435c-0.769,0-1.475-0.212-2.119-0.636
			c-0.645-0.423-1.144-1.015-1.498-1.774c-0.354-0.759-0.53-1.632-0.53-2.618c0-0.963,0.16-1.835,0.48-2.619
			c0.321-0.783,0.802-1.384,1.443-1.802s1.358-0.626,2.151-0.626c0.581,0,1.099,0.122,1.553,0.367
			c0.453,0.245,0.822,0.564,1.107,0.958v-4.775h1.624v13.308H457.353z M452.188,543.507c0,1.234,0.261,2.157,0.781,2.769
			c0.52,0.611,1.134,0.916,1.843,0.916c0.714,0,1.32-0.291,1.819-0.876c0.499-0.583,0.749-1.475,0.749-2.673
			c0-1.319-0.254-2.287-0.763-2.904c-0.508-0.617-1.135-0.926-1.879-0.926c-0.726,0-1.333,0.296-1.82,0.889
			C452.432,541.295,452.188,542.229,452.188,543.507z"/>
		<path d="M468.259,545.213l1.688,0.209c-0.267,0.986-0.76,1.752-1.479,2.297c-0.72,0.544-1.64,0.816-2.76,0.816
			c-1.41,0-2.527-0.434-3.354-1.303c-0.826-0.868-1.239-2.086-1.239-3.653c0-1.622,0.418-2.881,1.253-3.776s1.918-1.343,3.249-1.343
			c1.289,0,2.343,0.438,3.159,1.315c0.817,0.878,1.226,2.112,1.226,3.704c0,0.097-0.003,0.242-0.009,0.436h-7.189
			c0.061,1.059,0.36,1.87,0.898,2.433c0.539,0.563,1.211,0.844,2.016,0.844c0.599,0,1.11-0.157,1.534-0.472
			C467.675,546.405,468.011,545.903,468.259,545.213z M462.895,542.571h5.383c-0.072-0.811-0.278-1.419-0.617-1.824
			c-0.521-0.629-1.195-0.944-2.024-0.944c-0.75,0-1.381,0.251-1.893,0.754C463.231,541.059,462.949,541.73,462.895,542.571z"/>
		<path d="M471.925,552.012v-13.334h1.488v1.252c0.352-0.49,0.747-0.857,1.189-1.103c0.441-0.245,0.978-0.367,1.606-0.367
			c0.823,0,1.549,0.212,2.179,0.635c0.629,0.424,1.104,1.021,1.425,1.793c0.321,0.771,0.481,1.617,0.481,2.537
			c0,0.986-0.177,1.874-0.531,2.664c-0.354,0.79-0.868,1.395-1.543,1.815s-1.385,0.631-2.129,0.631
			c-0.544,0-1.033-0.115-1.466-0.345c-0.433-0.23-0.788-0.521-1.066-0.871v4.692H471.925z M473.404,543.552
			c0,1.24,0.251,2.157,0.753,2.75c0.503,0.594,1.11,0.89,1.825,0.89c0.726,0,1.348-0.307,1.865-0.921s0.776-1.565,0.776-2.854
			c0-1.229-0.253-2.148-0.759-2.76c-0.505-0.611-1.108-0.917-1.811-0.917c-0.696,0-1.312,0.325-1.847,0.976
			C473.672,541.366,473.404,542.312,473.404,543.552z"/>
		<path d="M486.055,546.855l0.235,1.443c-0.46,0.097-0.871,0.146-1.234,0.146c-0.593,0-1.053-0.094-1.38-0.281
			c-0.326-0.188-0.557-0.435-0.689-0.74c-0.133-0.305-0.199-0.948-0.199-1.929v-5.546h-1.198v-1.271h1.198v-2.388l1.624-0.98v3.368
			h1.644v1.271h-1.644v5.637c0,0.466,0.029,0.766,0.087,0.898c0.058,0.134,0.151,0.239,0.281,0.318
			c0.13,0.078,0.316,0.118,0.558,0.118C485.519,546.92,485.758,546.898,486.055,546.855z"/>
		<path d="M487.615,548.317V535.01h1.634v4.775c0.763-0.884,1.725-1.325,2.887-1.325c0.714,0,1.334,0.141,1.86,0.422
			s0.903,0.67,1.13,1.166c0.228,0.496,0.341,1.217,0.341,2.16v6.109h-1.634v-6.109c0-0.816-0.177-1.411-0.531-1.783
			c-0.354-0.372-0.854-0.559-1.502-0.559c-0.484,0-0.939,0.126-1.366,0.377s-0.73,0.592-0.912,1.021s-0.272,1.022-0.272,1.779v5.273
			H487.615z"/>
	</g>
	
		<line fill="none" stroke="#7F7F7F" stroke-width="1.5" stroke-linecap="round" stroke-linejoin="round" stroke-miterlimit="10" stroke-dasharray="4.5,6" x1="171.943" y1="579.025" x2="239.25" y2="579.025"/>
	<g>
		<path d="M248.096,585.021v-13.308h5.02c0.883,0,1.558,0.043,2.024,0.128c0.654,0.108,1.201,0.315,1.643,0.621
			c0.441,0.306,0.797,0.734,1.066,1.285c0.27,0.55,0.404,1.155,0.404,1.815c0,1.131-0.36,2.089-1.081,2.872
			c-0.72,0.784-2.021,1.176-3.903,1.176h-3.413v5.41H248.096z M249.857,578.04h3.44c1.138,0,1.946-0.212,2.424-0.636
			c0.478-0.423,0.717-1.02,0.717-1.788c0-0.557-0.141-1.033-0.422-1.43c-0.281-0.396-0.652-0.658-1.112-0.785
			c-0.297-0.078-0.844-0.118-1.643-0.118h-3.404V578.04z"/>
		<path d="M259.771,580.2c0-1.785,0.496-3.107,1.489-3.967c0.829-0.714,1.839-1.07,3.032-1.07c1.325,0,2.408,0.434,3.25,1.302
			c0.841,0.869,1.262,2.068,1.262,3.6c0,1.24-0.186,2.216-0.558,2.928c-0.372,0.711-0.914,1.263-1.625,1.656s-1.487,0.59-2.328,0.59
			c-1.35,0-2.44-0.433-3.272-1.298S259.771,581.828,259.771,580.2z M261.45,580.2c0,1.234,0.27,2.159,0.808,2.773
			s1.216,0.921,2.033,0.921c0.811,0,1.485-0.309,2.024-0.926c0.539-0.617,0.808-1.558,0.808-2.822c0-1.192-0.271-2.096-0.813-2.71
			s-1.215-0.921-2.02-0.921c-0.817,0-1.495,0.306-2.033,0.916C261.72,578.043,261.45,578.966,261.45,580.2z"/>
		<path d="M270.653,573.593v-1.88h1.634v1.88H270.653z M270.653,585.021v-9.64h1.634v9.64H270.653z"/>
		<path d="M274.812,585.021v-9.64h1.47v1.37c0.708-1.059,1.731-1.588,3.068-1.588c0.581,0,1.115,0.104,1.602,0.313
			c0.487,0.209,0.852,0.482,1.094,0.821c0.242,0.34,0.412,0.742,0.508,1.208c0.061,0.303,0.091,0.832,0.091,1.588v5.928h-1.634
			v-5.864c0-0.665-0.063-1.163-0.191-1.493c-0.127-0.329-0.353-0.593-0.676-0.789c-0.324-0.197-0.703-0.295-1.139-0.295
			c-0.696,0-1.296,0.221-1.802,0.662c-0.505,0.442-0.758,1.28-0.758,2.515v5.265H274.812z"/>
		<path d="M288.941,583.559l0.236,1.443c-0.46,0.097-0.872,0.146-1.234,0.146c-0.593,0-1.053-0.094-1.38-0.281
			s-0.557-0.435-0.69-0.74c-0.133-0.305-0.2-0.948-0.2-1.929v-5.546h-1.198v-1.271h1.198v-2.388l1.625-0.98v3.368h1.643v1.271
			h-1.643v5.637c0,0.466,0.028,0.766,0.086,0.898c0.058,0.134,0.151,0.239,0.282,0.318c0.13,0.078,0.316,0.118,0.558,0.118
			C288.405,583.623,288.644,583.602,288.941,583.559z"/>
		<path d="M295.058,580.2c0-1.785,0.496-3.107,1.489-3.967c0.829-0.714,1.839-1.07,3.032-1.07c1.325,0,2.408,0.434,3.25,1.302
			c0.841,0.869,1.262,2.068,1.262,3.6c0,1.24-0.186,2.216-0.558,2.928c-0.372,0.711-0.914,1.263-1.625,1.656s-1.487,0.59-2.328,0.59
			c-1.35,0-2.44-0.433-3.272-1.298S295.058,581.828,295.058,580.2z M296.737,580.2c0,1.234,0.27,2.159,0.808,2.773
			s1.216,0.921,2.033,0.921c0.811,0,1.485-0.309,2.024-0.926c0.539-0.617,0.808-1.558,0.808-2.822c0-1.192-0.271-2.096-0.813-2.71
			s-1.215-0.921-2.02-0.921c-0.817,0-1.495,0.306-2.033,0.916C297.006,578.043,296.737,578.966,296.737,580.2z"/>
		<path d="M306.618,585.021v-8.369h-1.443v-1.271h1.443v-1.026c0-0.647,0.058-1.128,0.172-1.443c0.157-0.423,0.434-0.767,0.831-1.03
			c0.396-0.263,0.952-0.395,1.666-0.395c0.459,0,0.968,0.055,1.525,0.163l-0.245,1.426c-0.339-0.061-0.66-0.091-0.962-0.091
			c-0.496,0-0.847,0.105-1.053,0.317c-0.206,0.212-0.309,0.608-0.309,1.189v0.89h1.879v1.271h-1.879v8.369H306.618z"/>
		<path d="M315.867,582.143l1.616-0.254c0.091,0.647,0.343,1.144,0.758,1.489c0.415,0.345,0.994,0.517,1.738,0.517
			c0.75,0,1.307-0.152,1.67-0.458s0.544-0.664,0.544-1.075c0-0.369-0.16-0.66-0.481-0.872c-0.224-0.145-0.781-0.329-1.67-0.554
			c-1.198-0.303-2.029-0.564-2.492-0.785s-0.814-0.526-1.053-0.917c-0.239-0.39-0.358-0.821-0.358-1.293
			c0-0.43,0.098-0.827,0.295-1.193s0.464-0.671,0.803-0.913c0.254-0.188,0.601-0.346,1.04-0.477c0.438-0.13,0.909-0.194,1.412-0.194
			c0.756,0,1.42,0.108,1.992,0.326s0.994,0.513,1.266,0.885c0.272,0.373,0.46,0.87,0.563,1.493l-1.598,0.219
			c-0.073-0.496-0.283-0.884-0.631-1.162s-0.839-0.418-1.475-0.418c-0.75,0-1.286,0.124-1.606,0.372s-0.481,0.539-0.481,0.872
			c0,0.212,0.066,0.402,0.2,0.571c0.133,0.176,0.342,0.321,0.626,0.436c0.164,0.061,0.645,0.2,1.443,0.418
			c1.156,0.309,1.962,0.562,2.419,0.758c0.457,0.197,0.815,0.482,1.076,0.858c0.26,0.375,0.391,0.841,0.391,1.397
			c0,0.545-0.159,1.058-0.477,1.538c-0.318,0.481-0.776,0.854-1.375,1.117c-0.599,0.263-1.277,0.395-2.033,0.395
			c-1.252,0-2.208-0.26-2.864-0.78C316.468,583.938,316.049,583.166,315.867,582.143z"/>
		<path d="M325.208,580.2c0-1.785,0.496-3.107,1.489-3.967c0.829-0.714,1.839-1.07,3.032-1.07c1.325,0,2.408,0.434,3.25,1.302
			c0.841,0.869,1.262,2.068,1.262,3.6c0,1.24-0.186,2.216-0.558,2.928c-0.372,0.711-0.914,1.263-1.625,1.656s-1.487,0.59-2.328,0.59
			c-1.35,0-2.44-0.433-3.272-1.298S325.208,581.828,325.208,580.2z M326.887,580.2c0,1.234,0.27,2.159,0.808,2.773
			s1.216,0.921,2.033,0.921c0.811,0,1.485-0.309,2.024-0.926c0.539-0.617,0.808-1.558,0.808-2.822c0-1.192-0.271-2.096-0.813-2.71
			s-1.215-0.921-2.02-0.921c-0.817,0-1.495,0.306-2.033,0.916C327.156,578.043,326.887,578.966,326.887,580.2z"/>
		<path d="M342.695,585.021v-1.416c-0.75,1.089-1.77,1.634-3.059,1.634c-0.569,0-1.1-0.108-1.593-0.327
			c-0.493-0.218-0.859-0.491-1.098-0.821c-0.239-0.329-0.407-0.733-0.504-1.212c-0.067-0.32-0.1-0.829-0.1-1.524v-5.973h1.634v5.346
			c0,0.854,0.033,1.429,0.1,1.726c0.103,0.43,0.321,0.767,0.654,1.012c0.333,0.245,0.744,0.367,1.234,0.367s0.95-0.125,1.379-0.376
			s0.734-0.594,0.913-1.026c0.178-0.433,0.268-1.061,0.268-1.883v-5.165h1.634v9.64H342.695z"/>
		<path d="M346.643,585.021v-9.64h1.47v1.37c0.708-1.059,1.731-1.588,3.068-1.588c0.581,0,1.115,0.104,1.602,0.313
			c0.487,0.209,0.852,0.482,1.094,0.821c0.242,0.34,0.412,0.742,0.508,1.208c0.061,0.303,0.091,0.832,0.091,1.588v5.928h-1.634
			v-5.864c0-0.665-0.063-1.163-0.191-1.493c-0.127-0.329-0.353-0.593-0.676-0.789c-0.324-0.197-0.703-0.295-1.139-0.295
			c-0.696,0-1.296,0.221-1.802,0.662c-0.505,0.442-0.758,1.28-0.758,2.515v5.265H346.643z"/>
		<path d="M363.458,585.021v-1.217c-0.611,0.957-1.51,1.435-2.696,1.435c-0.769,0-1.475-0.212-2.12-0.636
			c-0.645-0.423-1.144-1.015-1.498-1.774c-0.354-0.759-0.531-1.632-0.531-2.618c0-0.963,0.161-1.835,0.481-2.619
			c0.32-0.783,0.802-1.384,1.443-1.802c0.642-0.418,1.359-0.626,2.151-0.626c0.581,0,1.099,0.122,1.552,0.367
			c0.454,0.245,0.823,0.564,1.107,0.958v-4.775h1.625v13.308H363.458z M358.293,580.21c0,1.234,0.26,2.157,0.781,2.769
			s1.135,0.916,1.843,0.916c0.714,0,1.321-0.291,1.82-0.876c0.5-0.583,0.749-1.475,0.749-2.673c0-1.319-0.254-2.287-0.763-2.904
			s-1.134-0.926-1.879-0.926c-0.726,0-1.333,0.296-1.82,0.889C358.537,577.998,358.293,578.933,358.293,580.21z"/>
	</g>
	
		<line fill="none" stroke="#71AE48" stroke-width="1.5" stroke-linecap="round" stroke-linejoin="round" stroke-miterlimit="10" x1="171.943" y1="615.732" x2="239.25" y2="615.732"/>
	<g>
		<path d="M251.481,621.729v-11.737h-4.384v-1.57h10.548v1.57h-4.402v11.737H251.481z"/>
		<path d="M259.392,621.729v-9.64h1.471v1.461c0.375-0.684,0.722-1.135,1.04-1.353c0.317-0.218,0.667-0.326,1.048-0.326
			c0.55,0,1.11,0.175,1.679,0.526l-0.563,1.516c-0.399-0.236-0.799-0.354-1.198-0.354c-0.357,0-0.678,0.108-0.962,0.322
			c-0.285,0.215-0.487,0.514-0.608,0.895c-0.181,0.581-0.272,1.217-0.272,1.906v5.047H259.392z"/>
		<path d="M265.517,610.301v-1.88h1.634v1.88H265.517z M265.517,621.729v-9.64h1.634v9.64H265.517z"/>
		<path d="M269.356,622.527l1.588,0.236c0.067,0.49,0.251,0.847,0.554,1.07c0.406,0.303,0.959,0.454,1.661,0.454
			c0.757,0,1.34-0.151,1.752-0.454c0.412-0.302,0.69-0.726,0.835-1.271c0.084-0.333,0.124-1.031,0.118-2.097
			c-0.714,0.841-1.604,1.262-2.668,1.262c-1.325,0-2.351-0.478-3.077-1.435c-0.726-0.956-1.089-2.103-1.089-3.439
			c0-0.92,0.167-1.769,0.499-2.547c0.333-0.777,0.815-1.378,1.448-1.802c0.632-0.423,1.375-0.635,2.228-0.635
			c1.138,0,2.076,0.46,2.814,1.379v-1.161h1.507v8.333c0,1.5-0.153,2.563-0.458,3.19c-0.305,0.626-0.79,1.121-1.452,1.483
			c-0.663,0.363-1.478,0.545-2.446,0.545c-1.15,0-2.079-0.259-2.787-0.776C269.674,624.348,269.333,623.568,269.356,622.527z
			 M270.709,616.736c0,1.265,0.251,2.188,0.753,2.769s1.131,0.871,1.888,0.871c0.75,0,1.38-0.289,1.888-0.867
			c0.508-0.577,0.762-1.483,0.762-2.719c0-1.18-0.262-2.069-0.785-2.668c-0.523-0.6-1.154-0.898-1.893-0.898
			c-0.726,0-1.343,0.295-1.852,0.885S270.709,615.574,270.709,616.736z"/>
		<path d="M279.621,622.527l1.588,0.236c0.067,0.49,0.251,0.847,0.554,1.07c0.406,0.303,0.959,0.454,1.661,0.454
			c0.757,0,1.34-0.151,1.752-0.454c0.412-0.302,0.69-0.726,0.835-1.271c0.084-0.333,0.124-1.031,0.118-2.097
			c-0.714,0.841-1.604,1.262-2.668,1.262c-1.325,0-2.351-0.478-3.077-1.435c-0.726-0.956-1.089-2.103-1.089-3.439
			c0-0.92,0.167-1.769,0.499-2.547c0.333-0.777,0.815-1.378,1.448-1.802c0.632-0.423,1.375-0.635,2.228-0.635
			c1.138,0,2.076,0.46,2.814,1.379v-1.161h1.507v8.333c0,1.5-0.153,2.563-0.458,3.19c-0.305,0.626-0.79,1.121-1.452,1.483
			c-0.663,0.363-1.478,0.545-2.446,0.545c-1.15,0-2.079-0.259-2.787-0.776C279.939,624.348,279.597,623.568,279.621,622.527z
			 M280.974,616.736c0,1.265,0.251,2.188,0.753,2.769s1.131,0.871,1.888,0.871c0.75,0,1.38-0.289,1.888-0.867
			c0.508-0.577,0.762-1.483,0.762-2.719c0-1.18-0.262-2.069-0.785-2.668c-0.523-0.6-1.154-0.898-1.893-0.898
			c-0.726,0-1.343,0.295-1.852,0.885S280.974,615.574,280.974,616.736z"/>
		<path d="M297.082,618.624l1.688,0.209c-0.266,0.986-0.759,1.752-1.479,2.297c-0.72,0.544-1.64,0.816-2.759,0.816
			c-1.41,0-2.528-0.434-3.354-1.303c-0.826-0.868-1.239-2.086-1.239-3.653c0-1.622,0.417-2.881,1.253-3.776
			c0.835-0.896,1.918-1.343,3.25-1.343c1.289,0,2.342,0.438,3.159,1.315c0.817,0.878,1.226,2.112,1.226,3.704
			c0,0.097-0.003,0.242-0.009,0.436h-7.189c0.061,1.059,0.36,1.87,0.898,2.433s1.21,0.844,2.015,0.844
			c0.599,0,1.111-0.157,1.534-0.472C296.498,619.816,296.833,619.314,297.082,618.624z M291.717,615.982h5.383
			c-0.073-0.811-0.278-1.419-0.617-1.824c-0.521-0.629-1.195-0.944-2.024-0.944c-0.75,0-1.381,0.251-1.893,0.754
			C292.055,614.47,291.771,615.142,291.717,615.982z"/>
		<path d="M300.729,621.729v-9.64h1.471v1.461c0.375-0.684,0.722-1.135,1.04-1.353c0.317-0.218,0.667-0.326,1.048-0.326
			c0.55,0,1.11,0.175,1.679,0.526l-0.563,1.516c-0.399-0.236-0.799-0.354-1.198-0.354c-0.357,0-0.678,0.108-0.962,0.322
			c-0.285,0.215-0.487,0.514-0.608,0.895c-0.181,0.581-0.272,1.217-0.272,1.906v5.047H300.729z"/>
		<path d="M318.888,618.624l1.688,0.209c-0.266,0.986-0.759,1.752-1.479,2.297c-0.72,0.544-1.64,0.816-2.759,0.816
			c-1.41,0-2.528-0.434-3.354-1.303c-0.826-0.868-1.239-2.086-1.239-3.653c0-1.622,0.417-2.881,1.253-3.776
			c0.835-0.896,1.918-1.343,3.25-1.343c1.289,0,2.342,0.438,3.159,1.315c0.817,0.878,1.226,2.112,1.226,3.704
			c0,0.097-0.003,0.242-0.009,0.436h-7.189c0.061,1.059,0.36,1.87,0.898,2.433s1.21,0.844,2.015,0.844
			c0.599,0,1.111-0.157,1.534-0.472C318.304,619.816,318.64,619.314,318.888,618.624z M313.523,615.982h5.383
			c-0.073-0.811-0.278-1.419-0.617-1.824c-0.521-0.629-1.195-0.944-2.024-0.944c-0.75,0-1.381,0.251-1.893,0.754
			C313.861,614.47,313.578,615.142,313.523,615.982z"/>
		<path d="M325.231,621.729l-3.667-9.64h1.725l2.07,5.772c0.224,0.624,0.43,1.271,0.617,1.942c0.146-0.508,0.348-1.119,0.608-1.833
			l2.142-5.882h1.679l-3.649,9.64H325.231z"/>
		<path d="M338.764,618.624l1.688,0.209c-0.266,0.986-0.759,1.752-1.479,2.297c-0.72,0.544-1.64,0.816-2.759,0.816
			c-1.41,0-2.528-0.434-3.354-1.303c-0.826-0.868-1.239-2.086-1.239-3.653c0-1.622,0.417-2.881,1.253-3.776
			c0.835-0.896,1.918-1.343,3.25-1.343c1.289,0,2.342,0.438,3.159,1.315c0.817,0.878,1.226,2.112,1.226,3.704
			c0,0.097-0.003,0.242-0.009,0.436h-7.189c0.061,1.059,0.36,1.87,0.898,2.433s1.21,0.844,2.015,0.844
			c0.599,0,1.111-0.157,1.534-0.472C338.18,619.816,338.515,619.314,338.764,618.624z M333.399,615.982h5.383
			c-0.073-0.811-0.278-1.419-0.617-1.824c-0.521-0.629-1.195-0.944-2.024-0.944c-0.75,0-1.381,0.251-1.893,0.754
			C333.736,614.47,333.453,615.142,333.399,615.982z"/>
		<path d="M342.429,621.729v-9.64h1.47v1.37c0.708-1.059,1.731-1.588,3.068-1.588c0.581,0,1.115,0.104,1.602,0.313
			c0.487,0.209,0.852,0.482,1.094,0.821c0.242,0.34,0.412,0.742,0.508,1.208c0.061,0.303,0.091,0.832,0.091,1.588v5.928h-1.634
			v-5.864c0-0.665-0.063-1.163-0.191-1.493c-0.127-0.329-0.353-0.593-0.676-0.789c-0.324-0.197-0.703-0.295-1.139-0.295
			c-0.696,0-1.296,0.221-1.802,0.662c-0.505,0.442-0.758,1.28-0.758,2.515v5.265H342.429z"/>
		<path d="M356.559,620.267l0.236,1.443c-0.46,0.097-0.872,0.146-1.234,0.146c-0.593,0-1.053-0.094-1.38-0.281
			s-0.557-0.435-0.69-0.74c-0.133-0.305-0.2-0.948-0.2-1.929v-5.546h-1.198v-1.271h1.198v-2.388l1.625-0.98v3.368h1.643v1.271
			h-1.643v5.637c0,0.466,0.028,0.766,0.086,0.898c0.058,0.134,0.151,0.239,0.282,0.318c0.13,0.078,0.316,0.118,0.558,0.118
			C356.023,620.331,356.262,620.31,356.559,620.267z"/>
	</g>
	
		<line fill="none" stroke="#673A8E" stroke-width="1.5" stroke-linecap="round" stroke-linejoin="round" stroke-miterlimit="10" x1="171.943" y1="652.438" x2="239.25" y2="652.438"/>
	<path fill="none" stroke="#673A8E" stroke-width="0.75" stroke-linejoin="round" stroke-miterlimit="10" d="M200.156,652.416
		h10.258 M205.284,647.287v10.258"/>
	<g>
		<path d="M251.481,658.433v-11.737h-4.384v-1.57h10.548v1.57h-4.402v11.737H251.481z"/>
		<path d="M265.701,657.243c-0.605,0.515-1.188,0.878-1.748,1.09s-1.161,0.317-1.802,0.317c-1.059,0-1.873-0.259-2.442-0.776
			c-0.569-0.517-0.853-1.178-0.853-1.983c0-0.472,0.107-0.902,0.322-1.293c0.214-0.391,0.496-0.704,0.844-0.939
			c0.348-0.236,0.74-0.415,1.176-0.536c0.321-0.084,0.805-0.166,1.452-0.245c1.319-0.157,2.291-0.345,2.914-0.563
			c0.006-0.224,0.009-0.366,0.009-0.427c0-0.665-0.154-1.135-0.463-1.406c-0.417-0.369-1.038-0.554-1.861-0.554
			c-0.769,0-1.336,0.135-1.702,0.403c-0.366,0.27-0.637,0.746-0.813,1.43l-1.598-0.218c0.145-0.684,0.384-1.236,0.717-1.656
			c0.333-0.421,0.813-0.744,1.443-0.972c0.629-0.227,1.359-0.34,2.188-0.34c0.823,0,1.491,0.097,2.006,0.29
			c0.514,0.193,0.893,0.438,1.135,0.73c0.242,0.294,0.411,0.664,0.508,1.112c0.054,0.278,0.082,0.78,0.082,1.507v2.179
			c0,1.519,0.035,2.479,0.104,2.882c0.069,0.402,0.207,0.788,0.413,1.157h-1.707C265.858,658.094,265.749,657.697,265.701,657.243z
			 M265.564,653.595c-0.593,0.242-1.483,0.447-2.669,0.617c-0.671,0.097-1.146,0.206-1.425,0.326
			c-0.279,0.121-0.494,0.299-0.645,0.531c-0.151,0.233-0.227,0.492-0.227,0.776c0,0.436,0.165,0.799,0.495,1.089
			c0.33,0.291,0.813,0.436,1.448,0.436c0.629,0,1.189-0.137,1.679-0.412c0.49-0.275,0.85-0.652,1.081-1.131
			c0.175-0.369,0.263-0.913,0.263-1.634V653.595z"/>
		<path d="M269.675,658.433v-9.64h1.47v1.37c0.708-1.059,1.731-1.588,3.068-1.588c0.581,0,1.115,0.104,1.602,0.313
			c0.487,0.209,0.852,0.482,1.094,0.821c0.242,0.34,0.412,0.742,0.508,1.208c0.061,0.303,0.091,0.832,0.091,1.588v5.928h-1.634
			v-5.864c0-0.665-0.063-1.163-0.191-1.493c-0.127-0.329-0.353-0.593-0.676-0.789c-0.324-0.197-0.703-0.295-1.139-0.295
			c-0.696,0-1.296,0.221-1.802,0.662c-0.505,0.442-0.758,1.28-0.758,2.515v5.265H269.675z"/>
		<path d="M279.937,659.231l1.588,0.236c0.067,0.49,0.251,0.847,0.554,1.07c0.406,0.303,0.959,0.454,1.661,0.454
			c0.757,0,1.34-0.151,1.752-0.454c0.412-0.302,0.69-0.726,0.835-1.271c0.084-0.333,0.124-1.031,0.118-2.097
			c-0.714,0.841-1.604,1.262-2.668,1.262c-1.325,0-2.351-0.478-3.077-1.435c-0.726-0.956-1.089-2.103-1.089-3.439
			c0-0.92,0.167-1.769,0.499-2.547c0.333-0.777,0.815-1.378,1.448-1.802c0.632-0.423,1.375-0.635,2.228-0.635
			c1.138,0,2.076,0.46,2.814,1.379v-1.161h1.507v8.333c0,1.5-0.153,2.563-0.458,3.19c-0.305,0.626-0.79,1.121-1.452,1.483
			c-0.663,0.363-1.478,0.545-2.446,0.545c-1.15,0-2.079-0.259-2.787-0.776C280.255,661.052,279.913,660.272,279.937,659.231z
			 M281.29,653.44c0,1.265,0.251,2.188,0.753,2.769s1.131,0.871,1.888,0.871c0.75,0,1.38-0.289,1.888-0.867
			c0.508-0.577,0.762-1.483,0.762-2.719c0-1.18-0.262-2.069-0.785-2.668c-0.523-0.6-1.154-0.898-1.893-0.898
			c-0.726,0-1.343,0.295-1.852,0.885S281.29,652.278,281.29,653.44z"/>
		<path d="M297.101,655.328l1.688,0.209c-0.266,0.986-0.759,1.752-1.479,2.297c-0.72,0.544-1.64,0.816-2.759,0.816
			c-1.41,0-2.528-0.434-3.354-1.303c-0.826-0.868-1.239-2.086-1.239-3.653c0-1.622,0.417-2.881,1.253-3.776
			c0.835-0.896,1.918-1.343,3.25-1.343c1.289,0,2.342,0.438,3.159,1.315c0.817,0.878,1.226,2.112,1.226,3.704
			c0,0.097-0.003,0.242-0.009,0.436h-7.189c0.061,1.059,0.36,1.87,0.898,2.433s1.21,0.844,2.015,0.844
			c0.599,0,1.111-0.157,1.534-0.472C296.517,656.521,296.852,656.019,297.101,655.328z M291.736,652.687h5.383
			c-0.073-0.811-0.278-1.419-0.617-1.824c-0.521-0.629-1.195-0.944-2.024-0.944c-0.75,0-1.381,0.251-1.893,0.754
			C292.073,651.174,291.79,651.846,291.736,652.687z"/>
		<path d="M300.766,658.433v-9.64h1.47v1.37c0.708-1.059,1.731-1.588,3.068-1.588c0.581,0,1.115,0.104,1.602,0.313
			c0.487,0.209,0.852,0.482,1.094,0.821c0.242,0.34,0.412,0.742,0.508,1.208c0.061,0.303,0.091,0.832,0.091,1.588v5.928h-1.634
			v-5.864c0-0.665-0.063-1.163-0.191-1.493c-0.127-0.329-0.353-0.593-0.676-0.789c-0.324-0.197-0.703-0.295-1.139-0.295
			c-0.696,0-1.296,0.221-1.802,0.662c-0.505,0.442-0.758,1.28-0.758,2.515v5.265H300.766z"/>
		<path d="M314.895,656.971l0.236,1.443c-0.46,0.097-0.872,0.146-1.234,0.146c-0.593,0-1.053-0.094-1.38-0.281
			s-0.557-0.435-0.69-0.74c-0.133-0.305-0.2-0.948-0.2-1.929v-5.546h-1.198v-1.271h1.198v-2.388l1.625-0.98v3.368h1.643v1.271
			h-1.643v5.637c0,0.466,0.028,0.766,0.086,0.898c0.058,0.134,0.151,0.239,0.282,0.318c0.13,0.078,0.316,0.118,0.558,0.118
			C314.359,657.035,314.598,657.014,314.895,656.971z"/>
		<path d="M321.602,662.127v-13.334h1.488v1.252c0.351-0.49,0.748-0.857,1.189-1.103c0.441-0.245,0.977-0.367,1.606-0.367
			c0.823,0,1.549,0.212,2.179,0.635c0.629,0.424,1.104,1.021,1.425,1.793s0.481,1.617,0.481,2.537c0,0.986-0.177,1.874-0.531,2.664
			s-0.868,1.395-1.543,1.815s-1.384,0.631-2.128,0.631c-0.545,0-1.034-0.115-1.466-0.345c-0.433-0.23-0.788-0.521-1.066-0.871v4.692
			H321.602z M323.082,653.667c0,1.24,0.251,2.157,0.753,2.75c0.502,0.594,1.11,0.89,1.824,0.89c0.727,0,1.348-0.307,1.866-0.921
			c0.517-0.614,0.776-1.565,0.776-2.854c0-1.229-0.252-2.148-0.758-2.76s-1.109-0.917-1.811-0.917c-0.696,0-1.312,0.325-1.847,0.976
			C323.349,651.481,323.082,652.427,323.082,653.667z"/>
		<path d="M331.556,653.612c0-1.785,0.496-3.107,1.489-3.967c0.829-0.714,1.839-1.07,3.032-1.07c1.325,0,2.408,0.434,3.25,1.302
			c0.841,0.869,1.262,2.068,1.262,3.6c0,1.24-0.186,2.216-0.558,2.928c-0.372,0.711-0.914,1.263-1.625,1.656s-1.487,0.59-2.328,0.59
			c-1.35,0-2.44-0.433-3.272-1.298S331.556,655.24,331.556,653.612z M333.235,653.612c0,1.234,0.27,2.159,0.808,2.773
			s1.216,0.921,2.033,0.921c0.811,0,1.485-0.309,2.024-0.926c0.539-0.617,0.808-1.558,0.808-2.822c0-1.192-0.271-2.096-0.813-2.71
			s-1.215-0.921-2.02-0.921c-0.817,0-1.495,0.306-2.033,0.916C333.504,651.455,333.235,652.378,333.235,653.612z"/>
		<path d="M342.437,647.005v-1.88h1.634v1.88H342.437z M342.437,658.433v-9.64h1.634v9.64H342.437z"/>
		<path d="M346.577,658.433v-9.64h1.47v1.37c0.708-1.059,1.731-1.588,3.068-1.588c0.581,0,1.115,0.104,1.602,0.313
			c0.487,0.209,0.852,0.482,1.094,0.821c0.242,0.34,0.412,0.742,0.508,1.208c0.061,0.303,0.091,0.832,0.091,1.588v5.928h-1.634
			v-5.864c0-0.665-0.063-1.163-0.191-1.493c-0.127-0.329-0.353-0.593-0.676-0.789c-0.324-0.197-0.703-0.295-1.139-0.295
			c-0.696,0-1.296,0.221-1.802,0.662c-0.505,0.442-0.758,1.28-0.758,2.515v5.265H346.577z"/>
		<path d="M360.707,656.971l0.236,1.443c-0.46,0.097-0.872,0.146-1.234,0.146c-0.593,0-1.053-0.094-1.38-0.281
			s-0.557-0.435-0.69-0.74c-0.133-0.305-0.2-0.948-0.2-1.929v-5.546h-1.198v-1.271h1.198v-2.388l1.625-0.98v3.368h1.643v1.271
			h-1.643v5.637c0,0.466,0.028,0.766,0.086,0.898c0.058,0.134,0.151,0.239,0.282,0.318c0.13,0.078,0.316,0.118,0.558,0.118
			C360.171,657.035,360.41,657.014,360.707,656.971z"/>
		<path d="M361.613,655.555l1.616-0.254c0.091,0.647,0.343,1.144,0.758,1.489c0.415,0.345,0.994,0.517,1.738,0.517
			c0.75,0,1.307-0.152,1.67-0.458s0.544-0.664,0.544-1.075c0-0.369-0.16-0.66-0.481-0.872c-0.224-0.145-0.781-0.329-1.67-0.554
			c-1.198-0.303-2.029-0.564-2.492-0.785s-0.814-0.526-1.053-0.917c-0.239-0.39-0.358-0.821-0.358-1.293
			c0-0.43,0.098-0.827,0.295-1.193s0.464-0.671,0.803-0.913c0.254-0.188,0.601-0.346,1.04-0.477c0.438-0.13,0.909-0.194,1.412-0.194
			c0.756,0,1.42,0.108,1.992,0.326s0.994,0.513,1.266,0.885c0.272,0.373,0.46,0.87,0.563,1.493l-1.598,0.219
			c-0.073-0.496-0.283-0.884-0.631-1.162s-0.839-0.418-1.475-0.418c-0.75,0-1.286,0.124-1.606,0.372s-0.481,0.539-0.481,0.872
			c0,0.212,0.066,0.402,0.2,0.571c0.133,0.176,0.342,0.321,0.626,0.436c0.164,0.061,0.645,0.2,1.443,0.418
			c1.156,0.309,1.962,0.562,2.419,0.758c0.457,0.197,0.815,0.482,1.076,0.858c0.26,0.375,0.391,0.841,0.391,1.397
			c0,0.545-0.159,1.058-0.477,1.538c-0.318,0.481-0.776,0.854-1.375,1.117c-0.599,0.263-1.277,0.395-2.033,0.395
			c-1.252,0-2.208-0.26-2.864-0.78C362.214,657.35,361.795,656.578,361.613,655.555z"/>
	</g>
	
		<line fill="none" stroke="#1770B7" stroke-width="1.5" stroke-linecap="round" stroke-linejoin="round" stroke-miterlimit="10" stroke-dasharray="0,3" x1="171.943" y1="689.141" x2="239.25" y2="689.141"/>
	<g>
		<path d="M248.023,695.135v-13.308h1.761v11.737h6.554v1.57H248.023z"/>
		<path d="M258.161,683.707v-1.88h1.634v1.88H258.161z M258.161,695.135v-9.64h1.634v9.64H258.161z"/>
		<path d="M262.319,695.135v-9.64h1.47v1.37c0.708-1.059,1.731-1.588,3.068-1.588c0.581,0,1.115,0.104,1.602,0.313
			c0.487,0.209,0.852,0.482,1.094,0.821c0.242,0.34,0.412,0.742,0.508,1.208c0.061,0.303,0.091,0.832,0.091,1.588v5.928h-1.634
			v-5.864c0-0.665-0.063-1.163-0.191-1.493c-0.127-0.329-0.353-0.593-0.676-0.789c-0.324-0.197-0.703-0.295-1.139-0.295
			c-0.696,0-1.296,0.221-1.802,0.662c-0.505,0.442-0.758,1.28-0.758,2.515v5.265H262.319z"/>
		<path d="M279.48,692.03l1.688,0.209c-0.266,0.986-0.759,1.752-1.479,2.297c-0.72,0.544-1.64,0.816-2.759,0.816
			c-1.41,0-2.528-0.434-3.354-1.303c-0.826-0.868-1.239-2.086-1.239-3.653c0-1.622,0.417-2.881,1.253-3.776
			c0.835-0.896,1.918-1.343,3.25-1.343c1.289,0,2.342,0.438,3.159,1.315c0.817,0.878,1.226,2.112,1.226,3.704
			c0,0.097-0.003,0.242-0.009,0.436h-7.189c0.061,1.059,0.36,1.87,0.898,2.433s1.21,0.844,2.015,0.844
			c0.599,0,1.111-0.157,1.534-0.472C278.896,693.223,279.231,692.721,279.48,692.03z M274.115,689.389h5.383
			c-0.073-0.811-0.278-1.419-0.617-1.824c-0.521-0.629-1.195-0.944-2.024-0.944c-0.75,0-1.381,0.251-1.893,0.754
			C274.453,687.876,274.169,688.548,274.115,689.389z"/>
		<path d="M287.981,690.314c0-1.785,0.496-3.107,1.489-3.967c0.829-0.714,1.839-1.07,3.032-1.07c1.325,0,2.408,0.434,3.25,1.302
			c0.841,0.869,1.262,2.068,1.262,3.6c0,1.24-0.186,2.216-0.558,2.928c-0.372,0.711-0.914,1.263-1.625,1.656s-1.487,0.59-2.328,0.59
			c-1.35,0-2.44-0.433-3.272-1.298S287.981,691.942,287.981,690.314z M289.66,690.314c0,1.234,0.27,2.159,0.808,2.773
			s1.216,0.921,2.033,0.921c0.811,0,1.485-0.309,2.024-0.926c0.539-0.617,0.808-1.558,0.808-2.822c0-1.192-0.271-2.096-0.813-2.71
			s-1.215-0.921-2.02-0.921c-0.817,0-1.495,0.306-2.033,0.916C289.93,688.157,289.66,689.08,289.66,690.314z"/>
		<path d="M299.244,695.135v-8.369h-1.443v-1.271h1.443v-1.026c0-0.647,0.058-1.128,0.172-1.443c0.157-0.423,0.434-0.767,0.831-1.03
			c0.396-0.263,0.952-0.395,1.666-0.395c0.459,0,0.968,0.055,1.525,0.163l-0.245,1.426c-0.339-0.061-0.66-0.091-0.962-0.091
			c-0.496,0-0.847,0.105-1.053,0.317c-0.206,0.212-0.309,0.608-0.309,1.189v0.89h1.879v1.271h-1.879v8.369H299.244z"/>
		<path d="M315.418,691.604l1.606,0.209c-0.176,1.107-0.625,1.975-1.348,2.601s-1.611,0.939-2.664,0.939
			c-1.319,0-2.38-0.431-3.182-1.293s-1.203-2.099-1.203-3.708c0-1.041,0.172-1.952,0.518-2.732c0.345-0.781,0.87-1.366,1.575-1.757
			s1.472-0.585,2.301-0.585c1.047,0,1.903,0.265,2.569,0.794c0.666,0.529,1.092,1.281,1.28,2.256l-1.588,0.245
			c-0.151-0.647-0.419-1.135-0.803-1.462c-0.385-0.326-0.849-0.49-1.394-0.49c-0.823,0-1.492,0.295-2.006,0.886
			c-0.515,0.59-0.772,1.523-0.772,2.8c0,1.295,0.248,2.236,0.745,2.823c0.496,0.587,1.144,0.88,1.942,0.88
			c0.642,0,1.177-0.196,1.606-0.59S315.303,692.421,315.418,691.604z"/>
		<path d="M325.03,693.945c-0.605,0.515-1.188,0.878-1.748,1.09s-1.161,0.317-1.802,0.317c-1.059,0-1.873-0.259-2.442-0.776
			c-0.569-0.517-0.853-1.178-0.853-1.983c0-0.472,0.107-0.902,0.322-1.293c0.214-0.391,0.496-0.704,0.844-0.939
			c0.348-0.236,0.74-0.415,1.176-0.536c0.321-0.084,0.805-0.166,1.452-0.245c1.319-0.157,2.291-0.345,2.914-0.563
			c0.006-0.224,0.009-0.366,0.009-0.427c0-0.665-0.154-1.135-0.463-1.406c-0.417-0.369-1.038-0.554-1.861-0.554
			c-0.769,0-1.336,0.135-1.702,0.403c-0.366,0.27-0.637,0.746-0.813,1.43l-1.598-0.218c0.145-0.684,0.384-1.236,0.717-1.656
			c0.333-0.421,0.813-0.744,1.443-0.972c0.629-0.227,1.359-0.34,2.188-0.34c0.823,0,1.491,0.097,2.006,0.29
			c0.514,0.193,0.893,0.438,1.135,0.73c0.242,0.294,0.411,0.664,0.508,1.112c0.054,0.278,0.082,0.78,0.082,1.507v2.179
			c0,1.519,0.035,2.479,0.104,2.882c0.069,0.402,0.207,0.788,0.413,1.157h-1.707C325.187,694.796,325.078,694.399,325.03,693.945z
			 M324.894,690.297c-0.593,0.242-1.483,0.447-2.669,0.617c-0.671,0.097-1.146,0.206-1.425,0.326
			c-0.279,0.121-0.494,0.299-0.645,0.531c-0.151,0.233-0.227,0.492-0.227,0.776c0,0.436,0.165,0.799,0.495,1.089
			c0.33,0.291,0.813,0.436,1.448,0.436c0.629,0,1.189-0.137,1.679-0.412c0.49-0.275,0.85-0.652,1.081-1.131
			c0.175-0.369,0.263-0.913,0.263-1.634V690.297z"/>
		<path d="M328.967,695.135v-13.308h1.634v13.308H328.967z"/>
		<path d="M339.461,691.604l1.606,0.209c-0.176,1.107-0.625,1.975-1.348,2.601s-1.611,0.939-2.664,0.939
			c-1.319,0-2.38-0.431-3.182-1.293s-1.203-2.099-1.203-3.708c0-1.041,0.172-1.952,0.518-2.732c0.345-0.781,0.87-1.366,1.575-1.757
			s1.472-0.585,2.301-0.585c1.047,0,1.903,0.265,2.569,0.794c0.666,0.529,1.092,1.281,1.28,2.256l-1.588,0.245
			c-0.151-0.647-0.419-1.135-0.803-1.462c-0.385-0.326-0.849-0.49-1.394-0.49c-0.823,0-1.492,0.295-2.006,0.886
			c-0.515,0.59-0.772,1.523-0.772,2.8c0,1.295,0.248,2.236,0.745,2.823c0.496,0.587,1.144,0.88,1.942,0.88
			c0.642,0,1.177-0.196,1.606-0.59S339.346,692.421,339.461,691.604z"/>
		<path d="M348.783,695.135v-1.416c-0.75,1.089-1.77,1.634-3.059,1.634c-0.569,0-1.1-0.108-1.593-0.327
			c-0.493-0.218-0.859-0.491-1.098-0.821c-0.239-0.329-0.407-0.733-0.504-1.212c-0.067-0.32-0.1-0.829-0.1-1.524v-5.973h1.634v5.346
			c0,0.854,0.033,1.429,0.1,1.726c0.103,0.43,0.321,0.767,0.654,1.012c0.333,0.245,0.744,0.367,1.234,0.367s0.95-0.125,1.379-0.376
			s0.734-0.594,0.913-1.026c0.178-0.433,0.268-1.061,0.268-1.883v-5.165h1.634v9.64H348.783z"/>
		<path d="M352.991,695.135v-13.308h1.634v13.308H352.991z"/>
		<path d="M363.486,693.945c-0.605,0.515-1.188,0.878-1.748,1.09s-1.161,0.317-1.802,0.317c-1.059,0-1.873-0.259-2.442-0.776
			c-0.569-0.517-0.853-1.178-0.853-1.983c0-0.472,0.107-0.902,0.322-1.293c0.214-0.391,0.496-0.704,0.844-0.939
			c0.348-0.236,0.74-0.415,1.176-0.536c0.321-0.084,0.805-0.166,1.452-0.245c1.319-0.157,2.291-0.345,2.914-0.563
			c0.006-0.224,0.009-0.366,0.009-0.427c0-0.665-0.154-1.135-0.463-1.406c-0.417-0.369-1.038-0.554-1.861-0.554
			c-0.769,0-1.336,0.135-1.702,0.403c-0.366,0.27-0.637,0.746-0.813,1.43l-1.598-0.218c0.145-0.684,0.384-1.236,0.717-1.656
			c0.333-0.421,0.813-0.744,1.443-0.972c0.629-0.227,1.359-0.34,2.188-0.34c0.823,0,1.491,0.097,2.006,0.29
			c0.514,0.193,0.893,0.438,1.135,0.73c0.242,0.294,0.411,0.664,0.508,1.112c0.054,0.278,0.082,0.78,0.082,1.507v2.179
			c0,1.519,0.035,2.479,0.104,2.882c0.069,0.402,0.207,0.788,0.413,1.157h-1.707C363.643,694.796,363.534,694.399,363.486,693.945z
			 M363.35,690.297c-0.593,0.242-1.483,0.447-2.669,0.617c-0.671,0.097-1.146,0.206-1.425,0.326
			c-0.279,0.121-0.494,0.299-0.645,0.531c-0.151,0.233-0.227,0.492-0.227,0.776c0,0.436,0.165,0.799,0.495,1.089
			c0.33,0.291,0.813,0.436,1.448,0.436c0.629,0,1.189-0.137,1.679-0.412c0.49-0.275,0.85-0.652,1.081-1.131
			c0.175-0.369,0.263-0.913,0.263-1.634V690.297z"/>
		<path d="M371.027,693.673l0.235,1.443c-0.46,0.097-0.871,0.146-1.234,0.146c-0.593,0-1.053-0.094-1.38-0.281
			s-0.557-0.435-0.69-0.74c-0.133-0.305-0.2-0.948-0.2-1.929v-5.546h-1.198v-1.271h1.198v-2.388l1.625-0.98v3.368h1.643v1.271
			h-1.643v5.637c0,0.466,0.028,0.766,0.086,0.898c0.058,0.134,0.151,0.239,0.282,0.318c0.13,0.078,0.316,0.118,0.558,0.118
			C370.491,693.737,370.73,693.716,371.027,693.673z"/>
		<path d="M379.205,692.03l1.688,0.209c-0.267,0.986-0.76,1.752-1.479,2.297c-0.72,0.544-1.64,0.816-2.76,0.816
			c-1.41,0-2.527-0.434-3.354-1.303c-0.826-0.868-1.239-2.086-1.239-3.653c0-1.622,0.418-2.881,1.253-3.776s1.918-1.343,3.249-1.343
			c1.289,0,2.343,0.438,3.159,1.315c0.817,0.878,1.226,2.112,1.226,3.704c0,0.097-0.003,0.242-0.009,0.436h-7.189
			c0.061,1.059,0.36,1.87,0.898,2.433c0.539,0.563,1.211,0.844,2.016,0.844c0.599,0,1.11-0.157,1.534-0.472
			C378.621,693.223,378.957,692.721,379.205,692.03z M373.841,689.389h5.383c-0.072-0.811-0.278-1.419-0.617-1.824
			c-0.521-0.629-1.195-0.944-2.024-0.944c-0.75,0-1.381,0.251-1.893,0.754C374.178,687.876,373.896,688.548,373.841,689.389z"/>
		<path d="M389.422,695.135v-1.217c-0.611,0.957-1.51,1.435-2.696,1.435c-0.769,0-1.475-0.212-2.119-0.636
			c-0.645-0.423-1.144-1.015-1.498-1.774c-0.354-0.759-0.53-1.632-0.53-2.618c0-0.963,0.16-1.835,0.48-2.619
			c0.321-0.783,0.802-1.384,1.443-1.802s1.358-0.626,2.151-0.626c0.581,0,1.099,0.122,1.553,0.367
			c0.453,0.245,0.822,0.564,1.107,0.958v-4.775h1.624v13.308H389.422z M384.257,690.324c0,1.234,0.261,2.157,0.781,2.769
			c0.52,0.611,1.134,0.916,1.843,0.916c0.714,0,1.32-0.291,1.819-0.876c0.499-0.583,0.749-1.475,0.749-2.673
			c0-1.319-0.254-2.287-0.763-2.904c-0.508-0.617-1.135-0.926-1.879-0.926c-0.726,0-1.333,0.296-1.82,0.889
			C384.501,688.112,384.257,689.047,384.257,690.324z"/>
		<path d="M398.279,695.934l1.589,0.236c0.066,0.49,0.251,0.847,0.554,1.07c0.405,0.303,0.959,0.454,1.661,0.454
			c0.756,0,1.34-0.151,1.752-0.454c0.411-0.302,0.689-0.726,0.835-1.271c0.085-0.333,0.124-1.031,0.118-2.097
			c-0.715,0.841-1.604,1.262-2.669,1.262c-1.325,0-2.352-0.478-3.077-1.435c-0.727-0.956-1.09-2.103-1.09-3.439
			c0-0.92,0.167-1.769,0.5-2.547c0.332-0.777,0.815-1.378,1.447-1.802c0.633-0.423,1.375-0.635,2.229-0.635
			c1.138,0,2.076,0.46,2.814,1.379v-1.161h1.507v8.333c0,1.5-0.153,2.563-0.459,3.19c-0.306,0.626-0.789,1.121-1.452,1.483
			c-0.663,0.363-1.479,0.545-2.446,0.545c-1.149,0-2.079-0.259-2.787-0.776C398.597,697.754,398.255,696.975,398.279,695.934z
			 M399.632,690.143c0,1.265,0.251,2.188,0.754,2.769c0.502,0.581,1.131,0.871,1.888,0.871c0.75,0,1.38-0.289,1.888-0.867
			c0.509-0.577,0.763-1.483,0.763-2.719c0-1.18-0.262-2.069-0.785-2.668c-0.523-0.6-1.154-0.898-1.893-0.898
			c-0.727,0-1.344,0.295-1.852,0.885C399.886,688.104,399.632,688.98,399.632,690.143z"/>
		<path d="M409.123,695.135v-9.64h1.471v1.461c0.375-0.684,0.722-1.135,1.039-1.353c0.318-0.218,0.668-0.326,1.049-0.326
			c0.551,0,1.11,0.175,1.679,0.526l-0.563,1.516c-0.399-0.236-0.799-0.354-1.198-0.354c-0.356,0-0.678,0.108-0.962,0.322
			c-0.284,0.215-0.487,0.514-0.608,0.895c-0.182,0.581-0.272,1.217-0.272,1.906v5.047H409.123z"/>
		<path d="M421.529,693.945c-0.604,0.515-1.188,0.878-1.747,1.09s-1.16,0.317-1.802,0.317c-1.06,0-1.873-0.259-2.441-0.776
			c-0.569-0.517-0.854-1.178-0.854-1.983c0-0.472,0.107-0.902,0.322-1.293s0.496-0.704,0.844-0.939
			c0.349-0.236,0.74-0.415,1.176-0.536c0.32-0.084,0.805-0.166,1.452-0.245c1.319-0.157,2.291-0.345,2.914-0.563
			c0.006-0.224,0.009-0.366,0.009-0.427c0-0.665-0.154-1.135-0.463-1.406c-0.417-0.369-1.038-0.554-1.86-0.554
			c-0.769,0-1.336,0.135-1.702,0.403c-0.366,0.27-0.637,0.746-0.813,1.43l-1.598-0.218c0.146-0.684,0.384-1.236,0.717-1.656
			c0.333-0.421,0.814-0.744,1.443-0.972c0.63-0.227,1.358-0.34,2.188-0.34c0.823,0,1.492,0.097,2.007,0.29
			c0.514,0.193,0.892,0.438,1.134,0.73c0.242,0.294,0.412,0.664,0.509,1.112c0.055,0.278,0.082,0.78,0.082,1.507v2.179
			c0,1.519,0.034,2.479,0.104,2.882c0.07,0.402,0.208,0.788,0.413,1.157h-1.706C421.687,694.796,421.578,694.399,421.529,693.945z
			 M421.394,690.297c-0.593,0.242-1.482,0.447-2.669,0.617c-0.672,0.097-1.146,0.206-1.425,0.326
			c-0.278,0.121-0.493,0.299-0.645,0.531c-0.151,0.233-0.228,0.492-0.228,0.776c0,0.436,0.165,0.799,0.495,1.089
			c0.33,0.291,0.813,0.436,1.448,0.436c0.629,0,1.188-0.137,1.679-0.412s0.851-0.652,1.08-1.131
			c0.176-0.369,0.264-0.913,0.264-1.634V690.297z"/>
		<path d="M432.055,695.135v-1.217c-0.611,0.957-1.51,1.435-2.696,1.435c-0.769,0-1.475-0.212-2.119-0.636
			c-0.645-0.423-1.144-1.015-1.498-1.774c-0.354-0.759-0.53-1.632-0.53-2.618c0-0.963,0.16-1.835,0.48-2.619
			c0.321-0.783,0.802-1.384,1.443-1.802s1.358-0.626,2.151-0.626c0.581,0,1.099,0.122,1.553,0.367
			c0.453,0.245,0.822,0.564,1.107,0.958v-4.775h1.624v13.308H432.055z M426.89,690.324c0,1.234,0.261,2.157,0.781,2.769
			c0.52,0.611,1.134,0.916,1.843,0.916c0.714,0,1.32-0.291,1.819-0.876c0.499-0.583,0.749-1.475,0.749-2.673
			c0-1.319-0.254-2.287-0.763-2.904c-0.508-0.617-1.135-0.926-1.879-0.926c-0.726,0-1.333,0.296-1.82,0.889
			C427.134,688.112,426.89,689.047,426.89,690.324z"/>
		<path d="M436.074,683.707v-1.88h1.634v1.88H436.074z M436.074,695.135v-9.64h1.634v9.64H436.074z"/>
		<path d="M446.831,692.03l1.688,0.209c-0.267,0.986-0.76,1.752-1.479,2.297c-0.72,0.544-1.64,0.816-2.76,0.816
			c-1.41,0-2.527-0.434-3.354-1.303c-0.826-0.868-1.239-2.086-1.239-3.653c0-1.622,0.418-2.881,1.253-3.776s1.918-1.343,3.249-1.343
			c1.289,0,2.343,0.438,3.159,1.315c0.817,0.878,1.226,2.112,1.226,3.704c0,0.097-0.003,0.242-0.009,0.436h-7.189
			c0.061,1.059,0.36,1.87,0.898,2.433c0.539,0.563,1.211,0.844,2.016,0.844c0.599,0,1.11-0.157,1.534-0.472
			C446.247,693.223,446.583,692.721,446.831,692.03z M441.467,689.389h5.383c-0.072-0.811-0.278-1.419-0.617-1.824
			c-0.521-0.629-1.195-0.944-2.024-0.944c-0.75,0-1.381,0.251-1.893,0.754C441.804,687.876,441.521,688.548,441.467,689.389z"/>
		<path d="M450.795,695.135v-9.64h1.471v1.37c0.708-1.059,1.73-1.588,3.067-1.588c0.581,0,1.115,0.104,1.603,0.313
			s0.852,0.482,1.094,0.821c0.242,0.34,0.411,0.742,0.509,1.208c0.06,0.303,0.09,0.832,0.09,1.588v5.928h-1.634v-5.864
			c0-0.665-0.063-1.163-0.19-1.493c-0.127-0.329-0.353-0.593-0.676-0.789c-0.324-0.197-0.704-0.295-1.14-0.295
			c-0.696,0-1.297,0.221-1.802,0.662c-0.505,0.442-0.758,1.28-0.758,2.515v5.265H450.795z"/>
		<path d="M464.627,693.673l0.235,1.443c-0.46,0.097-0.871,0.146-1.234,0.146c-0.593,0-1.053-0.094-1.38-0.281
			c-0.326-0.188-0.557-0.435-0.689-0.74c-0.133-0.305-0.199-0.948-0.199-1.929v-5.546h-1.198v-1.271h1.198v-2.388l1.624-0.98v3.368
			h1.644v1.271h-1.644v5.637c0,0.466,0.029,0.766,0.087,0.898c0.058,0.134,0.151,0.239,0.281,0.318
			c0.13,0.078,0.316,0.118,0.558,0.118C464.091,693.737,464.33,693.716,464.627,693.673z"/>
	</g>
</g>
<g>
</g>
<g>
</g>
<g>
</g>
<g>
</g>
<g>
</g>
<g>
</g>
</svg>
