<?xml version="1.0" encoding="utf-8"?>
<!-- Generator: Adobe Illustrator 16.0.0, SVG Export Plug-In . SVG Version: 6.00 Build 0)  -->
<!DOCTYPE svg PUBLIC "-//W3C//DTD SVG 1.1//EN" "http://www.w3.org/Graphics/SVG/1.1/DTD/svg11.dtd">
<svg version="1.1" id="Layer_1" xmlns="http://www.w3.org/2000/svg" xmlns:xlink="http://www.w3.org/1999/xlink" x="0px" y="0px"
	 width="651px" height="719px" viewBox="0 0 651 719" enable-background="new 0 0 651 719" xml:space="preserve">
<g>
	<path fill="none" stroke="#D9D9D9" stroke-width="0.75" stroke-linejoin="round" stroke-miterlimit="10" d="M81.477,28.26h543.915
		 M81.477,95.035h543.915 M81.477,161.703h543.915 M81.477,228.689h543.915 M81.477,295.357h543.915 M81.477,362.029h543.915"/>
	<path fill="none" stroke="#D9D9D9" stroke-width="0.75" stroke-linejoin="round" stroke-miterlimit="10" d="M625.392,28.258
		v400.646 M547.598,28.258v400.646 M470.033,28.258v400.646 M392.148,28.258v400.646 M314.583,28.258v400.646 M237.018,28.258
		v400.646 M159.131,28.258v400.646"/>
	
		<line fill="none" stroke="#BFBFBF" stroke-width="0.75" stroke-linejoin="round" stroke-miterlimit="10" x1="81.477" y1="428.904" x2="81.477" y2="28.258"/>
	
		<line fill="none" stroke="#BFBFBF" stroke-width="0.75" stroke-linejoin="round" stroke-miterlimit="10" x1="81.477" y1="428.904" x2="625.392" y2="428.904"/>
	<g>
		<defs>
			<rect id="SVGID_1_" x="81.244" y="28.046" width="545.842" height="402.573"/>
		</defs>
		<clipPath id="SVGID_2_">
			<use xlink:href="#SVGID_1_"  overflow="visible"/>
		</clipPath>
		
			<polyline clip-path="url(#SVGID_2_)" fill="none" stroke="#C01718" stroke-linecap="round" stroke-linejoin="round" stroke-miterlimit="10" points="
			81.477,390.537 120.347,371.965 159.128,370.043 197.912,372.604 237.015,356.577 275.798,346.644 314.58,321.323 
			353.365,268.116 392.146,211.383 431.25,160.102 470.033,113.946 508.814,95.676 547.598,95.355 586.38,91.831 625.486,90.924 
			664.267,97.279 703.096,104.651 		"/>
	</g>
	<path fill="none" stroke="#C01718" stroke-width="0.72" stroke-linejoin="round" stroke-miterlimit="10" d="M74.781,397.285
		l13.461-13.463 M88.242,397.285l-13.461-13.463"/>
	<path fill="none" stroke="#C01718" stroke-width="0.72" stroke-linejoin="round" stroke-miterlimit="10" d="M113.563,378.693
		l13.462-13.461 M127.024,378.693l-13.462-13.461"/>
	<path fill="none" stroke="#C01718" stroke-width="0.72" stroke-linejoin="round" stroke-miterlimit="10" d="M152.347,376.771
		l13.461-13.465 M165.808,376.771l-13.461-13.465"/>
	<path fill="none" stroke="#C01718" stroke-width="0.72" stroke-linejoin="round" stroke-miterlimit="10" d="M191.128,379.332
		l13.462-13.459 M204.59,379.332l-13.462-13.459"/>
	<path fill="none" stroke="#C01718" stroke-width="0.72" stroke-linejoin="round" stroke-miterlimit="10" d="M230.232,363.307
		l13.462-13.459 M243.694,363.307l-13.462-13.459"/>
	<path fill="none" stroke="#C01718" stroke-width="0.72" stroke-linejoin="round" stroke-miterlimit="10" d="M269.014,353.374
		l13.463-13.464 M282.477,353.374l-13.463-13.464"/>
	<path fill="none" stroke="#C01718" stroke-width="0.72" stroke-linejoin="round" stroke-miterlimit="10" d="M307.799,328.052
		l13.459-13.462 M321.258,328.052l-13.459-13.462"/>
	<path fill="none" stroke="#C01718" stroke-width="0.72" stroke-linejoin="round" stroke-miterlimit="10" d="M346.58,274.845
		l13.462-13.461 M360.042,274.845l-13.462-13.461"/>
	<path fill="none" stroke="#C01718" stroke-width="0.72" stroke-linejoin="round" stroke-miterlimit="10" d="M385.36,218.113
		l13.464-13.46 M398.824,218.113l-13.464-13.46"/>
	<path fill="none" stroke="#C01718" stroke-width="0.72" stroke-linejoin="round" stroke-miterlimit="10" d="M424.467,166.832
		l13.462-13.462 M437.929,166.832l-13.462-13.462"/>
	<path fill="none" stroke="#C01718" stroke-width="0.72" stroke-linejoin="round" stroke-miterlimit="10" d="M463.249,120.675
		l13.462-13.462 M476.711,120.675l-13.462-13.462"/>
	<path fill="none" stroke="#C01718" stroke-width="0.72" stroke-linejoin="round" stroke-miterlimit="10" d="M502.032,102.406
		l13.462-13.461 M515.494,102.406l-13.462-13.461"/>
	<path fill="none" stroke="#C01718" stroke-width="0.72" stroke-linejoin="round" stroke-miterlimit="10" d="M540.813,102.085
		l13.463-13.461 M554.276,102.085l-13.463-13.461"/>
	<path fill="none" stroke="#C01718" stroke-width="0.72" stroke-linejoin="round" stroke-miterlimit="10" d="M579.599,98.559
		l13.461-13.46 M593.06,98.559l-13.461-13.46"/>
	<path fill="none" stroke="#C01718" stroke-width="0.72" stroke-linejoin="round" stroke-miterlimit="10" d="M618.701,97.597
		l13.462-13.461 M632.163,97.597l-13.462-13.461"/>
	<g>
		<defs>
			<rect id="SVGID_3_" x="81.244" y="28.046" width="545.842" height="402.573"/>
		</defs>
		<clipPath id="SVGID_4_">
			<use xlink:href="#SVGID_3_"  overflow="visible"/>
		</clipPath>
		
			<line clip-path="url(#SVGID_4_)" fill="none" stroke="#7F7F7F" stroke-width="1.5" stroke-linecap="round" stroke-linejoin="round" stroke-miterlimit="10" stroke-dasharray="4.5,6" x1="-578.994" y1="128.419" x2="1363.566" y2="128.419"/>
		
			<line clip-path="url(#SVGID_4_)" fill="none" stroke="#71AE48" stroke-width="1.5" stroke-linecap="round" stroke-linejoin="round" stroke-miterlimit="10" x1="458.332" y1="629.223" x2="458.332" y2="-238.836"/>
	</g>
	
		<line fill="none" stroke="#673A8E" stroke-width="1.5" stroke-linecap="round" stroke-linejoin="round" stroke-miterlimit="10" x1="431.137" y1="160.254" x2="469.989" y2="113.959"/>
	<path fill="none" stroke="#673A8E" stroke-width="0.72" stroke-linejoin="round" stroke-miterlimit="10" d="M420.619,160.101
		h21.154 M431.196,149.521v21.156"/>
	<path fill="none" stroke="#673A8E" stroke-width="0.72" stroke-linejoin="round" stroke-miterlimit="10" d="M459.403,113.945
		h21.154 M469.98,103.367v21.154"/>
	<g>
		<defs>
			<rect id="SVGID_5_" x="81.244" y="28.046" width="543.918" height="400.647"/>
		</defs>
		<clipPath id="SVGID_6_">
			<use xlink:href="#SVGID_5_"  overflow="visible"/>
		</clipPath>
		
			<line clip-path="url(#SVGID_6_)" fill="none" stroke="#1770B7" stroke-width="1.5" stroke-linecap="round" stroke-linejoin="round" stroke-miterlimit="10" stroke-dasharray="0,3" x1="81.477" y1="576.914" x2="586.542" y2="-24.929"/>
	</g>
	<text transform="matrix(1 0 0 1 54.9883 434.8965)" font-family="'ArialMT'" font-size="18.5901">0</text>
	<text transform="matrix(1 0 0 1 54.9883 368.1235)" font-family="'ArialMT'" font-size="18.5901">1</text>
	<text transform="matrix(1 0 0 1 54.9883 301.3452)" font-family="'ArialMT'" font-size="18.5901">2</text>
	<text transform="matrix(1 0 0 1 54.9883 234.5708)" font-family="'ArialMT'" font-size="18.5901">3</text>
	<text transform="matrix(1 0 0 1 54.9883 167.7964)" font-family="'ArialMT'" font-size="18.5901">4</text>
	<text transform="matrix(1 0 0 1 54.9883 101.019)" font-family="'ArialMT'" font-size="18.5901">5</text>
	<text transform="matrix(1 0 0 1 54.9883 34.2427)" font-family="'ArialMT'" font-size="18.5901">6</text>
	<text transform="matrix(1 0 0 1 71.0688 457.1504)"><tspan x="0" y="0" font-family="'ArialMT'" font-size="18.5901">1</tspan><tspan x="10.265" y="0" font-family="'ArialMT'" font-size="18.5901">7</tspan></text>
	<text transform="matrix(1 0 0 1 148.7749 457.1504)"><tspan x="0" y="0" font-family="'ArialMT'" font-size="18.5901">1</tspan><tspan x="10.265" y="0" font-family="'ArialMT'" font-size="18.5901">9</tspan></text>
	<text transform="matrix(1 0 0 1 226.481 457.1504)"><tspan x="0" y="0" font-family="'ArialMT'" font-size="18.5901">2</tspan><tspan x="10.265" y="0" font-family="'ArialMT'" font-size="18.5901">1</tspan></text>
	<text transform="matrix(1 0 0 1 304.189 457.1504)"><tspan x="0" y="0" font-family="'ArialMT'" font-size="18.5901">2</tspan><tspan x="10.265" y="0" font-family="'ArialMT'" font-size="18.5901">3</tspan></text>
	<text transform="matrix(1 0 0 1 381.8936 457.1504)"><tspan x="0" y="0" font-family="'ArialMT'" font-size="18.5901">2</tspan><tspan x="10.265" y="0" font-family="'ArialMT'" font-size="18.5901">5</tspan></text>
	<text transform="matrix(1 0 0 1 459.6006 457.1504)"><tspan x="0" y="0" font-family="'ArialMT'" font-size="18.5901">2</tspan><tspan x="10.265" y="0" font-family="'ArialMT'" font-size="18.5901">7</tspan></text>
	<text transform="matrix(1 0 0 1 537.3066 457.1504)"><tspan x="0" y="0" font-family="'ArialMT'" font-size="18.5901">2</tspan><tspan x="10.265" y="0" font-family="'ArialMT'" font-size="18.5901">9</tspan></text>
	<text transform="matrix(1 0 0 1 615.0127 457.1504)"><tspan x="0" y="0" font-family="'ArialMT'" font-size="18.5901">3</tspan><tspan x="10.265" y="0" font-family="'ArialMT'" font-size="18.5901">1</tspan></text>
	<text transform="matrix(-6.123234e-017 -1 1 -6.123234e-017 43.1011 295.0288)"><tspan x="0" y="0" font-family="'ArialMT'" font-size="18.5901">K</tspan><tspan x="12.492" y="0" font-family="'ArialMT'" font-size="18.5901">e</tspan><tspan x="22.757" y="0" font-family="'ArialMT'" font-size="18.5901">y</tspan><tspan x="31.42" y="0" font-family="'ArialMT'" font-size="18.5901"> </tspan><tspan x="37.496" y="0" font-family="'ArialMT'" font-size="18.5901">dep</tspan><tspan x="68.29" y="0" font-family="'ArialMT'" font-size="18.5901">t</tspan><tspan x="73.436" y="0" font-family="'ArialMT'" font-size="18.5901">h</tspan><tspan x="83.7" y="0" font-family="'ArialMT'" font-size="18.5901"> </tspan><tspan x="89.46" y="0" font-family="'ArialMT'" font-size="18.5901">(</tspan><tspan x="95.558" y="0" font-family="'ArialMT'" font-size="18.5901">mm</tspan><tspan x="126.938" y="0" font-family="'ArialMT'" font-size="18.5901">)</tspan></text>
	<text transform="matrix(1 0 0 1 326.5161 486.71)"><tspan x="0" y="0" font-family="'ArialMT'" font-size="18.5901">F</tspan><tspan x="11.226" y="0" font-family="'ArialMT'" font-size="18.5901">r</tspan><tspan x="17.323" y="0" font-family="'ArialMT'" font-size="18.5901">a</tspan><tspan x="27.588" y="0" font-family="'ArialMT'" font-size="18.5901">m</tspan><tspan x="43.278" y="0" font-family="'ArialMT'" font-size="18.5901">e</tspan></text>
	
		<line fill="none" stroke="#C01718" stroke-linecap="round" stroke-linejoin="round" stroke-miterlimit="10" x1="171.943" y1="542.322" x2="239.25" y2="542.322"/>
	<path fill="none" stroke="#C01718" stroke-width="0.75" stroke-linejoin="round" stroke-miterlimit="10" d="M200.156,547.287
		l10.258-10.256 M210.414,547.287l-10.258-10.256"/>
	<text transform="matrix(1 0 0 1 246.6616 548.3174)"><tspan x="0" y="0" font-family="'ArialMT'" font-size="18.5901">R</tspan><tspan x="13.444" y="0" font-family="'ArialMT'" font-size="18.5901">o</tspan><tspan x="24.006" y="0" font-family="'ArialMT'" font-size="18.5901">l</tspan><tspan x="28.154" y="0" font-family="'ArialMT'" font-size="18.5901">l</tspan><tspan x="32.322" y="0" font-family="'ArialMT'" font-size="18.5901">i</tspan><tspan x="36.173" y="0" font-family="'ArialMT'" font-size="18.5901">n</tspan><tspan x="46.735" y="0" font-family="'ArialMT'" font-size="18.5901">g</tspan><tspan x="57" y="0" font-family="'ArialMT'" font-size="18.5901"> </tspan><tspan x="62.443" y="0" font-family="'ArialMT'" font-size="18.5901">a</tspan><tspan x="72.708" y="0" font-family="'ArialMT'" font-size="18.5901">v</tspan><tspan x="82.003" y="0" font-family="'ArialMT'" font-size="18.5901">e</tspan><tspan x="92.565" y="0" font-family="'ArialMT'" font-size="18.5901">r</tspan><tspan x="98.663" y="0" font-family="'ArialMT'" font-size="18.5901">a</tspan><tspan x="109.225" y="0" font-family="'ArialMT'" font-size="18.5901">ge</tspan><tspan x="129.753" y="0" font-family="'ArialMT'" font-size="18.5901"> </tspan><tspan x="135.198" y="0" font-family="'ArialMT'" font-size="18.5901">[</tspan><tspan x="140.344" y="0" font-family="'ArialMT'" font-size="18.5901">n</tspan><tspan x="150.609" y="0" font-family="'ArialMT'" font-size="18.5901">=</tspan><tspan x="161.502" y="0" font-family="'ArialMT'" font-size="18.5901">5</tspan><tspan x="172.064" y="0" font-family="'ArialMT'" font-size="18.5901">] </tspan><tspan x="182.357" y="0" font-family="'ArialMT'" font-size="18.5901">o</tspan><tspan x="192.918" y="0" font-family="'ArialMT'" font-size="18.5901">f </tspan><tspan x="203.211" y="0" font-family="'ArialMT'" font-size="18.5901">d</tspan><tspan x="213.773" y="0" font-family="'ArialMT'" font-size="18.5901">e</tspan><tspan x="224.038" y="0" font-family="'ArialMT'" font-size="18.5901">p</tspan><tspan x="234.6" y="0" font-family="'ArialMT'" font-size="18.5901">t</tspan><tspan x="239.728" y="0" font-family="'ArialMT'" font-size="18.5901">h</tspan></text>
	
		<line fill="none" stroke="#7F7F7F" stroke-width="1.5" stroke-linecap="round" stroke-linejoin="round" stroke-miterlimit="10" stroke-dasharray="4.5,6" x1="171.943" y1="579.025" x2="239.25" y2="579.025"/>
	<text transform="matrix(1 0 0 1 246.6616 585.0205)"><tspan x="0" y="0" font-family="'ArialMT'" font-size="18.5901">P</tspan><tspan x="12.492" y="0" font-family="'ArialMT'" font-size="18.5901">o</tspan><tspan x="22.757" y="0" font-family="'ArialMT'" font-size="18.5901">i</tspan><tspan x="26.924" y="0" font-family="'ArialMT'" font-size="18.5901">n</tspan><tspan x="37.486" y="0" font-family="'ArialMT'" font-size="18.5901">t </tspan><tspan x="47.779" y="0" font-family="'ArialMT'" font-size="18.5901">o</tspan><tspan x="58.341" y="0" font-family="'ArialMT'" font-size="18.5901">f </tspan><tspan x="68.634" y="0" font-family="'ArialMT'" font-size="18.5901">s</tspan><tspan x="77.929" y="0" font-family="'ArialMT'" font-size="18.5901">o</tspan><tspan x="88.491" y="0" font-family="'ArialMT'" font-size="18.5901">u</tspan><tspan x="98.755" y="0" font-family="'ArialMT'" font-size="18.5901">n</tspan><tspan x="109.317" y="0" font-family="'ArialMT'" font-size="18.5901">d</tspan></text>
	
		<line fill="none" stroke="#71AE48" stroke-width="1.5" stroke-linecap="round" stroke-linejoin="round" stroke-miterlimit="10" x1="171.943" y1="615.732" x2="239.25" y2="615.732"/>
	<text transform="matrix(1 0 0 1 246.6616 621.7285)"><tspan x="0" y="0" font-family="'ArialMT'" font-size="18.5901">T</tspan><tspan x="11.523" y="0" font-family="'ArialMT'" font-size="18.5901">r</tspan><tspan x="17.621" y="0" font-family="'ArialMT'" font-size="18.5901">i</tspan><tspan x="21.769" y="0" font-family="'ArialMT'" font-size="18.5901">g</tspan><tspan x="32.034" y="0" font-family="'ArialMT'" font-size="18.5901">g</tspan><tspan x="42.596" y="0" font-family="'ArialMT'" font-size="18.5901">e</tspan><tspan x="52.86" y="0" font-family="'ArialMT'" font-size="18.5901">r</tspan><tspan x="59.255" y="0" font-family="'ArialMT'" font-size="18.5901"> </tspan><tspan x="64.402" y="0" font-family="'ArialMT'" font-size="18.5901">e</tspan><tspan x="74.667" y="0" font-family="'ArialMT'" font-size="18.5901">v</tspan><tspan x="84.277" y="0" font-family="'ArialMT'" font-size="18.5901">e</tspan><tspan x="94.542" y="0" font-family="'ArialMT'" font-size="18.5901">n</tspan><tspan x="105.104" y="0" font-family="'ArialMT'" font-size="18.5901">t</tspan></text>
	
		<line fill="none" stroke="#673A8E" stroke-width="1.5" stroke-linecap="round" stroke-linejoin="round" stroke-miterlimit="10" x1="171.943" y1="652.438" x2="239.25" y2="652.438"/>
	<path fill="none" stroke="#673A8E" stroke-width="0.75" stroke-linejoin="round" stroke-miterlimit="10" d="M200.156,652.416
		h10.258 M205.284,647.287v10.258"/>
	<text transform="matrix(1 0 0 1 246.6616 658.4326)"><tspan x="0" y="0" font-family="'ArialMT'" font-size="18.5901">T</tspan><tspan x="11.523" y="0" font-family="'ArialMT'" font-size="18.5901">a</tspan><tspan x="21.788" y="0" font-family="'ArialMT'" font-size="18.5901">n</tspan><tspan x="32.35" y="0" font-family="'ArialMT'" font-size="18.5901">ge</tspan><tspan x="52.878" y="0" font-family="'ArialMT'" font-size="18.5901">n</tspan><tspan x="63.44" y="0" font-family="'ArialMT'" font-size="18.5901">t</tspan><tspan x="68.568" y="0" font-family="'ArialMT'" font-size="18.5901"> </tspan><tspan x="73.715" y="0" font-family="'ArialMT'" font-size="18.5901">p</tspan><tspan x="84.277" y="0" font-family="'ArialMT'" font-size="18.5901">o</tspan><tspan x="94.541" y="0" font-family="'ArialMT'" font-size="18.5901">i</tspan><tspan x="98.69" y="0" font-family="'ArialMT'" font-size="18.5901">n</tspan><tspan x="109.252" y="0" font-family="'ArialMT'" font-size="18.5901">t</tspan><tspan x="114.38" y="0" font-family="'ArialMT'" font-size="18.5901">s</tspan></text>
	
		<line fill="none" stroke="#1770B7" stroke-width="1.5" stroke-linecap="round" stroke-linejoin="round" stroke-miterlimit="10" stroke-dasharray="0,3" x1="171.943" y1="689.141" x2="239.25" y2="689.141"/>
	<text transform="matrix(1 0 0 1 246.6616 695.1348)"><tspan x="0" y="0" font-family="'ArialMT'" font-size="18.5901">L</tspan><tspan x="10.265" y="0" font-family="'ArialMT'" font-size="18.5901">i</tspan><tspan x="14.432" y="0" font-family="'ArialMT'" font-size="18.5901">n</tspan><tspan x="24.994" y="0" font-family="'ArialMT'" font-size="18.5901">e</tspan><tspan x="35.258" y="0" font-family="'ArialMT'" font-size="18.5901"> </tspan><tspan x="40.702" y="0" font-family="'ArialMT'" font-size="18.5901">o</tspan><tspan x="50.967" y="0" font-family="'ArialMT'" font-size="18.5901">f</tspan><tspan x="56.095" y="0" font-family="'ArialMT'" font-size="18.5901"> </tspan><tspan x="61.241" y="0" font-family="'ArialMT'" font-size="18.5901">c</tspan><tspan x="70.852" y="0" font-family="'ArialMT'" font-size="18.5901">a</tspan><tspan x="81.117" y="0" font-family="'ArialMT'" font-size="18.5901">l</tspan><tspan x="85.284" y="0" font-family="'ArialMT'" font-size="18.5901">c</tspan><tspan x="94.579" y="0" font-family="'ArialMT'" font-size="18.5901">u</tspan><tspan x="105.141" y="0" font-family="'ArialMT'" font-size="18.5901">l</tspan><tspan x="109.308" y="0" font-family="'ArialMT'" font-size="18.5901">a</tspan><tspan x="119.573" y="0" font-family="'ArialMT'" font-size="18.5901">t</tspan><tspan x="124.719" y="0" font-family="'ArialMT'" font-size="18.5901">e</tspan><tspan x="135.281" y="0" font-family="'ArialMT'" font-size="18.5901">d</tspan><tspan x="145.545" y="0" font-family="'ArialMT'" font-size="18.5901"> </tspan><tspan x="150.692" y="0" font-family="'ArialMT'" font-size="18.5901">g</tspan><tspan x="161.254" y="0" font-family="'ArialMT'" font-size="18.5901">r</tspan><tspan x="167.352" y="0" font-family="'ArialMT'" font-size="18.5901">a</tspan><tspan x="177.914" y="0" font-family="'ArialMT'" font-size="18.5901">d</tspan><tspan x="188.178" y="0" font-family="'ArialMT'" font-size="18.5901">i</tspan><tspan x="192.345" y="0" font-family="'ArialMT'" font-size="18.5901">e</tspan><tspan x="202.908" y="0" font-family="'ArialMT'" font-size="18.5901">n</tspan><tspan x="213.172" y="0" font-family="'ArialMT'" font-size="18.5901">t</tspan></text>
</g>
</svg>
